<?xml version="1.0" encoding="UTF-8"?>
<svg width="164px" height="100px" viewBox="0 0 164 100" version="1.1" xmlns="http://www.w3.org/2000/svg" xmlns:xlink="http://www.w3.org/1999/xlink">
    <!-- Generator: Sketch 52.5 (67469) - http://www.bohemiancoding.com/sketch -->
    <title>分组 2@2x</title>
    <desc>Created with Sketch.</desc>
    <defs>
        <filter x="-57.1%" y="-57.1%" width="214.3%" height="214.3%" filterUnits="objectBoundingBox" id="filter-1">
            <feOffset dx="0" dy="2" in="SourceAlpha" result="shadowOffsetOuter1"></feOffset>
            <feGaussianBlur stdDeviation="3" in="shadowOffsetOuter1" result="shadowBlurOuter1"></feGaussianBlur>
            <feColorMatrix values="0 0 0 0 0.250980392   0 0 0 0 0.745098039   0 0 0 0 0.223529412  0 0 0 0.465834466 0" type="matrix" in="shadowBlurOuter1" result="shadowMatrixOuter1"></feColorMatrix>
            <feMerge>
                <feMergeNode in="shadowMatrixOuter1"></feMergeNode>
                <feMergeNode in="SourceGraphic"></feMergeNode>
            </feMerge>
        </filter>
        <linearGradient x1="142.66183%" y1="61.9105748%" x2="0%" y2="39.2473493%" id="linearGradient-2">
            <stop stop-color="#5DE25B" offset="0%"></stop>
            <stop stop-color="#42C03A" offset="100%"></stop>
        </linearGradient>
        <path d="M2.32879797,0.388132996 L14,2.33333333 L14,28 L1.67120203,25.9452003 C0.706826085,25.784471 2.74461503e-15,24.9500908 8.8817842e-16,23.9724125 L8.8817842e-16,2.36092084 C7.52907669e-16,1.25635134 0.8954305,0.360920843 2,0.360920843 C2.11016172,0.360920843 2.22013512,0.37002252 2.32879797,0.388132996 Z" id="path-3"></path>
        <linearGradient x1="137.575854%" y1="57.5223214%" x2="50%" y2="67.2719595%" id="linearGradient-5">
            <stop stop-color="#FFFFFF" offset="0%"></stop>
            <stop stop-color="#FFFFFF" stop-opacity="0" offset="100%"></stop>
        </linearGradient>
        <linearGradient x1="-24.093192%" y1="36.6978237%" x2="100%" y2="50%" id="linearGradient-6">
            <stop stop-color="#5DE25B" offset="0%"></stop>
            <stop stop-color="#42C03A" offset="100%"></stop>
        </linearGradient>
    </defs>
    <g id="Page-1" stroke="none" stroke-width="1" fill="none" fill-rule="evenodd">
        <g id="首页" transform="translate(-380.000000, -722.000000)">
            <g id="分组-5" transform="translate(30.000000, 722.000000)">
                <g id="分组-2" transform="translate(350.000000, 0.000000)">
                    <rect id="矩形" stroke="#EEEEEE" fill="#FFFFFF" fill-rule="nonzero" x="0.5" y="0.5" width="163" height="99" rx="10"></rect>
                    <path d="M20.028161,29.4016419 L17.7464708,29.4016419 L17.7464708,37.1974165 L20.1639759,37.1974165 L20.1639759,40.5927887 L17.7464708,40.5927887 L17.7464708,47.628 L14.0794688,47.628 L14.0794688,40.5927887 L10.6026076,40.5927887 L10.6026076,37.1974165 L14.0794688,37.1974165 L14.0794688,29.4016419 L13.0201127,29.4016419 C12.7484815,30.162209 12.381785,30.8276953 11.9200121,31.3981207 C11.4582391,31.9685461 10.874241,32.4438935 10.168,32.8241771 L10.168,28.9127082 C10.4939574,28.3875547 10.7203132,27.7039599 10.8470744,26.8619034 C10.9738356,26.0198469 11.0372153,24.9378658 11.0372153,23.6159276 L13.6720241,23.6159276 L13.6720241,24.8654245 C13.6720241,25.2638169 13.6539157,25.6440948 13.6176982,26.0062696 L14.2967726,26.0062696 L14.2967726,20.7366519 L17.7464708,20.7366519 L17.7464708,26.0062696 L20.028161,26.0062696 L20.028161,29.4016419 Z M30.6760483,20.628 L30.6760483,22.6380604 L36.1901328,22.6380604 L36.1901328,26.0334326 L30.6760483,26.0334326 L30.6760483,28.4781006 L36.8963702,28.4781006 L36.8963702,31.8734728 L20.8158873,31.8734728 L20.8158873,28.4781006 L27.0362093,28.4781006 L27.0362093,26.0334326 L21.4949618,26.0334326 L21.4949618,22.6380604 L27.0362093,22.6380604 L27.0362093,20.628 L30.6760483,20.628 Z M36.9778592,38.0937948 L34.8591469,38.0937948 L34.8591469,44.0968129 C34.8591469,44.5857489 34.7776588,45.0384607 34.6146801,45.4549618 C34.4517014,45.8714628 34.2208184,46.2336323 33.9220241,46.5414809 C33.6232299,46.8493295 33.2746418,47.0892667 32.8762495,47.2612998 C32.4778572,47.4333329 32.0341996,47.5193481 31.5452636,47.5193481 L28.2313803,47.5193481 L28.2313803,44.1239759 L29.8883219,44.1239759 C30.2686055,44.1239759 30.5809766,43.9926894 30.8254447,43.7301127 C31.0699127,43.4675359 31.1921449,43.1461106 31.1921449,42.765827 L31.1921449,38.0937948 L20.7343984,38.0937948 L20.7343984,34.6984225 L31.1921449,34.6984225 L31.1921449,32.85134 L34.8591469,32.85134 L34.8591469,34.6984225 L36.9778592,34.6984225 L36.9778592,38.0937948 Z M25.5965714,39.5877586 C25.976855,40.6561744 26.3118617,41.6521403 26.6016016,42.5756861 C26.8913415,43.499232 27.1448601,44.4770894 27.362165,45.5092877 L23.640837,45.5092877 C23.4235321,44.4770894 23.1700135,43.499232 22.8802736,42.5756861 C22.5905338,41.6521403 22.2645813,40.6561744 21.9024064,39.5877586 L25.5965714,39.5877586 Z M60.2293682,22.0948008 L60.2293682,25.3000322 L58.1921449,28.1793078 L62.0764507,28.1793078 L62.0764507,40.0766922 L42.7364105,40.0766922 L42.7364105,42.711501 C42.7364105,43.0736759 42.872224,43.3905741 43.1438551,43.6622052 C43.4154863,43.9338364 43.7323845,44.0696499 44.0945594,44.0696499 L63.1358068,44.0696499 L63.1358068,47.4378592 L41.8128692,47.4378592 C41.4325856,47.4378592 41.0794704,47.3654253 40.7535131,47.2205553 C40.4275557,47.0756854 40.1423473,46.8810193 39.8978793,46.6365513 C39.6534113,46.3920833 39.4587452,46.1068749 39.3138753,45.7809175 C39.1690053,45.4549601 39.0965714,45.1108992 39.0965714,44.7487243 L39.0965714,28.1793078 L53.9003944,28.1793078 L55.6931509,25.4358471 L42.9265513,25.4358471 C42.455724,26.0877618 41.8490902,26.6219617 41.1066318,27.0384628 C40.3641734,27.4549639 39.4406413,27.7175367 38.336008,27.8261891 L38.336008,24.1320241 C39.1690102,23.932828 39.7439541,23.5525501 40.0608571,22.9911791 C40.3777601,22.4298081 40.5814804,21.6692523 40.6720241,20.7094889 L44.3118632,20.7094889 C44.2937544,20.9630113 44.275646,21.2029486 44.2575372,21.4293078 C44.2394285,21.6556671 44.2122658,21.8774959 44.1760483,22.0948008 L60.2293682,22.0948008 Z M58.4366117,31.5746801 L52.4064306,31.5746801 L52.4064306,36.7084829 L58.4366117,36.7084829 L58.4366117,31.5746801 Z M42.7364105,36.7084829 L48.7394286,36.7084829 L48.7394286,31.5746801 L42.7364105,31.5746801 L42.7364105,36.7084829 Z M90.3259477,42.0052636 L87.3108571,42.0052636 L87.3108571,43.0102938 C87.3108571,43.4992298 87.4285622,43.816128 87.6639759,43.960998 C87.8993895,44.1058679 88.225342,44.1783018 88.6418431,44.1783018 L91.3309779,44.1783018 L91.3309779,47.3563702 L86.9577384,47.3563702 C85.8531051,47.3563702 85.0246426,47.0756889 84.472326,46.5143179 C83.9200093,45.9529469 83.6438551,45.1290115 83.6438551,44.0424869 L83.6438551,42.0052636 L81.2535131,42.0052636 C81.1629694,43.0193532 80.9230321,43.8749784 80.5336942,44.572165 C80.1443562,45.2693516 79.6237377,45.8352413 78.9718229,46.2698511 C78.3199082,46.7044609 77.5502982,47.016832 76.6629698,47.2069738 C75.7756414,47.3971156 74.7887298,47.4921851 73.7022052,47.4921851 L73.7022052,44.0968129 C74.2454675,44.0605954 74.7343962,44.0107971 75.169006,43.9474165 C75.6036159,43.8840359 75.9838937,43.7844393 76.3098511,43.6486237 C76.6358085,43.5128082 76.9029084,43.313615 77.111159,43.0510382 C77.3194095,42.7884615 77.4688044,42.4398734 77.5593481,42.0052636 L74.5714205,42.0052636 L74.5714205,31.2758873 L90.3259477,31.2758873 L90.3259477,42.0052636 Z M70.6327887,21.4700523 L70.6327887,27.1471147 L72.9959678,27.1471147 L72.9959678,30.5153239 L70.6327887,30.5153239 L70.6327887,41.8966117 L73.1046197,41.1903742 L73.1046197,44.5585835 C72.3621613,44.7939972 71.6514038,45.0112988 70.972326,45.210495 C70.2932481,45.4096911 69.6096533,45.5862487 68.9215211,45.740173 C68.2333889,45.8940973 67.5316857,46.0253838 66.8163903,46.1340362 C66.101095,46.2426887 65.3269579,46.3241768 64.4939557,46.378503 L64.4939557,43.0102938 C64.9466743,42.9740763 65.3767505,42.9333322 65.7841972,42.8880604 C66.1916439,42.8427885 66.5945574,42.783936 66.9929497,42.711501 L66.9929497,30.5153239 L64.6297706,30.5153239 L64.6297706,27.1471147 L66.9929497,27.1471147 L66.9929497,21.4700523 L70.6327887,21.4700523 Z M88.696169,25.6259879 L88.1257465,27.2286036 L91.195163,27.2286036 L91.195163,30.3523461 L73.7022052,30.3523461 L73.7022052,27.2286036 L76.7444588,27.2286036 L76.2011992,25.6259879 L79.9225272,25.6259879 L80.4929497,27.2286036 L84.4044185,27.2286036 L84.974841,25.6259879 L88.696169,25.6259879 Z M84.2686036,20.628 L84.2686036,21.796008 L90.8692072,21.796008 L90.8692072,24.9197505 L74.028161,24.9197505 L74.028161,21.796008 L80.6287646,21.796008 L80.6287646,20.628 L84.2686036,20.628 Z M86.6589457,37.9851429 L78.2384225,37.9851429 L78.2384225,38.9630101 L86.6589457,38.9630101 L86.6589457,37.9851429 Z M78.2384225,35.296008 L86.6589457,35.296008 L86.6589457,34.3181408 L78.2384225,34.3181408 L78.2384225,35.296008 Z M98.6649819,20.7909779 C98.6468731,21.2618052 98.6242376,21.7235712 98.5970744,22.1762897 C98.5699113,22.6290083 98.5110588,23.0636116 98.4205151,23.4801127 L105.265586,23.4801127 L105.265586,31.710495 C105.265586,34.7527637 104.921525,37.2698411 104.233392,39.2618028 C103.54526,41.2537645 102.594565,42.8473099 101.38128,44.0424869 C100.167994,45.2376639 98.7419519,46.0932892 97.1031107,46.6093883 C95.4642695,47.1254875 93.6941664,47.4288044 91.7927485,47.5193481 L91.7927485,43.933835 C92.6619681,43.8070738 93.504012,43.6576789 94.3189054,43.4856459 C95.1337988,43.3136128 95.8988817,43.05104 96.6141771,42.6979195 C97.3294724,42.344799 97.9859045,41.8875602 98.583493,41.3261891 C99.1810815,40.7648181 99.6926458,40.0450064 100.118201,39.1667324 C100.543757,38.2884584 100.874236,37.2291128 101.10965,35.988664 C101.345064,34.7482151 101.462769,33.2678476 101.462769,31.5475171 L101.462769,26.9026479 L97.361159,26.9026479 C96.7816792,28.0797161 96.0256505,29.075682 95.0930503,29.8905755 C94.1604501,30.7054689 93.0331978,31.2758857 91.7112596,31.6018431 L91.7112596,27.3915815 C92.7072404,26.793993 93.4361063,25.9610033 93.8978793,24.8925875 C94.3596522,23.8241717 94.6901318,22.4569822 94.889328,20.7909779 L98.6649819,20.7909779 Z M111.431581,20.8181408 L111.431581,47.573674 L107.764579,47.573674 L107.764579,20.8181408 L111.431581,20.8181408 Z M114.745465,38.990173 C114.691139,38.2114971 114.600596,37.3830346 114.473835,36.5047606 C114.347074,35.6264866 114.188625,34.7391715 113.998483,33.8427887 C113.808341,32.946406 113.586512,32.0590909 113.33299,31.1808169 C113.079468,30.3025429 112.798786,29.4831346 112.490938,28.7225674 L116.293755,28.7225674 C116.583494,29.3563734 116.855121,30.112402 117.108644,30.9906761 C117.362166,31.8689501 117.579468,32.7834278 117.760555,33.7341368 C117.941643,34.6848458 118.086511,35.6219592 118.195163,36.545505 C118.303815,37.4690509 118.376249,38.2839321 118.412467,38.990173 L114.745465,38.990173 Z M97.9859074,31.0585835 L99.5070342,39.2889658 L95.7313803,39.2889658 L94.2102535,31.0585835 L97.9859074,31.0585835 Z" id="特色境外" fill="#333333"></path>
                    <text id="冰岛延伸" font-family="PingFangSC-Light, PingFang SC" font-size="22" font-weight="300" line-spacing="22" fill="#888888">
                        <tspan x="10" y="81">冰岛延伸</tspan>
                    </text>
                    <g id="分组-75" filter="url(#filter-1)" transform="translate(126.000000, 61.000000)">
                        <g id="分组-76">
                            <g id="路径-11">
                                <mask id="mask-4" fill="white">
                                    <use xlink:href="#path-3"></use>
                                </mask>
                                <use id="Mask" fill="url(#linearGradient-2)" fill-rule="nonzero" xlink:href="#path-3"></use>
                                <path d="M-3.90798505e-14,-6 C3.44659149,0.667448233 5.7459144,6.66744823 6.89796874,12 C8.05002308,17.3325518 8.36950004,22.9992184 7.85639963,29 L-18,28.8824047 L-3.90798505e-14,-6 Z" id="路径-13" fill="url(#linearGradient-5)" fill-rule="nonzero" opacity="0.3" mask="url(#mask-4)"></path>
                            </g>
                            <path d="M16.328798,0.388132996 L28,2.33333333 L28,28 L15.671202,25.9452003 C14.7068261,25.784471 14,24.9500908 14,23.9724125 L14,2.36092084 C14,1.25635134 14.8954305,0.360920843 16,0.360920843 C16.1101617,0.360920843 16.2201351,0.37002252 16.328798,0.388132996 Z" id="矩形" fill="url(#linearGradient-6)" fill-rule="nonzero" transform="translate(21.000000, 14.000000) scale(-1, 1) translate(-21.000000, -14.000000) "></path>
                            <polygon id="星形" fill="#FFFFFF" fill-rule="nonzero" opacity="0.8" points="21 12.219494 18.648859 13.236068 18.8891357 10.6858614 17.1957739 8.76393202 19.6954141 8.2043916 21 6 22.3045859 8.2043916 24.8042261 8.76393202 23.1108643 10.6858614 23.351141 13.236068"></polygon>
                        </g>
                    </g>
                </g>
            </g>
        </g>
    </g>
</svg>