<?xml version="1.0" encoding="UTF-8"?>
<svg width="112px" height="112px" viewBox="0 0 112 112" version="1.1" xmlns="http://www.w3.org/2000/svg" xmlns:xlink="http://www.w3.org/1999/xlink">
    <!-- Generator: Sketch 52.5 (67469) - http://www.bohemiancoding.com/sketch -->
    <title>分组 65</title>
    <desc>Created with Sketch.</desc>
    <defs>
        <filter x="-27.7%" y="-27.7%" width="155.4%" height="155.4%" filterUnits="objectBoundingBox" id="filter-1">
            <feOffset dx="0" dy="4" in="SourceAlpha" result="shadowOffsetOuter1"></feOffset>
            <feGaussianBlur stdDeviation="6" in="shadowOffsetOuter1" result="shadowBlurOuter1"></feGaussianBlur>
            <feColorMatrix values="0 0 0 0 0.321568627   0 0 0 0 0.549019608   0 0 0 0 0.97254902  0 0 0 0.428187274 0" type="matrix" in="shadowBlurOuter1" result="shadowMatrixOuter1"></feColorMatrix>
            <feMerge>
                <feMergeNode in="shadowMatrixOuter1"></feMergeNode>
                <feMergeNode in="SourceGraphic"></feMergeNode>
            </feMerge>
        </filter>
        <linearGradient x1="25.4261364%" y1="6.4675071%" x2="70.9028764%" y2="94.2782315%" id="linearGradient-2">
            <stop stop-color="#6FBEFF" offset="0%"></stop>
            <stop stop-color="#4E86F7" offset="100%"></stop>
        </linearGradient>
        <circle id="path-3" cx="44" cy="44" r="44"></circle>
        <filter x="-5.7%" y="-5.7%" width="111.4%" height="111.4%" filterUnits="objectBoundingBox" id="filter-5">
            <feGaussianBlur stdDeviation="4" in="SourceAlpha" result="shadowBlurInner1"></feGaussianBlur>
            <feOffset dx="2" dy="2" in="shadowBlurInner1" result="shadowOffsetInner1"></feOffset>
            <feComposite in="shadowOffsetInner1" in2="SourceAlpha" operator="arithmetic" k2="-1" k3="1" result="shadowInnerInner1"></feComposite>
            <feColorMatrix values="0 0 0 0 0.545237532   0 0 0 0 0.794725275   0 0 0 0 1  0 0 0 1 0" type="matrix" in="shadowInnerInner1" result="shadowMatrixInner1"></feColorMatrix>
            <feGaussianBlur stdDeviation="4" in="SourceAlpha" result="shadowBlurInner2"></feGaussianBlur>
            <feOffset dx="-2" dy="-2" in="shadowBlurInner2" result="shadowOffsetInner2"></feOffset>
            <feComposite in="shadowOffsetInner2" in2="SourceAlpha" operator="arithmetic" k2="-1" k3="1" result="shadowInnerInner2"></feComposite>
            <feColorMatrix values="0 0 0 0 0.305882353   0 0 0 0 0.529411765   0 0 0 0 0.968627451  0 0 0 1 0" type="matrix" in="shadowInnerInner2" result="shadowMatrixInner2"></feColorMatrix>
            <feMerge>
                <feMergeNode in="shadowMatrixInner1"></feMergeNode>
                <feMergeNode in="shadowMatrixInner2"></feMergeNode>
            </feMerge>
        </filter>
        <linearGradient x1="50%" y1="0%" x2="50%" y2="100%" id="linearGradient-6">
            <stop stop-color="#FFFFFF" stop-opacity="0" offset="0%"></stop>
            <stop stop-color="#FFFFFF" stop-opacity="0.225147192" offset="100%"></stop>
        </linearGradient>
        <linearGradient x1="86.3719314%" y1="11.2512588%" x2="8.06615376%" y2="50%" id="linearGradient-7">
            <stop stop-color="#FFFFFF" offset="0%"></stop>
            <stop stop-color="#FFFFFF" stop-opacity="0" offset="100%"></stop>
        </linearGradient>
        <filter x="-51.9%" y="-57.4%" width="203.8%" height="214.9%" filterUnits="objectBoundingBox" id="filter-8">
            <feOffset dx="0" dy="4" in="SourceAlpha" result="shadowOffsetOuter1"></feOffset>
            <feGaussianBlur stdDeviation="5" in="shadowOffsetOuter1" result="shadowBlurOuter1"></feGaussianBlur>
            <feColorMatrix values="0 0 0 0 0.116773201   0 0 0 0 0.473256306   0 0 0 0 1  0 0 0 0.576115263 0" type="matrix" in="shadowBlurOuter1" result="shadowMatrixOuter1"></feColorMatrix>
            <feMerge>
                <feMergeNode in="shadowMatrixOuter1"></feMergeNode>
                <feMergeNode in="SourceGraphic"></feMergeNode>
            </feMerge>
        </filter>
        <linearGradient x1="50%" y1="19.3969727%" x2="50%" y2="100%" id="linearGradient-9">
            <stop stop-color="#FFFFFF" offset="0%"></stop>
            <stop stop-color="#FFFFFF" stop-opacity="0.644050045" offset="100%"></stop>
        </linearGradient>
        <path d="M18.0656885,0.28125 L22.0630518,0.28125 C22.7194267,0.28125 23.334023,0.603316663 23.7075732,1.143028 L34.6666667,16.9769022 L21.726954,16.9769022 C20.8358239,16.9769022 20.0521964,16.3873276 19.8052688,15.5310919 L16.1440034,2.83543968 C15.8379329,1.77412228 16.4501815,0.665635362 17.5114989,0.359564854 C17.6916448,0.307613035 17.878201,0.28125 18.0656885,0.28125 Z" id="path-10"></path>
        <filter x="-9.6%" y="-15.0%" width="122.5%" height="129.9%" filterUnits="objectBoundingBox" id="filter-11">
            <feGaussianBlur stdDeviation="2" in="SourceAlpha" result="shadowBlurInner1"></feGaussianBlur>
            <feOffset dx="0" dy="-1" in="shadowBlurInner1" result="shadowOffsetInner1"></feOffset>
            <feComposite in="shadowOffsetInner1" in2="SourceAlpha" operator="arithmetic" k2="-1" k3="1" result="shadowInnerInner1"></feComposite>
            <feColorMatrix values="0 0 0 0 0.298039216   0 0 0 0 0.560784314   0 0 0 0 0.976470588  0 0 0 0.479647871 0" type="matrix" in="shadowInnerInner1"></feColorMatrix>
        </filter>
        <linearGradient x1="50%" y1="0%" x2="50%" y2="100%" id="linearGradient-12">
            <stop stop-color="#FFFFFF" offset="0%"></stop>
            <stop stop-color="#FFFFFF" stop-opacity="0.616536458" offset="100%"></stop>
        </linearGradient>
        <path d="M18.0656885,30.2608696 L22.0630518,30.2608696 C22.7194267,30.2608696 23.334023,30.5829362 23.7075732,31.1226476 L34.6666667,46.9565217 L20.2222222,46.9565217 L16.1440034,32.8150592 C15.8379329,31.7537418 16.4501815,30.6452549 17.5114989,30.3391844 C17.6916448,30.2872326 17.878201,30.2608696 18.0656885,30.2608696 Z" id="path-13"></path>
        <filter x="-9.6%" y="-15.0%" width="122.5%" height="129.9%" filterUnits="objectBoundingBox" id="filter-14">
            <feGaussianBlur stdDeviation="2" in="SourceAlpha" result="shadowBlurInner1"></feGaussianBlur>
            <feOffset dx="0" dy="-1" in="shadowBlurInner1" result="shadowOffsetInner1"></feOffset>
            <feComposite in="shadowOffsetInner1" in2="SourceAlpha" operator="arithmetic" k2="-1" k3="1" result="shadowInnerInner1"></feComposite>
            <feColorMatrix values="0 0 0 0 0.298039216   0 0 0 0 0.560784314   0 0 0 0 0.976470588  0 0 0 0.479647871 0" type="matrix" in="shadowInnerInner1"></feColorMatrix>
        </filter>
        <path d="M11.4977126,15.293718 L37.9194878,15.293718 C45.6432533,15.5170237 50.166311,18.4805786 51.488661,24.184383 C52.5345353,29.158328 50.5959141,31.6453005 45.6727973,31.6453005 L21.7284975,31.6453005 L6.34735583,31.5118219 C5.39992117,31.5036 4.58825971,30.8317153 4.4032226,29.9024891 L0.347440525,9.53501324 C0.131722583,8.45171294 0.835037051,7.39865058 1.91833736,7.18293264 C2.04695711,7.15732055 2.1777842,7.14442136 2.30892924,7.14442136 L4.10647212,7.14442136 C4.7895074,7.14442136 5.4253117,7.49299792 5.79263725,8.06885305 L9.8115475,14.3692863 C10.1788731,14.9451415 10.8146774,15.293718 11.4977126,15.293718 Z M48.8985894,23.8400735 C48.2415031,21.8074518 47.3403574,20.42563 46.1951525,19.6946083 C45.3945025,19.6666728 44.5440885,19.6593116 43.6439108,19.6725247 C43.0974091,19.6805483 42.6585894,20.1258565 42.6585894,20.672417 L42.6585894,21.8400735 C42.6585894,22.944643 43.5540199,23.8400735 44.6585894,23.8400735 L48.8985894,23.8400735 Z" id="path-15"></path>
        <filter x="-6.8%" y="-14.3%" width="113.6%" height="128.6%" filterUnits="objectBoundingBox" id="filter-16">
            <feGaussianBlur stdDeviation="3" in="SourceAlpha" result="shadowBlurInner1"></feGaussianBlur>
            <feOffset dx="0" dy="-1" in="shadowBlurInner1" result="shadowOffsetInner1"></feOffset>
            <feComposite in="shadowOffsetInner1" in2="SourceAlpha" operator="arithmetic" k2="-1" k3="1" result="shadowInnerInner1"></feComposite>
            <feColorMatrix values="0 0 0 0 0.298039216   0 0 0 0 0.560784314   0 0 0 0 0.976470588  0 0 0 0.479647871 0" type="matrix" in="shadowInnerInner1"></feColorMatrix>
        </filter>
    </defs>
    <g id="Page-1" stroke="none" stroke-width="1" fill="none" fill-rule="evenodd">
        <g id="首页" transform="translate(-28.000000, -529.000000)">
            <g id="金刚区" transform="translate(28.000000, 372.000000)">
                <g id="分组-40" transform="translate(0.000000, 157.000000)">
                    <g id="分组-65" filter="url(#filter-1)">
                        <g id="分组-71" transform="translate(12.000000, 8.000000)">
                            <mask id="mask-4" fill="white">
                                <use xlink:href="#path-3"></use>
                            </mask>
                            <g id="Mask" fill-rule="nonzero">
                                <use fill="url(#linearGradient-2)" xlink:href="#path-3"></use>
                                <use fill="black" fill-opacity="1" filter="url(#filter-5)" xlink:href="#path-3"></use>
                            </g>
                            <g id="分组-72" mask="url(#mask-4)" fill="url(#linearGradient-6)" fill-rule="nonzero">
                                <g transform="translate(13.000000, 11.000000)" id="矩形">
                                    <rect transform="translate(8.583154, 26.221825) rotate(-315.000000) translate(-8.583154, -26.221825) " x="8.08315353" y="15.7218254" width="1" height="21" rx="0.5"></rect>
                                    <rect transform="translate(52.252930, 13.887550) rotate(-315.000000) translate(-52.252930, -13.887550) " x="51.7529297" y="3.38754959" width="1" height="21" rx="0.5"></rect>
                                    <rect opacity="0.526204427" transform="translate(36.474755, 4.387550) rotate(-315.000000) translate(-36.474755, -4.387550) " x="35.9747551" y="-0.612450407" width="1" height="10" rx="0.5"></rect>
                                </g>
                            </g>
                            <g opacity="0.6" mask="url(#mask-4)" fill="url(#linearGradient-7)" fill-rule="nonzero" id="路径-7">
                                <g transform="translate(-16.000000, 63.000000)">
                                    <path d="M112.208848,20 C91.497834,3.87855491 76.7615512,-0.31610655 68,7.41601562 C54.8576732,19.0141989 24.3250249,20.2633502 13.7185275,4.84668357 C6.64752919,-5.43109421 9.66096967,1.90223913 22.7588489,26.8466836 L111.754813,30.8466836 L112.208848,20 Z" opacity="0.2"></path>
                                    <path d="M102.208848,22.4970372 C81.497834,10.6043683 66.7615512,7.50999812 58,13.2139265 C44.8576732,21.7698191 14.3250249,22.6913087 3.71852746,11.3185496 C-3.35247081,3.73671017 -0.339030334,9.14645505 12.7588489,27.5477842 L101.754813,30.4985542 L102.208848,22.4970372 Z" opacity="0.16" transform="translate(51.104424, 19.249277) scale(-1, 1) translate(-51.104424, -19.249277) "></path>
                                    <path d="M105.929552,17.8451666 C85.2185371,5.95249777 70.4822543,2.85812754 61.7207031,8.56205595 C48.5783763,17.1179486 18.045728,18.0394381 7.43923059,6.666679 C0.368232313,-0.915160411 3.38167279,4.49458447 16.479552,22.8959136 L105.475517,25.8466836 L105.929552,17.8451666 Z" opacity="0.16" transform="translate(54.825127, 14.597406) scale(-1, 1) translate(-54.825127, -14.597406) "></path>
                                </g>
                            </g>
                        </g>
                        <g id="分组-44" filter="url(#filter-8)" transform="translate(30.000000, 29.000000)" fill-rule="nonzero">
                            <g id="矩形">
                                <use fill="url(#linearGradient-9)" xlink:href="#path-10"></use>
                                <use fill="black" fill-opacity="1" filter="url(#filter-11)" xlink:href="#path-10"></use>
                            </g>
                            <g id="矩形" transform="translate(25.037037, 38.608696) scale(1, -1) translate(-25.037037, -38.608696) ">
                                <use fill="url(#linearGradient-12)" xlink:href="#path-13"></use>
                                <use fill="black" fill-opacity="1" filter="url(#filter-14)" xlink:href="#path-13"></use>
                            </g>
                            <g id="合并形状">
                                <use fill="#FFFFFF" xlink:href="#path-15"></use>
                                <use fill="black" fill-opacity="1" filter="url(#filter-16)" xlink:href="#path-15"></use>
                            </g>
                        </g>
                    </g>
                </g>
            </g>
        </g>
    </g>
</svg>