<?xml version="1.0" encoding="UTF-8"?>
<svg width="112px" height="112px" viewBox="0 0 112 112" version="1.1" xmlns="http://www.w3.org/2000/svg" xmlns:xlink="http://www.w3.org/1999/xlink">
    <!-- Generator: Sketch 52.5 (67469) - http://www.bohemiancoding.com/sketch -->
    <title>分组 62</title>
    <desc>Created with Sketch.</desc>
    <defs>
        <filter x="-27.7%" y="-27.7%" width="155.4%" height="155.4%" filterUnits="objectBoundingBox" id="filter-1">
            <feOffset dx="0" dy="4" in="SourceAlpha" result="shadowOffsetOuter1"></feOffset>
            <feGaussianBlur stdDeviation="6" in="shadowOffsetOuter1" result="shadowBlurOuter1"></feGaussianBlur>
            <feColorMatrix values="0 0 0 0 0.321568627   0 0 0 0 0.549019608   0 0 0 0 0.97254902  0 0 0 0.428187274 0" type="matrix" in="shadowBlurOuter1" result="shadowMatrixOuter1"></feColorMatrix>
            <feMerge>
                <feMergeNode in="shadowMatrixOuter1"></feMergeNode>
                <feMergeNode in="SourceGraphic"></feMergeNode>
            </feMerge>
        </filter>
        <linearGradient x1="25.4261364%" y1="6.4675071%" x2="70.9028764%" y2="94.2782315%" id="linearGradient-2">
            <stop stop-color="#6FBEFF" offset="0%"></stop>
            <stop stop-color="#4E86F7" offset="100%"></stop>
        </linearGradient>
        <circle id="path-3" cx="44" cy="44" r="44"></circle>
        <filter x="-5.7%" y="-5.7%" width="111.4%" height="111.4%" filterUnits="objectBoundingBox" id="filter-5">
            <feGaussianBlur stdDeviation="4" in="SourceAlpha" result="shadowBlurInner1"></feGaussianBlur>
            <feOffset dx="2" dy="2" in="shadowBlurInner1" result="shadowOffsetInner1"></feOffset>
            <feComposite in="shadowOffsetInner1" in2="SourceAlpha" operator="arithmetic" k2="-1" k3="1" result="shadowInnerInner1"></feComposite>
            <feColorMatrix values="0 0 0 0 0.545237532   0 0 0 0 0.794725275   0 0 0 0 1  0 0 0 1 0" type="matrix" in="shadowInnerInner1" result="shadowMatrixInner1"></feColorMatrix>
            <feGaussianBlur stdDeviation="4" in="SourceAlpha" result="shadowBlurInner2"></feGaussianBlur>
            <feOffset dx="-2" dy="-2" in="shadowBlurInner2" result="shadowOffsetInner2"></feOffset>
            <feComposite in="shadowOffsetInner2" in2="SourceAlpha" operator="arithmetic" k2="-1" k3="1" result="shadowInnerInner2"></feComposite>
            <feColorMatrix values="0 0 0 0 0.305882353   0 0 0 0 0.529411765   0 0 0 0 0.968627451  0 0 0 1 0" type="matrix" in="shadowInnerInner2" result="shadowMatrixInner2"></feColorMatrix>
            <feMerge>
                <feMergeNode in="shadowMatrixInner1"></feMergeNode>
                <feMergeNode in="shadowMatrixInner2"></feMergeNode>
            </feMerge>
        </filter>
        <linearGradient x1="50%" y1="0%" x2="50%" y2="100%" id="linearGradient-6">
            <stop stop-color="#FFFFFF" stop-opacity="0" offset="0%"></stop>
            <stop stop-color="#FFFFFF" stop-opacity="0.225147192" offset="100%"></stop>
        </linearGradient>
        <linearGradient x1="86.3719314%" y1="11.2512588%" x2="8.06615376%" y2="50%" id="linearGradient-7">
            <stop stop-color="#FFFFFF" offset="0%"></stop>
            <stop stop-color="#FFFFFF" stop-opacity="0" offset="100%"></stop>
        </linearGradient>
        <linearGradient x1="100%" y1="0%" x2="15.4518551%" y2="100%" id="linearGradient-8">
            <stop stop-color="#FFFFFF" stop-opacity="0.316236413" offset="0%"></stop>
            <stop stop-color="#FFFFFF" stop-opacity="0.364894701" offset="100%"></stop>
        </linearGradient>
        <linearGradient x1="100%" y1="0%" x2="15.4518551%" y2="100%" id="linearGradient-9">
            <stop stop-color="#FFFFFF" stop-opacity="0.341230752" offset="0%"></stop>
            <stop stop-color="#FFFFFF" stop-opacity="0.364894701" offset="100%"></stop>
        </linearGradient>
        <filter x="-56.2%" y="-51.9%" width="212.5%" height="203.8%" filterUnits="objectBoundingBox" id="filter-10">
            <feOffset dx="0" dy="4" in="SourceAlpha" result="shadowOffsetOuter1"></feOffset>
            <feGaussianBlur stdDeviation="5" in="shadowOffsetOuter1" result="shadowBlurOuter1"></feGaussianBlur>
            <feColorMatrix values="0 0 0 0 0.116773201   0 0 0 0 0.473256306   0 0 0 0 1  0 0 0 0.576115263 0" type="matrix" in="shadowBlurOuter1" result="shadowMatrixOuter1"></feColorMatrix>
            <feMerge>
                <feMergeNode in="shadowMatrixOuter1"></feMergeNode>
                <feMergeNode in="SourceGraphic"></feMergeNode>
            </feMerge>
        </filter>
        <linearGradient x1="77.0547797%" y1="0%" x2="32.5341878%" y2="100%" id="linearGradient-11">
            <stop stop-color="#FFFFFF" stop-opacity="0.757189764" offset="0%"></stop>
            <stop stop-color="#FFFFFF" offset="48.0902522%"></stop>
            <stop stop-color="#FFFFFF" stop-opacity="0.751188859" offset="100%"></stop>
        </linearGradient>
        <path d="M22.1681463,14.3152397 L30.191495,16.1284578 C25.5732309,28.0879861 23.2640988,37.2778829 23.2640988,43.6981481 C19.2494425,43.3434571 15.7560162,43.3434571 12.7838199,43.6981481 C13.7722808,37.7479692 14.7405588,33.3580711 15.6886541,30.5284539 C16.6367494,27.6988367 18.7965801,22.294432 22.1681463,14.3152397 Z" id="path-12"></path>
        <filter x="-20.1%" y="-11.9%" width="140.2%" height="123.8%" filterUnits="objectBoundingBox" id="filter-13">
            <feGaussianBlur stdDeviation="3" in="SourceAlpha" result="shadowBlurInner1"></feGaussianBlur>
            <feOffset dx="0" dy="-1" in="shadowBlurInner1" result="shadowOffsetInner1"></feOffset>
            <feComposite in="shadowOffsetInner1" in2="SourceAlpha" operator="arithmetic" k2="-1" k3="1" result="shadowInnerInner1"></feComposite>
            <feColorMatrix values="0 0 0 0 0.298039216   0 0 0 0 0.560784314   0 0 0 0 0.976470588  0 0 0 0.479647871 0" type="matrix" in="shadowInnerInner1"></feColorMatrix>
        </filter>
        <linearGradient x1="25.6035577%" y1="100%" x2="100%" y2="100%" id="linearGradient-14">
            <stop stop-color="#FFFFFF" stop-opacity="0.683820199" offset="0%"></stop>
            <stop stop-color="#FFFFFF" offset="100%"></stop>
        </linearGradient>
        <path d="M34.3250599,45.2674844 C37.885135,45.2674844 40.5993973,46.9306614 43.1890693,49.4145226 C44.9638672,51.1168045 43.2883354,51.932325 42.5356445,51.932325 C38.3847012,51.932325 32.1582863,51.932325 23.8563996,51.932325 C25.7003936,47.9945596 29.6947009,45.2674844 34.3250599,45.2674844 Z" id="path-15"></path>
        <filter x="-12.4%" y="-37.5%" width="124.9%" height="175.0%" filterUnits="objectBoundingBox" id="filter-16">
            <feGaussianBlur stdDeviation="2" in="SourceAlpha" result="shadowBlurInner1"></feGaussianBlur>
            <feOffset dx="0" dy="-1" in="shadowBlurInner1" result="shadowOffsetInner1"></feOffset>
            <feComposite in="shadowOffsetInner1" in2="SourceAlpha" operator="arithmetic" k2="-1" k3="1" result="shadowInnerInner1"></feComposite>
            <feColorMatrix values="0 0 0 0 0.298039216   0 0 0 0 0.560784314   0 0 0 0 0.976470588  0 0 0 0.33019135 0" type="matrix" in="shadowInnerInner1"></feColorMatrix>
        </filter>
        <path d="M16.4525139,40.7350394 C24.2317625,40.7350394 30.9424105,45.3166703 34.040413,51.932325 C19.7868831,51.932325 9.09673566,51.932325 1.9699707,51.932325 C0.934850341,51.932325 -1.22436523,51.5751634 0.956807095,48.4617574 C4.25590332,43.7526266 10.1231415,40.7350394 16.4525139,40.7350394 Z" id="path-17"></path>
        <filter x="-8.8%" y="-26.8%" width="117.6%" height="153.6%" filterUnits="objectBoundingBox" id="filter-18">
            <feGaussianBlur stdDeviation="2.5" in="SourceAlpha" result="shadowBlurInner1"></feGaussianBlur>
            <feOffset dx="0" dy="-1" in="shadowBlurInner1" result="shadowOffsetInner1"></feOffset>
            <feComposite in="shadowOffsetInner1" in2="SourceAlpha" operator="arithmetic" k2="-1" k3="1" result="shadowInnerInner1"></feComposite>
            <feColorMatrix values="0 0 0 0 0.298039216   0 0 0 0 0.560784314   0 0 0 0 0.976470588  0 0 0 0.322435462 0" type="matrix" in="shadowInnerInner1"></feColorMatrix>
        </filter>
        <path d="M4.96149209,19.0337417 C5.9384766,15.6438938 9.48704328,12.8674927 15.6071921,10.7045383 C12.6807428,9.97328838 9.74636199,8.28189137 6.80404957,5.63034729 L6.80403805,5.63036007 C5.98349131,4.89090228 5.91775573,3.62626874 6.65721352,2.80572201 C6.8237394,2.6209349 7.02327565,2.46883436 7.24558307,2.35722543 C12.5495738,-0.305630916 19.2036283,0.94719924 27.2077466,6.1157159 C34.1103151,2.5726257 40.4794393,2.10852618 46.3151191,4.72341732 L46.3151112,4.72343494 C47.3231026,5.17510256 47.7740921,6.35838997 47.3224245,7.36638133 C47.1780175,7.6886559 46.9508516,7.96694737 46.6640213,8.17296359 C43.8611715,10.1861143 39.5697873,11.8725876 33.7898689,13.2323834 C40.2841704,18.4459242 42.7440019,23.3236741 41.1693636,27.865633 L41.1693732,27.8656364 C40.8075581,28.9092723 39.6682149,29.4619973 38.6245789,29.1001823 C38.1601004,28.9391536 37.7711985,28.612698 37.5321263,28.1831458 C33.599185,21.1166446 28.7543619,17.5833939 22.997657,17.5833939 C17.571407,17.5833939 12.5148196,18.8390945 7.82789473,21.3504956 L7.82790609,21.3505168 C6.85428592,21.872213 5.64209252,21.5058562 5.12039635,20.532236 C4.87408676,20.0725585 4.81706713,19.5348537 4.96149209,19.0337417 Z" id="path-19"></path>
        <filter x="-7.1%" y="-10.6%" width="114.3%" height="121.2%" filterUnits="objectBoundingBox" id="filter-20">
            <feGaussianBlur stdDeviation="2.5" in="SourceAlpha" result="shadowBlurInner1"></feGaussianBlur>
            <feOffset dx="0" dy="-1" in="shadowBlurInner1" result="shadowOffsetInner1"></feOffset>
            <feComposite in="shadowOffsetInner1" in2="SourceAlpha" operator="arithmetic" k2="-1" k3="1" result="shadowInnerInner1"></feComposite>
            <feColorMatrix values="0 0 0 0 0.298039216   0 0 0 0 0.560784314   0 0 0 0 0.976470588  0 0 0 0.211390399 0" type="matrix" in="shadowInnerInner1"></feColorMatrix>
        </filter>
    </defs>
    <g id="Page-1" stroke="none" stroke-width="1" fill="none" fill-rule="evenodd">
        <g id="首页" transform="translate(-461.000000, -529.000000)">
            <g id="金刚区" transform="translate(28.000000, 372.000000)">
                <g id="分组-40" transform="translate(0.000000, 157.000000)">
                    <g id="分组-62" filter="url(#filter-1)" transform="translate(433.000000, 0.000000)">
                        <g id="路径-7-+-路径-7-Mask" transform="translate(12.000000, 8.000000)">
                            <mask id="mask-4" fill="white">
                                <use xlink:href="#path-3"></use>
                            </mask>
                            <g id="Mask" fill-rule="nonzero">
                                <use fill="url(#linearGradient-2)" xlink:href="#path-3"></use>
                                <use fill="black" fill-opacity="1" filter="url(#filter-5)" xlink:href="#path-3"></use>
                            </g>
                            <g id="分组-72" mask="url(#mask-4)" fill="url(#linearGradient-6)" fill-rule="nonzero">
                                <g transform="translate(14.000000, 11.000000)" id="矩形">
                                    <rect transform="translate(8.583154, 26.221825) rotate(-315.000000) translate(-8.583154, -26.221825) " x="8.08315353" y="15.7218254" width="1" height="21" rx="0.5"></rect>
                                    <rect transform="translate(52.252930, 13.887550) rotate(-315.000000) translate(-52.252930, -13.887550) " x="51.7529297" y="3.38754959" width="1" height="21" rx="0.5"></rect>
                                    <rect opacity="0.526204427" transform="translate(36.474755, 4.387550) rotate(-315.000000) translate(-36.474755, -4.387550) " x="35.9747551" y="-0.612450407" width="1" height="10" rx="0.5"></rect>
                                </g>
                            </g>
                            <g id="分组-71" opacity="0.6" mask="url(#mask-4)" fill="url(#linearGradient-7)" fill-rule="nonzero">
                                <g transform="translate(-15.000000, 63.000000)" id="路径-7">
                                    <path d="M112.208848,20 C91.497834,3.87855491 76.7615512,-0.31610655 68,7.41601562 C54.8576732,19.0141989 24.3250249,20.2633502 13.7185275,4.84668357 C6.64752919,-5.43109421 9.66096967,1.90223913 22.7588489,26.8466836 L111.754813,30.8466836 L112.208848,20 Z" opacity="0.2"></path>
                                    <path d="M102.208848,22.4970372 C81.497834,10.6043683 66.7615512,7.50999812 58,13.2139265 C44.8576732,21.7698191 14.3250249,22.6913087 3.71852746,11.3185496 C-3.35247081,3.73671017 -0.339030334,9.14645505 12.7588489,27.5477842 L101.754813,30.4985542 L102.208848,22.4970372 Z" opacity="0.16" transform="translate(51.104424, 19.249277) scale(-1, 1) translate(-51.104424, -19.249277) "></path>
                                    <path d="M105.929552,17.8451666 C85.2185371,5.95249777 70.4822543,2.85812754 61.7207031,8.56205595 C48.5783763,17.1179486 18.045728,18.0394381 7.43923059,6.666679 C0.368232313,-0.915160411 3.38167279,4.49458447 16.479552,22.8959136 L105.475517,25.8466836 L105.929552,17.8451666 Z" opacity="0.16" transform="translate(54.825127, 14.597406) scale(-1, 1) translate(-54.825127, -14.597406) "></path>
                                </g>
                            </g>
                            <g id="分组-81" opacity="0.8" mask="url(#mask-4)" fill-rule="nonzero">
                                <g transform="translate(16.000000, 8.000000)">
                                    <path d="M7.82356389,3.86810841 C8.63047901,3.14563078 9.44915128,2.86373931 10.1137822,3.35567666 C10.7784131,3.84761401 10.6116328,4.80153984 9.93281881,5.84243299 C8.32118593,8.31371036 7.11151902,10.6282786 5.90300197,13.2033143 C5.43371762,14.2032373 4.24268975,14.6334049 3.24276676,14.1641205 C2.24284378,13.6948362 1.81267617,12.5038083 2.28196052,11.5038853 C3.64186255,8.60628756 5.53036946,5.9213376 7.82356389,3.86810841 Z" id="路径" fill="url(#linearGradient-8)" transform="translate(6.313727, 8.731610) rotate(19.000000) translate(-6.313727, -8.731610) "></path>
                                    <circle id="椭圆形" fill="url(#linearGradient-9)" cx="16.8977051" cy="2.62463379" r="2"></circle>
                                </g>
                            </g>
                        </g>
                        <g id="分组-7" filter="url(#filter-10)" transform="translate(32.000000, 26.000000)" fill-rule="nonzero">
                            <g id="路径-41">
                                <use fill="url(#linearGradient-11)" xlink:href="#path-12"></use>
                                <use fill="black" fill-opacity="1" filter="url(#filter-13)" xlink:href="#path-12"></use>
                            </g>
                            <g id="路径">
                                <use fill="url(#linearGradient-14)" xlink:href="#path-15"></use>
                                <use fill="black" fill-opacity="1" filter="url(#filter-16)" xlink:href="#path-15"></use>
                            </g>
                            <g id="路径">
                                <use fill="#FFFFFF" xlink:href="#path-17"></use>
                                <use fill="black" fill-opacity="1" filter="url(#filter-18)" xlink:href="#path-17"></use>
                            </g>
                            <g id="路径-42">
                                <use fill="#FFFFFF" xlink:href="#path-19"></use>
                                <use fill="black" fill-opacity="1" filter="url(#filter-20)" xlink:href="#path-19"></use>
                            </g>
                        </g>
                    </g>
                </g>
            </g>
        </g>
    </g>
</svg>