<?xml version="1.0" encoding="UTF-8"?>
<svg width="112px" height="112px" viewBox="0 0 112 112" version="1.1" xmlns="http://www.w3.org/2000/svg" xmlns:xlink="http://www.w3.org/1999/xlink">
    <!-- Generator: Sketch 52.5 (67469) - http://www.bohemiancoding.com/sketch -->
    <title>分组 66</title>
    <desc>Created with Sketch.</desc>
    <defs>
        <filter x="-27.7%" y="-27.7%" width="155.4%" height="155.4%" filterUnits="objectBoundingBox" id="filter-1">
            <feOffset dx="0" dy="4" in="SourceAlpha" result="shadowOffsetOuter1"></feOffset>
            <feGaussianBlur stdDeviation="6" in="shadowOffsetOuter1" result="shadowBlurOuter1"></feGaussianBlur>
            <feColorMatrix values="0 0 0 0 0.921568627   0 0 0 0 0.631372549   0 0 0 0 0.219607843  0 0 0 0.421223958 0" type="matrix" in="shadowBlurOuter1" result="shadowMatrixOuter1"></feColorMatrix>
            <feMerge>
                <feMergeNode in="shadowMatrixOuter1"></feMergeNode>
                <feMergeNode in="SourceGraphic"></feMergeNode>
            </feMerge>
        </filter>
        <linearGradient x1="25.6408589%" y1="8.22433968%" x2="70.8775112%" y2="100%" id="linearGradient-2">
            <stop stop-color="#ECD944" offset="0%"></stop>
            <stop stop-color="#F3A03C" offset="100%"></stop>
        </linearGradient>
        <circle id="path-3" cx="56" cy="52" r="44"></circle>
        <filter x="-5.7%" y="-5.7%" width="111.4%" height="111.4%" filterUnits="objectBoundingBox" id="filter-5">
            <feGaussianBlur stdDeviation="4" in="SourceAlpha" result="shadowBlurInner1"></feGaussianBlur>
            <feOffset dx="-2" dy="-2" in="shadowBlurInner1" result="shadowOffsetInner1"></feOffset>
            <feComposite in="shadowOffsetInner1" in2="SourceAlpha" operator="arithmetic" k2="-1" k3="1" result="shadowInnerInner1"></feComposite>
            <feColorMatrix values="0 0 0 0 0.901201105   0 0 0 0 0.587705737   0 0 0 0 0.187999142  0 0 0 1 0" type="matrix" in="shadowInnerInner1" result="shadowMatrixInner1"></feColorMatrix>
            <feGaussianBlur stdDeviation="4" in="SourceAlpha" result="shadowBlurInner2"></feGaussianBlur>
            <feOffset dx="2" dy="2" in="shadowBlurInner2" result="shadowOffsetInner2"></feOffset>
            <feComposite in="shadowOffsetInner2" in2="SourceAlpha" operator="arithmetic" k2="-1" k3="1" result="shadowInnerInner2"></feComposite>
            <feColorMatrix values="0 0 0 0 0.974675808   0 0 0 0 0.901000576   0 0 0 0 0.352120095  0 0 0 1 0" type="matrix" in="shadowInnerInner2" result="shadowMatrixInner2"></feColorMatrix>
            <feMerge>
                <feMergeNode in="shadowMatrixInner1"></feMergeNode>
                <feMergeNode in="shadowMatrixInner2"></feMergeNode>
            </feMerge>
        </filter>
        <linearGradient x1="100%" y1="0%" x2="15.4518551%" y2="100%" id="linearGradient-6">
            <stop stop-color="#FFFFFF" stop-opacity="0.316236413" offset="0%"></stop>
            <stop stop-color="#FFFFFF" stop-opacity="0.364894701" offset="100%"></stop>
        </linearGradient>
        <linearGradient x1="100%" y1="0%" x2="15.4518551%" y2="100%" id="linearGradient-7">
            <stop stop-color="#FFFFFF" stop-opacity="0.341230752" offset="0%"></stop>
            <stop stop-color="#FFFFFF" stop-opacity="0.364894701" offset="100%"></stop>
        </linearGradient>
        <linearGradient x1="50%" y1="0%" x2="50%" y2="100%" id="linearGradient-8">
            <stop stop-color="#FFFFFF" stop-opacity="0" offset="0%"></stop>
            <stop stop-color="#FFFFFF" stop-opacity="0.546591938" offset="100%"></stop>
        </linearGradient>
        <linearGradient x1="50%" y1="0%" x2="50%" y2="100%" id="linearGradient-9">
            <stop stop-color="#FFFFFF" stop-opacity="0" offset="0%"></stop>
            <stop stop-color="#FFFFFF" stop-opacity="0.572661911" offset="100%"></stop>
        </linearGradient>
        <linearGradient x1="50%" y1="0%" x2="50%" y2="100%" id="linearGradient-10">
            <stop stop-color="#FFFFFF" stop-opacity="0" offset="0%"></stop>
            <stop stop-color="#FFFFFF" stop-opacity="0.53345788" offset="100%"></stop>
        </linearGradient>
        <linearGradient x1="86.3719314%" y1="11.2512588%" x2="8.06615376%" y2="50%" id="linearGradient-11">
            <stop stop-color="#FFFFFF" offset="0%"></stop>
            <stop stop-color="#FFFFFF" stop-opacity="0" offset="100%"></stop>
        </linearGradient>
        <filter x="-51.9%" y="-56.2%" width="203.8%" height="212.5%" filterUnits="objectBoundingBox" id="filter-12">
            <feOffset dx="0" dy="4" in="SourceAlpha" result="shadowOffsetOuter1"></feOffset>
            <feGaussianBlur stdDeviation="5" in="shadowOffsetOuter1" result="shadowBlurOuter1"></feGaussianBlur>
            <feColorMatrix values="0 0 0 0 0.912494685   0 0 0 0 0.560928137   0 0 0 0 0.126195307  0 0 0 1 0" type="matrix" in="shadowBlurOuter1" result="shadowMatrixOuter1"></feColorMatrix>
            <feMerge>
                <feMergeNode in="shadowMatrixOuter1"></feMergeNode>
                <feMergeNode in="SourceGraphic"></feMergeNode>
            </feMerge>
        </filter>
        <path d="M49.170767,26.2301607 L51.5288681,28.5025346 C51.8557333,28.8175169 52.0268142,29.2599229 51.9965736,29.7119959 C51.9398018,30.5606903 51.2032615,31.202838 50.3514648,31.146273 C48.9403782,31.0525478 47.4925679,30.9123518 46.0080353,30.7256655 C38.0093832,29.7463808 32.3440007,29.6724684 29.0118879,30.5039284 L28.995538,45.9403048 C29.0036947,46.8397842 28.643262,47.4601104 27.9142399,47.8012835 C27.1852179,48.1424565 26.3591176,48.0443139 25.435939,47.5068555 L12.0882533,37.8689512 L3.40683802,36.3437586 C1.16495399,35.9498936 -0.331994364,33.819816 0.0633102767,31.5860971 L1.21118323,25.0998955 L1.19420378,24.9232384 C0.000627782213,12.5050746 9.13675227,1.47410333 21.600309,0.284874394 C21.7220858,0.273254877 21.843955,0.262617653 21.9659046,0.252963767 L24.251006,0.0720685379 C36.5896171,-0.904691567 47.4339006,8.15951337 48.6138366,20.4357643 L49.170767,26.2301607 Z M24.8736127,42.1517102 L24.9045638,31.3852299 C21.8712844,32.7176488 19.5240469,34.5860494 17.8628513,36.9904317 C19.521868,38.2074221 21.8587885,39.9278483 24.8736127,42.1517102 Z M43.2526172,24.2818198 C44.6745831,24.0813071 45.5681049,22.0682213 45.2483541,19.7854667 C44.9286032,17.5027121 43.5166629,15.8147215 42.094697,16.0152342 C40.6727311,16.2157468 39.7792093,18.2288327 40.0989601,20.5115872 C40.4187109,22.7943418 41.8306513,24.4823324 43.2526172,24.2818198 Z" id="path-13"></path>
        <filter x="-8.7%" y="-9.4%" width="117.3%" height="118.7%" filterUnits="objectBoundingBox" id="filter-15">
            <feGaussianBlur stdDeviation="4" in="SourceAlpha" result="shadowBlurInner1"></feGaussianBlur>
            <feOffset dx="0" dy="-1" in="shadowBlurInner1" result="shadowOffsetInner1"></feOffset>
            <feComposite in="shadowOffsetInner1" in2="SourceAlpha" operator="arithmetic" k2="-1" k3="1" result="shadowInnerInner1"></feComposite>
            <feColorMatrix values="0 0 0 0 0.941176471   0 0 0 0 0.701960784   0 0 0 0 0.243137255  0 0 0 0.541610054 0" type="matrix" in="shadowInnerInner1"></feColorMatrix>
        </filter>
        <linearGradient x1="50%" y1="0%" x2="50%" y2="100%" id="linearGradient-16">
            <stop stop-color="#F2B03F" stop-opacity="0.548997962" offset="0%"></stop>
            <stop stop-color="#FAE8C7" stop-opacity="0" offset="100%"></stop>
        </linearGradient>
    </defs>
    <g id="Page-1" stroke="none" stroke-width="1" fill="none" fill-rule="evenodd">
        <g id="首页" transform="translate(-461.000000, -372.000000)">
            <g id="金刚区" transform="translate(28.000000, 372.000000)">
                <g id="分组-40">
                    <g id="分组-66" filter="url(#filter-1)" transform="translate(433.000000, 0.000000)">
                        <mask id="mask-4" fill="white">
                            <use xlink:href="#path-3"></use>
                        </mask>
                        <g id="椭圆形" fill-rule="nonzero">
                            <use fill="url(#linearGradient-2)" xlink:href="#path-3"></use>
                            <use fill="black" fill-opacity="1" filter="url(#filter-5)" xlink:href="#path-3"></use>
                        </g>
                        <g id="分组-81" opacity="0.8" mask="url(#mask-4)" fill-rule="nonzero">
                            <g transform="translate(28.000000, 16.000000)">
                                <path d="M7.82356389,3.86810841 C8.63047901,3.14563078 9.44915128,2.86373931 10.1137822,3.35567666 C10.7784131,3.84761401 10.6116328,4.80153984 9.93281881,5.84243299 C8.32118593,8.31371036 7.11151902,10.6282786 5.90300197,13.2033143 C5.43371762,14.2032373 4.24268975,14.6334049 3.24276676,14.1641205 C2.24284378,13.6948362 1.81267617,12.5038083 2.28196052,11.5038853 C3.64186255,8.60628756 5.53036946,5.9213376 7.82356389,3.86810841 Z" id="路径" fill="url(#linearGradient-6)" transform="translate(6.313727, 8.731610) rotate(19.000000) translate(-6.313727, -8.731610) "></path>
                                <circle id="椭圆形" fill="url(#linearGradient-7)" cx="16.8977051" cy="2.62463379" r="2"></circle>
                            </g>
                        </g>
                        <g id="分组-72" mask="url(#mask-4)" fill-rule="nonzero">
                            <g transform="translate(25.000000, 18.000000)" id="矩形">
                                <rect fill="url(#linearGradient-8)" transform="translate(8.583154, 26.221825) rotate(-315.000000) translate(-8.583154, -26.221825) " x="8.08315353" y="15.7218254" width="1" height="21" rx="0.5"></rect>
                                <rect fill="url(#linearGradient-9)" transform="translate(52.252930, 13.887550) rotate(-315.000000) translate(-52.252930, -13.887550) " x="51.7529297" y="3.38754959" width="1" height="21" rx="0.5"></rect>
                                <rect fill="url(#linearGradient-10)" opacity="0.526204427" transform="translate(36.474755, 4.387550) rotate(-315.000000) translate(-36.474755, -4.387550) " x="35.9747551" y="-0.612450407" width="1" height="10" rx="0.5"></rect>
                            </g>
                        </g>
                        <g id="分组-71" mask="url(#mask-4)" fill="url(#linearGradient-11)" fill-rule="nonzero">
                            <g transform="translate(4.000000, 72.000000)" id="路径-7">
                                <path d="M112.208848,20 C91.497834,3.87855491 76.7615512,-0.31610655 68,7.41601562 C54.8576732,19.0141989 24.3250249,20.2633502 13.7185275,4.84668357 C6.64752919,-5.43109421 9.66096967,1.90223913 22.7588489,26.8466836 L111.754813,30.8466836 L112.208848,20 Z" opacity="0.2"></path>
                                <path d="M102.208848,22.4970372 C81.497834,10.6043683 66.7615512,7.50999812 58,13.2139265 C44.8576732,21.7698191 14.3250249,22.6913087 3.71852746,11.3185496 C-3.35247081,3.73671017 -0.339030334,9.14645505 12.7588489,27.5477842 L101.754813,30.4985542 L102.208848,22.4970372 Z" opacity="0.16" transform="translate(51.104424, 19.249277) scale(-1, 1) translate(-51.104424, -19.249277) "></path>
                                <path d="M105.929552,17.8451666 C85.2185371,5.95249777 70.4822543,2.85812754 61.7207031,8.56205595 C48.5783763,17.1179486 18.045728,18.0394381 7.43923059,6.666679 C0.368232313,-0.915160411 3.38167279,4.49458447 16.479552,22.8959136 L105.475517,25.8466836 L105.929552,17.8451666 Z" opacity="0.16" transform="translate(54.825127, 14.597406) scale(-1, 1) translate(-54.825127, -14.597406) "></path>
                            </g>
                        </g>
                        <g id="路径-6" filter="url(#filter-12)" mask="url(#mask-4)">
                            <g transform="translate(30.000000, 28.000000)">
                                <mask id="mask-14" fill="white">
                                    <use xlink:href="#path-13"></use>
                                </mask>
                                <g id="合并形状" stroke="none" fill="none" fill-rule="nonzero">
                                    <use fill="#FFFFFF" xlink:href="#path-13"></use>
                                    <use fill="black" fill-opacity="1" filter="url(#filter-15)" xlink:href="#path-13"></use>
                                </g>
                                <path d="M24.8979797,31.397583 L24.8979687,36.8796387 L28.9949951,36.8796387 L29.0152435,30.5082242 C28.2586009,30.6064198 27.5172628,30.7238871 26.7912292,30.8606262 C26.0651957,30.9973653 25.4341125,31.1763509 24.8979797,31.397583 Z" id="路径-3" stroke="none" fill="url(#linearGradient-16)" fill-rule="nonzero" mask="url(#mask-14)"></path>
                            </g>
                        </g>
                    </g>
                </g>
            </g>
        </g>
    </g>
</svg>