<?xml version="1.0" encoding="UTF-8"?>
<svg width="112px" height="112px" viewBox="0 0 112 112" version="1.1" xmlns="http://www.w3.org/2000/svg" xmlns:xlink="http://www.w3.org/1999/xlink">
    <!-- Generator: Sketch 52.5 (67469) - http://www.bohemiancoding.com/sketch -->
    <title>分组 69</title>
    <desc>Created with Sketch.</desc>
    <defs>
        <filter x="-27.7%" y="-27.7%" width="155.4%" height="155.4%" filterUnits="objectBoundingBox" id="filter-1">
            <feOffset dx="0" dy="4" in="SourceAlpha" result="shadowOffsetOuter1"></feOffset>
            <feGaussianBlur stdDeviation="6" in="shadowOffsetOuter1" result="shadowBlurOuter1"></feGaussianBlur>
            <feColorMatrix values="0 0 0 0 0.231372549   0 0 0 0 0.729411765   0 0 0 0 0.184313725  0 0 0 0.447548687 0" type="matrix" in="shadowBlurOuter1" result="shadowMatrixOuter1"></feColorMatrix>
            <feMerge>
                <feMergeNode in="shadowMatrixOuter1"></feMergeNode>
                <feMergeNode in="SourceGraphic"></feMergeNode>
            </feMerge>
        </filter>
        <linearGradient x1="24.0350632%" y1="4.96651786%" x2="70.8775112%" y2="100%" id="linearGradient-2">
            <stop stop-color="#51D951" offset="0%"></stop>
            <stop stop-color="#3BB92E" offset="100%"></stop>
        </linearGradient>
        <circle id="path-3" cx="44" cy="44" r="44"></circle>
        <filter x="-5.7%" y="-5.7%" width="111.4%" height="111.4%" filterUnits="objectBoundingBox" id="filter-5">
            <feGaussianBlur stdDeviation="4" in="SourceAlpha" result="shadowBlurInner1"></feGaussianBlur>
            <feOffset dx="-2" dy="-2" in="shadowBlurInner1" result="shadowOffsetInner1"></feOffset>
            <feComposite in="shadowOffsetInner1" in2="SourceAlpha" operator="arithmetic" k2="-1" k3="1" result="shadowInnerInner1"></feComposite>
            <feColorMatrix values="0 0 0 0 0.211405213   0 0 0 0 0.678518282   0 0 0 0 0.171262684  0 0 0 1 0" type="matrix" in="shadowInnerInner1" result="shadowMatrixInner1"></feColorMatrix>
            <feGaussianBlur stdDeviation="4" in="SourceAlpha" result="shadowBlurInner2"></feGaussianBlur>
            <feOffset dx="2" dy="2" in="shadowBlurInner2" result="shadowOffsetInner2"></feOffset>
            <feComposite in="shadowOffsetInner2" in2="SourceAlpha" operator="arithmetic" k2="-1" k3="1" result="shadowInnerInner2"></feComposite>
            <feColorMatrix values="0 0 0 0 0.389733085   0 0 0 0 0.924452594   0 0 0 0 0.3857722  0 0 0 1 0" type="matrix" in="shadowInnerInner2" result="shadowMatrixInner2"></feColorMatrix>
            <feMerge>
                <feMergeNode in="shadowMatrixInner1"></feMergeNode>
                <feMergeNode in="shadowMatrixInner2"></feMergeNode>
            </feMerge>
        </filter>
        <linearGradient x1="100%" y1="0%" x2="15.4518551%" y2="100%" id="linearGradient-6">
            <stop stop-color="#FFFFFF" stop-opacity="0.316236413" offset="0%"></stop>
            <stop stop-color="#FFFFFF" stop-opacity="0.364894701" offset="100%"></stop>
        </linearGradient>
        <linearGradient x1="100%" y1="0%" x2="15.4518551%" y2="100%" id="linearGradient-7">
            <stop stop-color="#FFFFFF" stop-opacity="0.341230752" offset="0%"></stop>
            <stop stop-color="#FFFFFF" stop-opacity="0.364894701" offset="100%"></stop>
        </linearGradient>
        <linearGradient x1="50%" y1="0%" x2="50%" y2="100%" id="linearGradient-8">
            <stop stop-color="#FFFFFF" stop-opacity="0" offset="0%"></stop>
            <stop stop-color="#FFFFFF" stop-opacity="0.225147192" offset="100%"></stop>
        </linearGradient>
        <linearGradient x1="86.3719314%" y1="11.2512588%" x2="8.06615376%" y2="50%" id="linearGradient-9">
            <stop stop-color="#FFFFFF" offset="0%"></stop>
            <stop stop-color="#FFFFFF" stop-opacity="0" offset="100%"></stop>
        </linearGradient>
        <filter x="-54.0%" y="-61.4%" width="208.0%" height="222.7%" filterUnits="objectBoundingBox" id="filter-10">
            <feOffset dx="0" dy="4" in="SourceAlpha" result="shadowOffsetOuter1"></feOffset>
            <feGaussianBlur stdDeviation="5" in="shadowOffsetOuter1" result="shadowBlurOuter1"></feGaussianBlur>
            <feColorMatrix values="0 0 0 0 0.210037796   0 0 0 0 0.72571216   0 0 0 0 0.16572203  0 0 0 1 0" type="matrix" in="shadowBlurOuter1" result="shadowMatrixOuter1"></feColorMatrix>
            <feMerge>
                <feMergeNode in="shadowMatrixOuter1"></feMergeNode>
                <feMergeNode in="SourceGraphic"></feMergeNode>
            </feMerge>
        </filter>
        <path d="M0.0869641689,37.8657954 C1.38504303,16.5926097 12.0465902,-8.8817842e-14 25.0066279,-8.8817842e-14 C37.9586338,-8.8817842e-14 48.6149972,16.57205 49.9238674,37.8262494 C49.9676161,38.5366652 50.8821452,44.0000091 44.990619,44.0000074 C27.4793332,44.0000022 13.8721795,43.9999982 4.169158,43.9999953 C-0.831427251,43.9999938 0.0390573299,38.6509026 0.0869641689,37.8657954 Z M29.9707651,17.7113022 C29.6395947,17.4347492 27,15.4611235 27,18.9328962 C27,21.0990981 27,25.128641 27,31.5744337 C27,34.6190564 27,34.6190564 29.7155762,34.6190564 C30.6973537,34.6190564 32.0247462,34.6190564 33.6977539,34.6190564 C36.3879395,34.6190564 35.9703459,32.3245439 35.9128015,31.5744337 C35.4471155,25.504073 33.1548689,20.3702775 29.9707651,17.7113022 Z M19.9991338,17.6177018 C16.81503,20.276677 14.5227834,25.4104725 14.0570974,31.4808332 C13.9995529,32.2309435 13.5819594,34.5254559 16.272145,34.5254559 C17.9451526,34.5254559 19.2725452,34.5254559 20.2543227,34.5254559 C22.9698989,34.5254559 22.9698989,34.5254559 22.9698989,31.4808332 C22.9698989,25.0350405 22.9698989,21.0054976 22.9698989,18.8392957 C22.9698989,15.367523 20.3303041,17.3411487 19.9991338,17.6177018 Z" id="path-11"></path>
        <filter x="-6.0%" y="-6.8%" width="112.0%" height="113.6%" filterUnits="objectBoundingBox" id="filter-12">
            <feGaussianBlur stdDeviation="2.5" in="SourceAlpha" result="shadowBlurInner1"></feGaussianBlur>
            <feOffset dx="0" dy="-1" in="shadowBlurInner1" result="shadowOffsetInner1"></feOffset>
            <feComposite in="shadowOffsetInner1" in2="SourceAlpha" operator="arithmetic" k2="-1" k3="1" result="shadowInnerInner1"></feComposite>
            <feColorMatrix values="0 0 0 0 0.262745098   0 0 0 0 0.77254902   0 0 0 0 0.231372549  0 0 0 0.358922101 0" type="matrix" in="shadowInnerInner1"></feColorMatrix>
        </filter>
    </defs>
    <g id="Page-1" stroke="none" stroke-width="1" fill="none" fill-rule="evenodd">
        <g id="首页" transform="translate(-28.000000, -372.000000)">
            <g id="金刚区" transform="translate(28.000000, 372.000000)">
                <g id="分组-40">
                    <g id="分组-69" filter="url(#filter-1)">
                        <g id="分组-71" transform="translate(12.000000, 8.000000)">
                            <mask id="mask-4" fill="white">
                                <use xlink:href="#path-3"></use>
                            </mask>
                            <g id="Mask" fill-rule="nonzero">
                                <use fill="url(#linearGradient-2)" xlink:href="#path-3"></use>
                                <use fill="black" fill-opacity="1" filter="url(#filter-5)" xlink:href="#path-3"></use>
                            </g>
                            <g id="分组-81" opacity="0.8" mask="url(#mask-4)" fill-rule="nonzero">
                                <g transform="translate(16.000000, 8.000000)">
                                    <path d="M7.82356389,3.86810841 C8.63047901,3.14563078 9.44915128,2.86373931 10.1137822,3.35567666 C10.7784131,3.84761401 10.6116328,4.80153984 9.93281881,5.84243299 C8.32118593,8.31371036 7.11151902,10.6282786 5.90300197,13.2033143 C5.43371762,14.2032373 4.24268975,14.6334049 3.24276676,14.1641205 C2.24284378,13.6948362 1.81267617,12.5038083 2.28196052,11.5038853 C3.64186255,8.60628756 5.53036946,5.9213376 7.82356389,3.86810841 Z" id="路径" fill="url(#linearGradient-6)" transform="translate(6.313727, 8.731610) rotate(19.000000) translate(-6.313727, -8.731610) "></path>
                                    <circle id="椭圆形" fill="url(#linearGradient-7)" cx="16.8977051" cy="2.62463379" r="2"></circle>
                                </g>
                            </g>
                            <g id="分组-72" mask="url(#mask-4)" fill="url(#linearGradient-8)" fill-rule="nonzero">
                                <g transform="translate(13.000000, 10.000000)" id="矩形">
                                    <rect transform="translate(8.583154, 26.221825) rotate(-315.000000) translate(-8.583154, -26.221825) " x="8.08315353" y="15.7218254" width="1" height="21" rx="0.5"></rect>
                                    <rect transform="translate(52.252930, 13.887550) rotate(-315.000000) translate(-52.252930, -13.887550) " x="51.7529297" y="3.38754959" width="1" height="21" rx="0.5"></rect>
                                    <rect opacity="0.526204427" transform="translate(36.474755, 4.387550) rotate(-315.000000) translate(-36.474755, -4.387550) " x="35.9747551" y="-0.612450407" width="1" height="10" rx="0.5"></rect>
                                </g>
                            </g>
                            <g mask="url(#mask-4)" fill="url(#linearGradient-9)" fill-rule="nonzero" id="路径-7">
                                <g transform="translate(-16.000000, 64.000000)">
                                    <path d="M112.208848,20 C91.497834,3.87855491 76.7615512,-0.31610655 68,7.41601562 C54.8576732,19.0141989 24.3250249,20.2633502 13.7185275,4.84668357 C6.64752919,-5.43109421 9.66096967,1.90223913 22.7588489,26.8466836 L111.754813,30.8466836 L112.208848,20 Z" opacity="0.2"></path>
                                    <path d="M102.208848,22.4970372 C81.497834,10.6043683 66.7615512,7.50999812 58,13.2139265 C44.8576732,21.7698191 14.3250249,22.6913087 3.71852746,11.3185496 C-3.35247081,3.73671017 -0.339030334,9.14645505 12.7588489,27.5477842 L101.754813,30.4985542 L102.208848,22.4970372 Z" opacity="0.16" transform="translate(51.104424, 19.249277) scale(-1, 1) translate(-51.104424, -19.249277) "></path>
                                    <path d="M105.929552,17.8451666 C85.2185371,5.95249777 70.4822543,2.85812754 61.7207031,8.56205595 C48.5783763,17.1179486 18.045728,18.0394381 7.43923059,6.666679 C0.368232313,-0.915160411 3.38167279,4.49458447 16.479552,22.8959136 L105.475517,25.8466836 L105.929552,17.8451666 Z" opacity="0.16" transform="translate(54.825127, 14.597406) scale(-1, 1) translate(-54.825127, -14.597406) "></path>
                                </g>
                            </g>
                        </g>
                        <g id="合并形状-2" filter="url(#filter-10)" transform="translate(31.000000, 30.000000)" fill-rule="nonzero">
                            <g id="合并形状">
                                <use fill="#FFFFFF" xlink:href="#path-11"></use>
                                <use fill="black" fill-opacity="1" filter="url(#filter-12)" xlink:href="#path-11"></use>
                            </g>
                        </g>
                    </g>
                </g>
            </g>
        </g>
    </g>
</svg>