<?xml version="1.0" encoding="UTF-8"?>
<svg width="164px" height="100px" viewBox="0 0 164 100" version="1.1" xmlns="http://www.w3.org/2000/svg" xmlns:xlink="http://www.w3.org/1999/xlink">
    <!-- Generator: Sketch 52.5 (67469) - http://www.bohemiancoding.com/sketch -->
    <title>分组 3@2x</title>
    <desc>Created with Sketch.</desc>
    <defs>
        <filter x="-61.5%" y="-53.3%" width="223.1%" height="206.7%" filterUnits="objectBoundingBox" id="filter-1">
            <feOffset dx="0" dy="2" in="SourceAlpha" result="shadowOffsetOuter1"></feOffset>
            <feGaussianBlur stdDeviation="3" in="shadowOffsetOuter1" result="shadowBlurOuter1"></feGaussianBlur>
            <feColorMatrix values="0 0 0 0 0.337254902   0 0 0 0 0.57254902   0 0 0 0 0.97254902  0 0 0 0.460456295 0" type="matrix" in="shadowBlurOuter1" result="shadowMatrixOuter1"></feColorMatrix>
            <feMerge>
                <feMergeNode in="shadowMatrixOuter1"></feMergeNode>
                <feMergeNode in="SourceGraphic"></feMergeNode>
            </feMerge>
        </filter>
        <linearGradient x1="50%" y1="0%" x2="50%" y2="100%" id="linearGradient-2">
            <stop stop-color="#66B1FF" offset="0%"></stop>
            <stop stop-color="#498AFF" offset="100%"></stop>
        </linearGradient>
        <path d="M0.5,17.5166016 L4.5,17.5166016 L4.5,15.5166016 L0.5,15.5166016 L0.5,11.7583008 L4.5,11.7583008 L4.5,9.75830078 L0.5,9.75830078 L0.5,6 L4.5,6 L4.5,4 L0.5,4 L0.5,1.86666667 C0.5,0.835735134 1.3954305,0 2.5,0 L10.5,0 C11.6045695,0 12.5,0.835735134 12.5,1.86666667 L12.5,26.1333333 C12.5,27.1642649 11.6045695,28 10.5,28 L2.5,28 C1.3954305,28 0.5,27.1642649 0.5,26.1333333 L0.5,17.5166016 Z M6.5,24 C7.6045695,24 8.5,23.1045695 8.5,22 C8.5,20.8954305 7.6045695,20 6.5,20 C5.3954305,20 4.5,20.8954305 4.5,22 C4.5,23.1045695 5.3954305,24 6.5,24 Z" id="path-3"></path>
        <linearGradient x1="73.0812296%" y1="19.0923315%" x2="91.9075252%" y2="79.1427903%" id="linearGradient-5">
            <stop stop-color="#FFFFFF" stop-opacity="0" offset="0%"></stop>
            <stop stop-color="#FFFFFF" offset="100%"></stop>
        </linearGradient>
        <linearGradient x1="50%" y1="0%" x2="50%" y2="100%" id="linearGradient-6">
            <stop stop-color="#78B9FD" offset="0%"></stop>
            <stop stop-color="#528DF7" offset="100%"></stop>
        </linearGradient>
        <path d="M2,24 L8,24 C9.1045695,24 10,24.8954305 10,26 L10,28 C10,29.1045695 9.1045695,30 8,30 L2,30 C0.8954305,30 1.3527075e-16,29.1045695 0,28 L0,26 C-1.3527075e-16,24.8954305 0.8954305,24 2,24 Z M4.21884749e-15,7.03320312 L4.79296875,0 L10,7.03320312 L10,20.5166016 C10,21.6211711 9.1045695,22.5166016 8,22.5166016 L2,22.5166016 C0.8954305,22.5166016 1.3527075e-16,21.6211711 0,20.5166016 L0,7.03320313 Z" id="path-7"></path>
        <linearGradient x1="50%" y1="11.6879112%" x2="50%" y2="89.7152549%" id="linearGradient-9">
            <stop stop-color="#FFFFFF" stop-opacity="0" offset="0%"></stop>
            <stop stop-color="#FFFFFF" offset="100%"></stop>
        </linearGradient>
    </defs>
    <g id="Page-1" stroke="none" stroke-width="1" fill="none" fill-rule="evenodd">
        <g id="首页" transform="translate(-205.000000, -722.000000)">
            <g id="分组-5" transform="translate(30.000000, 722.000000)">
                <g id="分组-3" transform="translate(175.000000, 0.000000)">
                    <rect id="矩形" stroke="#EEEEEE" fill="#FFFFFF" fill-rule="nonzero" x="0.5" y="0.5" width="163" height="99" rx="10"></rect>
                    <path d="M16.8605968,34.8372258 C16.878742,35.5993264 16.860597,36.3795605 16.8061613,37.1779516 C16.7517255,37.9763427 16.6519281,38.7747218 16.5067661,39.5731129 C17.1962857,40.8977163 17.9992011,41.9319802 18.9155363,42.6759355 C19.8318715,43.4198908 20.8253092,43.8190804 21.895879,43.8735161 L21.895879,32.6870242 L11.3353952,32.6870242 L11.3353952,29.2848065 L36.0218871,29.2848065 L36.0218871,32.6870242 L25.5158387,32.6870242 L25.5158387,36.0348065 L35.5591855,36.0348065 L35.5591855,39.4098065 L25.5158387,39.4098065 L25.5158387,43.8735161 L36.239629,43.8735161 L36.239629,47.2757339 L22.113621,47.2757339 C20.6438556,47.2757339 19.337417,46.9309793 18.1942661,46.2414597 C17.0511153,45.5519401 16.0894313,44.6719086 15.3091855,43.6013387 C14.8555542,44.5811823 14.2839873,45.4294601 13.5944677,46.1461976 C12.9049482,46.862935 12.0521341,47.3755307 11.036,47.684 L11.036,43.574121 C11.6892291,42.9390371 12.2108972,41.8957008 12.6010202,40.4440806 C12.9911431,38.9924605 13.1952741,37.1235276 13.2134194,34.8372258 L16.8605968,34.8372258 Z M36.0218871,27.8967016 L32.3474919,27.8967016 L32.3474919,25.9642419 L15.0097903,25.9642419 L15.0097903,27.8967016 L11.3353952,27.8967016 L11.3353952,22.5620242 L21.895879,22.5620242 L21.895879,20.684 L25.5158387,20.684 L25.5158387,22.5620242 L36.0218871,22.5620242 L36.0218871,27.8967016 Z M53.3868065,26.8352097 L47.6710806,26.8352097 L47.6710806,29.856379 L53.958379,29.856379 L53.958379,33.2585968 L47.6710806,33.2585968 L47.6710806,35.4360161 L53.6589839,35.4360161 L53.6589839,43.8190806 C53.6589839,44.5811812 53.4004179,45.225328 52.8832782,45.7515403 C52.3661385,46.2777526 51.726528,46.5408548 50.9644274,46.5408548 L48.4876129,46.5408548 L48.4876129,43.1386371 L49.1952742,43.1386371 C49.4130172,43.1386371 49.6035395,43.0615209 49.7668468,42.9072863 C49.930154,42.7530516 50.0118065,42.5579931 50.0118065,42.3221048 L50.0118065,38.8382339 L47.6710806,38.8382339 L47.6710806,47.6295645 L43.9966855,47.6295645 L43.9966855,38.8382339 L41.6559597,38.8382339 L41.6559597,46.5408548 L37.9815645,46.5408548 L37.9815645,35.4360161 L43.9966855,35.4360161 L43.9966855,33.2585968 L37.6821694,33.2585968 L37.6821694,29.856379 L43.9966855,29.856379 L43.9966855,26.8352097 L41.1116048,26.8352097 C40.7668451,27.3795672 40.322293,27.8468005 39.7779355,28.2369234 C39.2335779,28.6270463 38.5531412,28.9309747 37.7366048,29.1487177 L37.7366048,25.2837984 C38.0087836,25.0842006 38.2265234,24.8619246 38.3898306,24.6169637 C38.5531379,24.3720028 38.6756165,24.0952919 38.7572702,23.7868226 C38.8389238,23.4783533 38.897895,23.1199899 38.9341855,22.7117218 C38.970476,22.3034536 38.9976935,21.8362204 39.0158387,21.3100081 L42.363621,21.3100081 C42.3273305,22.0721086 42.2728955,22.7797629 42.2003145,23.4329919 L43.9966855,23.4329919 L43.9966855,20.792871 L47.6710806,20.792871 L47.6710806,23.4329919 L53.3868065,23.4329919 L53.3868065,26.8352097 Z M64.0289435,20.8745242 L64.0289435,44.0640403 C64.0289435,44.5539621 63.9382186,45.0121229 63.7567661,45.4385363 C63.5753136,45.8649497 63.3212839,46.2369218 62.9946694,46.5544637 C62.6680548,46.8720056 62.2915465,47.1214991 61.8651331,47.3029516 C61.4387196,47.4844041 60.9805589,47.575129 60.4906371,47.575129 L55.8908387,47.575129 L55.8908387,44.200129 L58.9936613,44.200129 C59.3747116,44.200129 59.696785,44.0640417 59.9598911,43.7918629 C60.2229973,43.5196841 60.3545484,43.202147 60.3545484,42.8392419 L60.3545484,20.8745242 L64.0289435,20.8745242 Z M58.9392258,22.9430726 L58.9392258,41.7505323 L55.2920484,41.7505323 L55.2920484,22.9430726 L58.9392258,22.9430726 Z M72.1670484,20.7112177 L72.1670484,23.5962984 L75.8686613,23.5962984 L75.8686613,26.9985161 L69.7446694,26.9985161 L69.7446694,29.856379 L75.5420484,29.856379 L75.5420484,44.2273468 C75.5420484,45.3160619 75.2426562,46.1552672 74.6438629,46.7449879 C74.0450696,47.3347086 73.255763,47.6295645 72.2759194,47.6295645 L69.9624113,47.6295645 L69.9624113,44.2273468 L71.051121,44.2273468 C71.268864,44.2273468 71.4593863,44.1502306 71.6226935,43.995996 C71.7860008,43.8417613 71.8676532,43.6467028 71.8676532,43.4108145 L71.8676532,33.231379 L69.7446694,33.231379 L69.7446694,38.0489194 C69.7446694,39.391668 69.6630169,40.5847004 69.4997097,41.6280524 C69.3364024,42.6714044 69.0551552,43.5877259 68.6559597,44.3770444 C68.2567641,45.1663628 67.735096,45.8286546 67.0909395,46.3639395 C66.4467831,46.8992245 65.6347952,47.3210952 64.6549516,47.6295645 L64.6549516,43.2202903 C65.1630187,42.7485138 65.5304545,42.1179757 65.7572702,41.3286573 C65.9840858,40.5393388 66.0974919,39.4733212 66.0974919,38.1305726 L66.0974919,26.9985161 L64.7910403,26.9985161 L64.7910403,23.5962984 L68.4926532,23.5962984 L68.4926532,20.7112177 L72.1670484,20.7112177 Z M81.1489032,32.0882339 L81.1489032,43.1658548 C81.1489032,43.4743241 81.2487006,43.7102089 81.4482984,43.8735161 C81.6478962,44.0368234 81.9019259,44.1184758 82.2103952,44.1184758 L84.9049516,44.1184758 L84.9049516,47.5206935 L79.9241048,47.5206935 C79.2345853,47.5206935 78.6539459,47.2848088 78.1821694,46.8130323 C77.7103928,46.3412557 77.4745081,45.7606164 77.4745081,45.0710968 L77.4745081,28.6860161 L87.6539435,28.6860161 C88.3071726,28.6860161 88.8787395,28.6497262 89.3686613,28.5771452 C89.8585831,28.5045642 90.43015,28.3412593 91.083379,28.0872258 L91.083379,31.5166613 C90.5571667,31.7344043 89.9992086,31.8841004 89.4094879,31.965754 C88.8197672,32.0474077 88.2345916,32.0882339 87.6539435,32.0882339 L81.1489032,32.0882339 Z M91.0561613,37.9944839 L88.4160403,39.3825887 C89.1237052,40.8523541 90.0581716,42.0045603 91.2194677,42.8392419 L91.2194677,47.575129 C89.9674454,46.9037547 88.8606016,46.0736219 87.8989032,45.0847056 C86.9372049,44.0957894 86.1206808,42.9889456 85.4493065,41.7641411 C84.7779321,40.5393366 84.2517277,39.2192893 83.8706774,37.8039597 C83.4896271,36.38863 83.2537424,34.9007417 83.1630161,33.34025 L86.8101935,33.34025 C86.8646293,33.8664623 86.932673,34.3881305 87.0143266,34.9052702 C87.0959802,35.4224098 87.2003139,35.9168605 87.3273306,36.3886371 L91.0561613,34.4289597 L91.0561613,37.9944839 Z M82.5097903,20.7112177 C82.4916451,21.0559775 82.4689638,21.3825872 82.441746,21.6910565 C82.4145281,21.9995257 82.3737019,22.2989179 82.3192661,22.5892419 L91.4644274,22.5892419 L91.4644274,25.855371 L80.9039435,25.855371 C79.8515189,27.1799744 78.3999205,28.0327884 76.5491048,28.4138387 L76.5491048,24.6305726 C77.2386244,24.3583938 77.7875101,23.9002331 78.1957782,23.2560766 C78.6040464,22.6119202 78.8444674,21.7636424 78.9170484,20.7112177 L82.5097903,20.7112177 Z M118.600516,33.2041613 L114.57229,33.2041613 L114.57229,43.9823871 C114.57229,44.4723089 114.481565,44.9304696 114.300113,45.3568831 C114.11866,45.7832965 113.864631,46.1552686 113.538016,46.4728105 C113.211402,46.7903524 112.834893,47.0443821 112.40848,47.2349073 C111.982066,47.4254324 111.523906,47.5206935 111.033984,47.5206935 L105.372694,47.5206935 L105.372694,44.1184758 L109.537008,44.1184758 C109.918058,44.1184758 110.240132,43.9869247 110.503238,43.7238185 C110.766344,43.4607124 110.897895,43.138639 110.897895,42.7575887 L110.897895,33.2041613 L102.351524,33.2041613 L102.351524,29.8291613 L118.600516,29.8291613 L118.600516,33.2041613 Z M101.91604,28.4410565 C101.589426,29.3846096 101.163019,30.2918585 100.636806,31.1628306 C100.110594,32.0338027 99.5118098,32.8503268 98.8404355,33.6124274 L98.8404355,47.6567823 L95.1660403,47.6567823 L95.1660403,36.7969032 C94.0954705,37.4864228 93.0249166,37.9672648 91.9543468,38.2394435 L91.9543468,34.3200887 C92.5168496,34.0479099 93.0974889,33.7122278 93.6962823,33.3130323 C94.2950756,32.9138367 94.8621062,32.4602122 95.3973911,31.9521452 C95.9326761,31.4440781 96.4271268,30.8951925 96.8807581,30.3054718 C97.3343894,29.7157511 97.7154339,29.0942855 98.0239032,28.4410565 L101.91604,28.4410565 Z M117.974508,25.4198871 L102.977532,25.4198871 L102.977532,22.0448871 L117.974508,22.0448871 L117.974508,25.4198871 Z M100.772895,20.9833952 C100.446281,22.0902555 99.9790474,23.1653456 99.3711815,24.2086976 C98.7633155,25.2520496 98.0647338,26.204661 97.2754153,27.0665605 C96.4860969,27.92846 95.6332828,28.6678679 94.7169476,29.2848065 C93.8006124,29.901745 92.8797546,30.346297 91.9543468,30.6184758 L91.9543468,26.6446855 C93.0974977,26.1003279 94.104544,25.3337025 94.9755161,24.3447863 C95.8464882,23.3558701 96.5359975,22.2354176 97.0440645,20.9833952 L100.772895,20.9833952 Z" id="定制旅行" fill="#333333"></path>
                    <text id="专属定制" font-family="PingFangSC-Light, PingFang SC" font-size="22" font-weight="300" line-spacing="22" fill="#888888">
                        <tspan x="10" y="81">专属定制</tspan>
                    </text>
                    <g id="分组-74" filter="url(#filter-1)" transform="translate(128.000000, 60.000000)">
                        <g id="分组-77">
                            <g id="路径-10" transform="translate(13.000000, 2.000000)">
                                <mask id="mask-4" fill="white">
                                    <use xlink:href="#path-3"></use>
                                </mask>
                                <use id="Mask" fill="url(#linearGradient-2)" fill-rule="nonzero" xlink:href="#path-3"></use>
                                <path d="M-12,-16 C6.79668071,-5.6190333 13.4633474,9.27731515 8,28.6890453 C2.53665263,48.1007755 -7.79668071,40.6526013 -23,6.34452267 L-12,-16 Z" fill="url(#linearGradient-5)" fill-rule="nonzero" opacity="0.3" mask="url(#mask-4)"></path>
                            </g>
                            <g id="分组-73">
                                <g id="路径-9">
                                    <mask id="mask-8" fill="white">
                                        <use xlink:href="#path-7"></use>
                                    </mask>
                                    <use id="Mask" fill="url(#linearGradient-6)" fill-rule="nonzero" xlink:href="#path-7"></use>
                                    <polyline fill="url(#linearGradient-9)" fill-rule="nonzero" opacity="0.3" mask="url(#mask-8)" points="5 -5 5 33 -7 33 -7 -5"></polyline>
                                </g>
                            </g>
                        </g>
                    </g>
                </g>
            </g>
        </g>
    </g>
</svg>