<?xml version="1.0" encoding="UTF-8"?>
<svg width="112px" height="112px" viewBox="0 0 112 112" version="1.1" xmlns="http://www.w3.org/2000/svg" xmlns:xlink="http://www.w3.org/1999/xlink">
    <!-- Generator: Sketch 52.5 (67469) - http://www.bohemiancoding.com/sketch -->
    <title>分组 63@3x</title>
    <desc>Created with Sketch.</desc>
    <defs>
        <filter x="-27.7%" y="-27.7%" width="155.4%" height="155.4%" filterUnits="objectBoundingBox" id="filter-1">
            <feOffset dx="0" dy="4" in="SourceAlpha" result="shadowOffsetOuter1"></feOffset>
            <feGaussianBlur stdDeviation="6" in="shadowOffsetOuter1" result="shadowBlurOuter1"></feGaussianBlur>
            <feColorMatrix values="0 0 0 0 1   0 0 0 0 0.266666667   0 0 0 0 0.356862745  0 0 0 0.354647871 0" type="matrix" in="shadowBlurOuter1" result="shadowMatrixOuter1"></feColorMatrix>
            <feMerge>
                <feMergeNode in="shadowMatrixOuter1"></feMergeNode>
                <feMergeNode in="SourceGraphic"></feMergeNode>
            </feMerge>
        </filter>
        <linearGradient x1="25.6408589%" y1="8.22433968%" x2="70.8775112%" y2="100%" id="linearGradient-2">
            <stop stop-color="#FF8974" offset="0%"></stop>
            <stop stop-color="#FF3757" offset="100%"></stop>
        </linearGradient>
        <circle id="path-3" cx="44" cy="44" r="44"></circle>
        <filter x="-5.7%" y="-5.7%" width="111.4%" height="111.4%" filterUnits="objectBoundingBox" id="filter-5">
            <feGaussianBlur stdDeviation="4" in="SourceAlpha" result="shadowBlurInner1"></feGaussianBlur>
            <feOffset dx="-2" dy="-2" in="shadowBlurInner1" result="shadowOffsetInner1"></feOffset>
            <feComposite in="shadowOffsetInner1" in2="SourceAlpha" operator="arithmetic" k2="-1" k3="1" result="shadowInnerInner1"></feComposite>
            <feColorMatrix values="0 0 0 0 0.947810374   0 0 0 0 0.211970849   0 0 0 0 0.216780258  0 0 0 1 0" type="matrix" in="shadowInnerInner1" result="shadowMatrixInner1"></feColorMatrix>
            <feGaussianBlur stdDeviation="4" in="SourceAlpha" result="shadowBlurInner2"></feGaussianBlur>
            <feOffset dx="2" dy="2" in="shadowBlurInner2" result="shadowOffsetInner2"></feOffset>
            <feComposite in="shadowOffsetInner2" in2="SourceAlpha" operator="arithmetic" k2="-1" k3="1" result="shadowInnerInner2"></feComposite>
            <feColorMatrix values="0 0 0 0 1   0 0 0 0 0.531210543   0 0 0 0 0.540283887  0 0 0 1 0" type="matrix" in="shadowInnerInner2" result="shadowMatrixInner2"></feColorMatrix>
            <feMerge>
                <feMergeNode in="shadowMatrixInner1"></feMergeNode>
                <feMergeNode in="shadowMatrixInner2"></feMergeNode>
            </feMerge>
        </filter>
        <linearGradient x1="100%" y1="0%" x2="15.4518551%" y2="100%" id="linearGradient-6">
            <stop stop-color="#FFFFFF" stop-opacity="0.316236413" offset="0%"></stop>
            <stop stop-color="#FFFFFF" stop-opacity="0.364894701" offset="100%"></stop>
        </linearGradient>
        <linearGradient x1="100%" y1="0%" x2="15.4518551%" y2="100%" id="linearGradient-7">
            <stop stop-color="#FFFFFF" stop-opacity="0.341230752" offset="0%"></stop>
            <stop stop-color="#FFFFFF" stop-opacity="0.364894701" offset="100%"></stop>
        </linearGradient>
        <linearGradient x1="50%" y1="0%" x2="50%" y2="100%" id="linearGradient-8">
            <stop stop-color="#FFFFFF" stop-opacity="0" offset="0%"></stop>
            <stop stop-color="#FFFFFF" stop-opacity="0.225147192" offset="100%"></stop>
        </linearGradient>
        <linearGradient x1="86.3719314%" y1="11.2512588%" x2="8.06615376%" y2="50%" id="linearGradient-9">
            <stop stop-color="#FFFFFF" offset="0%"></stop>
            <stop stop-color="#FFFFFF" stop-opacity="0" offset="100%"></stop>
        </linearGradient>
        <filter x="-51.9%" y="-56.2%" width="203.8%" height="212.5%" filterUnits="objectBoundingBox" id="filter-10">
            <feOffset dx="0" dy="4" in="SourceAlpha" result="shadowOffsetOuter1"></feOffset>
            <feGaussianBlur stdDeviation="5" in="shadowOffsetOuter1" result="shadowBlurOuter1"></feGaussianBlur>
            <feColorMatrix values="0 0 0 0 0.93061756   0 0 0 0 0.225067949   0 0 0 0 0.217140425  0 0 0 0.679942255 0" type="matrix" in="shadowBlurOuter1" result="shadowMatrixOuter1"></feColorMatrix>
            <feMerge>
                <feMergeNode in="shadowMatrixOuter1"></feMergeNode>
                <feMergeNode in="SourceGraphic"></feMergeNode>
            </feMerge>
        </filter>
        <linearGradient x1="50%" y1="0%" x2="50%" y2="100%" id="linearGradient-11">
            <stop stop-color="#FFFFFF" offset="0%"></stop>
            <stop stop-color="#FFFFFF" stop-opacity="0.679829031" offset="100%"></stop>
        </linearGradient>
        <linearGradient x1="50%" y1="26.8229167%" x2="50%" y2="100%" id="linearGradient-12">
            <stop stop-color="#FFFFFF" offset="0%"></stop>
            <stop stop-color="#FFFFFF" stop-opacity="0.836730072" offset="100%"></stop>
        </linearGradient>
        <path d="M44.8627451,26.5531915 L14.8189373,26.5531915 L18.6933264,13.3667316 C19.0978993,12.0964143 20.2762575,11.2340426 21.607466,11.2340426 L40.7843137,11.2340426 C43.0367692,11.2340426 44.8627451,13.063007 44.8627451,15.3191489 L44.8627451,26.5531915 Z M25.4901961,17.3617021 C24.3639684,17.3617021 23.4509804,18.2746901 23.4509804,19.4009178 L23.4509804,19.4075928 C23.4509804,20.5338205 24.3639684,21.4468085 25.4901961,21.4468085 C26.6164238,21.4468085 27.5294118,20.5338205 27.5294118,19.4075928 L27.5294118,19.4009178 C27.5294118,18.2746901 26.6164238,17.3617021 25.4901961,17.3617021 Z M31.8408412,17.3617021 C30.7362717,17.3617021 29.8408412,18.2571326 29.8408412,19.3617021 L29.8408412,19.4468085 C29.8408412,20.551378 30.7362717,21.4468085 31.8408412,21.4468085 L35.9977039,21.4468085 C37.1022734,21.4468085 37.9977039,20.551378 37.9977039,19.4468085 L37.9977039,19.3617021 C37.9977039,18.2571326 37.1022734,17.3617021 35.9977039,17.3617021 L31.8408412,17.3617021 Z" id="path-13"></path>
        <filter x="-13.3%" y="-26.1%" width="126.6%" height="152.2%" filterUnits="objectBoundingBox" id="filter-14">
            <feGaussianBlur stdDeviation="3" in="SourceAlpha" result="shadowBlurInner1"></feGaussianBlur>
            <feOffset dx="0" dy="-2" in="shadowBlurInner1" result="shadowOffsetInner1"></feOffset>
            <feComposite in="shadowOffsetInner1" in2="SourceAlpha" operator="arithmetic" k2="-1" k3="1" result="shadowInnerInner1"></feComposite>
            <feColorMatrix values="0 0 0 0 0.941176471   0 0 0 0 0.325490196   0 0 0 0 0.333333333  0 0 0 0.369593524 0" type="matrix" in="shadowInnerInner1"></feColorMatrix>
        </filter>
        <path d="M44.9726327,22.4680851 L48.9625207,22.4680851 C50.0887484,22.4680851 51.0017364,23.3825673 51.0017364,24.5106383 C51.0017364,24.7758592 50.9501678,25.0385416 50.8499106,25.284016 L44.3786087,44.1924736 C43.4380412,46.4954016 41.2005541,48 38.7164391,48 L4.07843137,48 C1.82597592,48 5.29772304e-14,46.1710356 5.29772304e-14,43.9148936 L-8.8817842e-16,30.5531915 C-1.15871992e-15,28.3440525 1.790861,26.5531915 4,26.5531915 L32.3545877,26.5531915 C33.8650649,26.5531915 35.344681,26.1255678 36.6222794,25.3197865 L37.905216,24.5106383 C40.0209546,23.1762419 42.4712403,22.4680851 44.9726327,22.4680851 Z" id="path-15"></path>
        <filter x="-7.8%" y="-15.7%" width="115.7%" height="131.3%" filterUnits="objectBoundingBox" id="filter-16">
            <feGaussianBlur stdDeviation="3" in="SourceAlpha" result="shadowBlurInner1"></feGaussianBlur>
            <feOffset dx="0" dy="-2" in="shadowBlurInner1" result="shadowOffsetInner1"></feOffset>
            <feComposite in="shadowOffsetInner1" in2="SourceAlpha" operator="arithmetic" k2="-1" k3="1" result="shadowInnerInner1"></feComposite>
            <feColorMatrix values="0 0 0 0 0.941176471   0 0 0 0 0.325490196   0 0 0 0 0.333333333  0 0 0 0.369593524 0" type="matrix" in="shadowInnerInner1"></feColorMatrix>
        </filter>
    </defs>
    <g id="Page-1" stroke="none" stroke-width="1" fill="none" fill-rule="evenodd">
        <g id="首页" transform="translate(-172.000000, -529.000000)">
            <g id="金刚区" transform="translate(28.000000, 372.000000)">
                <g id="分组-40" transform="translate(0.000000, 157.000000)">
                    <g id="分组-63" filter="url(#filter-1)" transform="translate(144.000000, 0.000000)">
                        <g id="路径-7" transform="translate(12.000000, 8.000000)">
                            <mask id="mask-4" fill="white">
                                <use xlink:href="#path-3"></use>
                            </mask>
                            <g id="Mask" fill-rule="nonzero">
                                <use fill="url(#linearGradient-2)" xlink:href="#path-3"></use>
                                <use fill="black" fill-opacity="1" filter="url(#filter-5)" xlink:href="#path-3"></use>
                            </g>
                            <g id="分组-81" opacity="0.8" mask="url(#mask-4)" fill-rule="nonzero">
                                <g transform="translate(16.000000, 8.000000)">
                                    <path d="M7.82356389,3.86810841 C8.63047901,3.14563078 9.44915128,2.86373931 10.1137822,3.35567666 C10.7784131,3.84761401 10.6116328,4.80153984 9.93281881,5.84243299 C8.32118593,8.31371036 7.11151902,10.6282786 5.90300197,13.2033143 C5.43371762,14.2032373 4.24268975,14.6334049 3.24276676,14.1641205 C2.24284378,13.6948362 1.81267617,12.5038083 2.28196052,11.5038853 C3.64186255,8.60628756 5.53036946,5.9213376 7.82356389,3.86810841 Z" id="路径" fill="url(#linearGradient-6)" transform="translate(6.313727, 8.731610) rotate(19.000000) translate(-6.313727, -8.731610) "></path>
                                    <circle id="椭圆形" fill="url(#linearGradient-7)" cx="16.8977051" cy="2.62463379" r="2"></circle>
                                </g>
                            </g>
                            <g id="分组-72" mask="url(#mask-4)" fill="url(#linearGradient-8)" fill-rule="nonzero">
                                <g transform="translate(14.000000, 11.000000)" id="矩形">
                                    <rect transform="translate(8.583154, 26.221825) rotate(-315.000000) translate(-8.583154, -26.221825) " x="8.08315353" y="15.7218254" width="1" height="21" rx="0.5"></rect>
                                    <rect transform="translate(52.252930, 13.887550) rotate(-315.000000) translate(-52.252930, -13.887550) " x="51.7529297" y="3.38754959" width="1" height="21" rx="0.5"></rect>
                                    <rect opacity="0.526204427" transform="translate(36.474755, 4.387550) rotate(-315.000000) translate(-36.474755, -4.387550) " x="35.9747551" y="-0.612450407" width="1" height="10" rx="0.5"></rect>
                                </g>
                            </g>
                            <g id="分组-71" mask="url(#mask-4)" fill="url(#linearGradient-9)" fill-rule="nonzero">
                                <g transform="translate(-9.000000, 63.000000)" id="路径-7">
                                    <path d="M112.208848,20 C91.497834,3.87855491 76.7615512,-0.31610655 68,7.41601562 C54.8576732,19.0141989 24.3250249,20.2633502 13.7185275,4.84668357 C6.64752919,-5.43109421 9.66096967,1.90223913 22.7588489,26.8466836 L111.754813,30.8466836 L112.208848,20 Z" opacity="0.2"></path>
                                    <path d="M102.208848,22.4970372 C81.497834,10.6043683 66.7615512,7.50999812 58,13.2139265 C44.8576732,21.7698191 14.3250249,22.6913087 3.71852746,11.3185496 C-3.35247081,3.73671017 -0.339030334,9.14645505 12.7588489,27.5477842 L101.754813,30.4985542 L102.208848,22.4970372 Z" opacity="0.16" transform="translate(51.104424, 19.249277) scale(-1, 1) translate(-51.104424, -19.249277) "></path>
                                    <path d="M105.929552,17.8451666 C85.2185371,5.95249777 70.4822543,2.85812754 61.7207031,8.56205595 C48.5783763,17.1179486 18.045728,18.0394381 7.43923059,6.666679 C0.368232313,-0.915160411 3.38167279,4.49458447 16.479552,22.8959136 L105.475517,25.8466836 L105.929552,17.8451666 Z" opacity="0.16" transform="translate(54.825127, 14.597406) scale(-1, 1) translate(-54.825127, -14.597406) "></path>
                                </g>
                            </g>
                        </g>
                        <g id="邮轮" filter="url(#filter-10)" transform="translate(56.000000, 52.000000) scale(-1, 1) translate(-56.000000, -52.000000) translate(30.000000, 28.000000)" fill-rule="nonzero">
                            <path d="M31.6078431,6.12765957 L31.6078431,12.2553191 L27.5294118,12.2553191 L27.5294118,4.12765957 L27.5294118,2 C27.5294118,0.8954305 28.4248423,2.02906125e-16 29.5294118,0 L35.7254902,0 C36.8300597,-2.02906125e-16 37.7254902,0.8954305 37.7254902,2 L37.7254902,4.12765957 C37.7254902,5.23222907 36.8300597,6.12765957 35.7254902,6.12765957 L31.6078431,6.12765957 Z" id="合并形状" fill="url(#linearGradient-11)"></path>
                            <g id="合并形状">
                                <use fill="url(#linearGradient-12)" xlink:href="#path-13"></use>
                                <use fill="black" fill-opacity="1" filter="url(#filter-14)" xlink:href="#path-13"></use>
                            </g>
                            <g id="合并形状" transform="translate(25.500868, 35.234043) scale(-1, 1) translate(-25.500868, -35.234043) ">
                                <use fill="#FFFFFF" xlink:href="#path-15"></use>
                                <use fill="black" fill-opacity="1" filter="url(#filter-16)" xlink:href="#path-15"></use>
                            </g>
                        </g>
                    </g>
                </g>
            </g>
        </g>
    </g>
</svg>