<?xml version="1.0" encoding="UTF-8"?>
<svg width="164px" height="100px" viewBox="0 0 164 100" version="1.1" xmlns="http://www.w3.org/2000/svg" xmlns:xlink="http://www.w3.org/1999/xlink">
    <!-- Generator: Sketch 52.5 (67469) - http://www.bohemiancoding.com/sketch -->
    <title>分组 4@2x</title>
    <desc>Created with Sketch.</desc>
    <defs>
        <filter x="-53.3%" y="-69.6%" width="206.7%" height="239.1%" filterUnits="objectBoundingBox" id="filter-1">
            <feOffset dx="0" dy="2" in="SourceAlpha" result="shadowOffsetOuter1"></feOffset>
            <feGaussianBlur stdDeviation="3" in="shadowOffsetOuter1" result="shadowBlurOuter1"></feGaussianBlur>
            <feColorMatrix values="0 0 0 0 0.925490196   0 0 0 0 0.68627451   0 0 0 0 0.243137255  0 0 0 0.534703351 0" type="matrix" in="shadowBlurOuter1" result="shadowMatrixOuter1"></feColorMatrix>
            <feMerge>
                <feMergeNode in="shadowMatrixOuter1"></feMergeNode>
                <feMergeNode in="SourceGraphic"></feMergeNode>
            </feMerge>
        </filter>
        <linearGradient x1="20.0823103%" y1="0%" x2="67.0270647%" y2="100%" id="linearGradient-2">
            <stop stop-color="#F6DF43" offset="0%"></stop>
            <stop stop-color="#E9A32C" offset="100%"></stop>
        </linearGradient>
        <path d="M27.9904316,8.59885731 C26.0626846,7.58389027 23.6823001,7.85907792 22,9.42442025 C19.861572,7.43466114 16.5951927,7.52950872 14.5642988,9.70896301 C12.4785671,11.9472664 12.4785671,15.5489971 14.5642988,17.7873005 L18.1398186,21.6243703 C18.1605936,21.646665 18.1814978,21.6687415 18.2025288,21.6905998 C15.20275,23.7450926 11.1538451,23.3819094 8.52498518,20.6010501 L2.26782539,13.9821046 C-0.755941797,10.7835047 -0.755941797,5.59754973 2.26782539,2.39894988 C5.29159258,-0.799649961 10.1940878,-0.799649961 13.217855,2.39894988 L14,3.22631808 L14.782145,2.39894988 C17.8059122,-0.799649961 22.7084074,-0.799649961 25.7321746,2.39894988 C27.3422631,4.10213289 28.0950155,6.36879561 27.9904316,8.59885731 Z M27.8703506,9.68729913 C27.5952915,11.2606377 26.8825661,12.765198 25.7321746,13.9821046 L19.4750148,20.6010501 C19.3194674,20.7655912 19.1589485,20.921668 18.9939695,21.0692805 C18.9525545,21.0280737 18.9116957,20.9858595 18.8714201,20.9426377 L15.2959002,17.1055679 C13.5680333,15.2513071 13.5680333,12.2449564 15.2959002,10.3906956 C17.0237672,8.5364348 19.825193,8.5364348 21.55306,10.3906956 L22,10.8703293 L22.44694,10.3906956 C23.9182208,8.81179023 26.1678903,8.57732474 27.8703506,9.68729913 Z" id="path-3"></path>
        <linearGradient x1="50%" y1="50%" x2="112.445919%" y2="62.3772321%" id="linearGradient-5">
            <stop stop-color="#FFFFFF" stop-opacity="0" offset="0%"></stop>
            <stop stop-color="#FFFFFF" offset="100%"></stop>
        </linearGradient>
        <linearGradient x1="0%" y1="0%" x2="100%" y2="79.3652344%" id="linearGradient-6">
            <stop stop-color="#F2DD50" offset="0%"></stop>
            <stop stop-color="#EBAA3C" offset="100%"></stop>
        </linearGradient>
    </defs>
    <g id="Page-1" stroke="none" stroke-width="1" fill="none" fill-rule="evenodd">
        <g id="首页" transform="translate(-30.000000, -722.000000)">
            <g id="分组-5" transform="translate(30.000000, 722.000000)">
                <g id="分组-4">
                    <rect id="矩形" stroke="#EEEEEE" fill="#FFFFFF" fill-rule="nonzero" x="0.5" y="0.5" width="163" height="99" rx="10"></rect>
                    <path d="M33.0329899,26.8763219 L31.783493,30.0815533 L36.3468732,30.0815533 L36.3468732,33.3411107 L25.4273561,33.3411107 L25.4273561,35.9759195 L35.7492877,35.9759195 L35.7492877,39.2083139 L25.4273561,39.2083139 L25.4273561,44.0433239 C25.4273561,44.53226 25.3368138,44.994026 25.1557264,45.4286358 C24.9746389,45.8632456 24.7211203,46.2435235 24.395163,46.5694809 C24.0692056,46.8954382 23.6934548,47.1580111 23.2678994,47.3572072 C22.8423439,47.5564034 22.3851051,47.656 21.896169,47.656 L17.9032113,47.656 L17.9032113,44.2606278 L20.4022052,44.2606278 C20.7824888,44.2606278 21.1039142,44.11576 21.3664909,43.8260201 C21.6290677,43.5362802 21.7603541,43.2012735 21.7603541,42.8209899 L21.7603541,39.2083139 L11.4384225,39.2083139 L11.4384225,35.9759195 L21.7603541,35.9759195 L21.7603541,33.3411107 L10.868,33.3411107 L10.868,30.0815533 L15.4042173,30.0815533 L14.1818833,26.8763219 L17.8217223,26.8763219 L19.0440563,30.0815533 L28.1436539,30.0815533 L29.3931509,26.8763219 L33.0329899,26.8763219 Z M25.4273561,20.683163 L25.4273561,22.6388974 L35.9665915,22.6388974 L35.9665915,25.8712918 L11.2211187,25.8712918 L11.2211187,22.6388974 L21.7603541,22.6388974 L21.7603541,20.683163 L25.4273561,20.683163 Z M29.090334,47.2837666 C28.9997903,46.1429158 28.8458683,45.033772 28.6285634,43.9563018 C28.4112585,42.8788316 28.1577399,41.778742 27.868,40.656 L31.507839,40.656 C31.7975789,41.6881983 32.0465704,42.7656523 32.2548209,43.8883944 C32.4630715,45.0111364 32.6124663,46.1429158 32.7030101,47.2837666 L29.090334,47.2837666 Z M16.5178994,40.9739074 C16.336812,42.132867 16.1104561,43.2646464 15.8388249,44.3692797 C15.5671938,45.473913 15.268404,46.551367 14.9424467,47.601674 L11.3026076,47.601674 C11.6647825,46.4608233 11.9771536,45.3562065 12.2397304,44.2877907 C12.5023071,43.2193749 12.7241359,42.1147582 12.9052233,40.9739074 L16.5178994,40.9739074 Z M63.3468732,37.3340684 L52.5088451,37.3340684 L52.5088451,43.6358793 C52.5088451,44.1610328 52.4137756,44.6590158 52.2236338,45.1298431 C52.033492,45.6006704 51.7709192,46.0126381 51.4359074,46.3657586 C51.1008957,46.718879 50.7070365,46.9995603 50.2543179,47.2078109 C49.8015993,47.4160614 49.3126706,47.5201851 48.7875171,47.5201851 L43.97967,47.5201851 L43.97967,44.1519759 L47.5108571,44.1519759 C47.873032,44.1519759 48.1899302,44.0161623 48.4615614,43.7445312 C48.7331925,43.4729001 48.869006,43.1560018 48.869006,42.793827 L48.869006,37.3340684 L38.1939557,37.3340684 L38.1939557,33.9658592 L48.869006,33.9658592 L48.869006,30.3260201 L56.1215211,25.1922173 L39.8508974,25.1922173 L39.8508974,21.7968451 L62.0430503,21.7968451 L62.0430503,25.1922173 L52.5088451,31.7656579 L52.5088451,33.9658592 L63.3468732,33.9658592 L63.3468732,37.3340684 Z M80.5953642,20.656 L80.5953642,23.127831 L90.7271549,23.127831 L90.7271549,34.6177706 L70.4092475,34.6177706 L70.4092475,38.3934245 C70.4092475,39.5704928 70.3096509,40.6705824 70.1104547,41.6937264 C69.9112586,42.7168703 69.5988874,43.626821 69.173332,44.4236056 C68.7477765,45.2203903 68.2045224,45.8949308 67.5435533,46.4472475 C66.8825842,46.9995641 66.0812844,47.4024776 65.1396298,47.656 L65.1396298,43.2284346 C65.827762,42.7394986 66.2714195,42.0468496 66.4706157,41.1504668 C66.6698119,40.254084 66.7694085,39.1539944 66.7694085,37.850165 L66.7694085,23.127831 L76.9283622,23.127831 L76.9283622,20.656 L80.5953642,20.656 Z M87.0601529,26.5232032 L70.4092475,26.5232032 L70.4092475,31.2223984 L87.0601529,31.2223984 L87.0601529,26.5232032 Z M98.6859074,20.7918149 C98.6677987,21.2626422 98.6451631,21.7244082 98.618,22.1771268 C98.5908369,22.6298453 98.5319844,23.0644486 98.4414406,23.4809497 L105.286511,23.4809497 L105.286511,31.711332 C105.286511,34.7536007 104.94245,37.2706782 104.254318,39.2626398 C103.566186,41.2546015 102.615491,42.8481469 101.402205,44.0433239 C100.188919,45.2385009 98.7628774,46.0941262 97.1240362,46.6102254 C95.485195,47.1263245 93.715092,47.4296414 91.813674,47.5201851 L91.813674,43.934672 C92.6828937,43.8079108 93.5249376,43.658516 94.339831,43.4864829 C95.1547244,43.3144498 95.9198073,43.051877 96.6351026,42.6987565 C97.3503979,42.3456361 98.00683,41.8883972 98.6044185,41.3270262 C99.202007,40.7656551 99.7135713,40.0458434 100.139127,39.1675694 C100.564682,38.2892954 100.895162,37.2299499 101.130575,35.989501 C101.365989,34.7490521 101.483694,33.2686847 101.483694,31.5483541 L101.483694,26.9034849 L97.3820845,26.9034849 C96.8026047,28.0805532 96.0465761,29.0765191 95.1139759,29.8914125 C94.1813756,30.7063059 93.0541233,31.2767227 91.7321851,31.6026801 L91.7321851,27.3924185 C92.7281659,26.79483 93.4570319,25.9618404 93.9188048,24.8934245 C94.3805778,23.8250087 94.7110574,22.4578192 94.9102535,20.7918149 L98.6859074,20.7918149 Z M111.452507,20.8189779 L111.452507,47.5745111 L107.785505,47.5745111 L107.785505,20.8189779 L111.452507,20.8189779 Z M114.76639,38.9910101 C114.712064,38.2123341 114.621522,37.3838716 114.494761,36.5055976 C114.367999,35.6273236 114.20955,34.7400085 114.019408,33.8436258 C113.829267,32.947243 113.607438,32.0599279 113.353915,31.1816539 C113.100393,30.3033799 112.819712,29.4839716 112.511863,28.7234044 L116.31468,28.7234044 C116.60442,29.3572104 116.876047,30.1132391 117.129569,30.9915131 C117.383092,31.8697871 117.600393,32.7842649 117.781481,33.7349738 C117.962568,34.6856828 118.107436,35.6227962 118.216089,36.5463421 C118.324741,37.4698879 118.397175,38.2847691 118.433392,38.9910101 L114.76639,38.9910101 Z M98.006833,31.0594205 L99.5279598,39.2898028 L95.7523058,39.2898028 L94.2311791,31.0594205 L98.006833,31.0594205 Z" id="亲子户外" fill="#333333"></path>
                    <text id="家人去旅行" font-family="PingFangSC-Light, PingFang SC" font-size="22" font-weight="300" line-spacing="22" fill="#888888">
                        <tspan x="10" y="81">家人去旅行</tspan>
                    </text>
                    <g id="分组-78" filter="url(#filter-1)" transform="translate(124.000000, 64.000000)">
                        <g id="路径-8">
                            <mask id="mask-4" fill="white">
                                <use xlink:href="#path-3"></use>
                            </mask>
                            <use id="合并形状" fill="url(#linearGradient-2)" fill-rule="nonzero" xlink:href="#path-3"></use>
                            <path d="M5,-6 C15.4804688,8 12.889974,17.3333333 -2.77148437,22 C-18.4329427,26.6666667 -15.8424479,17.3333333 5,-6 Z" fill="url(#linearGradient-5)" fill-rule="nonzero" opacity="0.3" mask="url(#mask-4)"></path>
                        </g>
                        <path d="M22,10.8703293 L22.44694,10.3906956 C24.174807,8.5364348 26.9762328,8.5364348 28.7040998,10.3906956 C30.4319667,12.2449564 30.4319667,15.2513071 28.7040998,17.1055679 L25.1285799,20.9426377 C23.4007129,22.7968985 20.5992871,22.7968985 18.8714201,20.9426377 L15.2959002,17.1055679 C13.5680333,15.2513071 13.5680333,12.2449564 15.2959002,10.3906956 C17.0237672,8.5364348 19.825193,8.5364348 21.55306,10.3906956 L22,10.8703293 Z" id="路径" fill="url(#linearGradient-6)" fill-rule="nonzero"></path>
                    </g>
                </g>
            </g>
        </g>
    </g>
</svg>