<?xml version="1.0" encoding="UTF-8"?>
<svg width="164px" height="100px" viewBox="0 0 164 100" version="1.1" xmlns="http://www.w3.org/2000/svg" xmlns:xlink="http://www.w3.org/1999/xlink">
    <!-- Generator: Sketch 52.5 (67469) - http://www.bohemiancoding.com/sketch -->
    <title>分组@2x</title>
    <desc>Created with Sketch.</desc>
    <defs>
        <filter x="-61.5%" y="-53.3%" width="223.1%" height="206.7%" filterUnits="objectBoundingBox" id="filter-1">
            <feOffset dx="0" dy="2" in="SourceAlpha" result="shadowOffsetOuter1"></feOffset>
            <feGaussianBlur stdDeviation="3" in="shadowOffsetOuter1" result="shadowBlurOuter1"></feGaussianBlur>
            <feColorMatrix values="0 0 0 0 0.97254902   0 0 0 0 0.309803922   0 0 0 0 0.321568627  0 0 0 0.488366168 0" type="matrix" in="shadowBlurOuter1" result="shadowMatrixOuter1"></feColorMatrix>
            <feMerge>
                <feMergeNode in="shadowMatrixOuter1"></feMergeNode>
                <feMergeNode in="SourceGraphic"></feMergeNode>
            </feMerge>
        </filter>
        <linearGradient x1="50%" y1="0%" x2="50%" y2="100%" id="linearGradient-2">
            <stop stop-color="#FF8376" offset="0%"></stop>
            <stop stop-color="#F74A4F" offset="100%"></stop>
        </linearGradient>
        <path d="M11.8856654,21.6084698 L11.8856654,0.718065693 C6.9816913,1.55406022 4.00257573,2.35975992 2.94831865,3.1351648 C2.18774416,3.69456648 1.07958574,7.00718595 0.393772664,13.1692376 C0.252615898,14.4375355 0.13786232,16.6161987 0.0495119289,19.7052273 L0.049513362,19.7052273 C0.0190316938,20.7709696 0.829925341,21.6732525 1.89286213,21.756325 L2.0037874,21.7649942 C3.01723227,21.8441988 3.90299963,21.0868473 3.98220418,20.0734025 C3.98562055,20.0296891 3.98747381,19.9858675 3.98776044,19.9420218 C4.00750826,16.9188404 4.26312577,14.4422676 4.75459814,12.5123033 C4.46600733,20.670126 5.65417361,20.8809449 6.25710993,21.0524492 C6.65906747,21.1667855 8.53525262,21.3521257 11.8856654,21.6084698 Z" id="path-3"></path>
        <linearGradient x1="50%" y1="50%" x2="100%" y2="71.7346546%" id="linearGradient-5">
            <stop stop-color="#FFFFFF" stop-opacity="0" offset="0%"></stop>
            <stop stop-color="#FFFFFF" offset="100%"></stop>
        </linearGradient>
    </defs>
    <g id="Page-1" stroke="none" stroke-width="1" fill="none" fill-rule="evenodd">
        <g id="首页" transform="translate(-555.000000, -722.000000)">
            <g id="分组-5" transform="translate(30.000000, 722.000000)">
                <g id="分组" transform="translate(525.000000, 0.000000)">
                    <rect id="矩形" stroke="#EEEEEE" fill="#FFFFFF" fill-rule="nonzero" x="0.5" y="0.5" width="163" height="99" rx="10"></rect>
                    <path d="M26.2677344,20.656 L26.2677344,23.127831 L36.3995252,23.127831 L36.3995252,34.6177706 L16.0816177,34.6177706 L16.0816177,38.3934245 C16.0816177,39.5704928 15.9820211,40.6705824 15.7828249,41.6937264 C15.5836288,42.7168703 15.2712577,43.626821 14.8457022,44.4236056 C14.4201468,45.2203903 13.8768926,45.8949308 13.2159235,46.4472475 C12.5549544,46.9995641 11.7536546,47.4024776 10.812,47.656 L10.812,43.2284346 C11.5001322,42.7394986 11.9437897,42.0468496 12.1429859,41.1504668 C12.3421821,40.254084 12.4417787,39.1539944 12.4417787,37.850165 L12.4417787,23.127831 L22.6007324,23.127831 L22.6007324,20.656 L26.2677344,20.656 Z M32.7325231,26.5232032 L16.0816177,26.5232032 L16.0816177,31.2223984 L32.7325231,31.2223984 L32.7325231,26.5232032 Z M44.3582777,20.7918149 C44.3401689,21.2626422 44.3175333,21.7244082 44.2903702,22.1771268 C44.2632071,22.6298453 44.2043546,23.0644486 44.1138109,23.4809497 L50.9588813,23.4809497 L50.9588813,31.711332 C50.9588813,34.7536007 50.6148203,37.2706782 49.9266881,39.2626398 C49.2385559,41.2546015 48.2878612,42.8481469 47.0745755,44.0433239 C45.8612897,45.2385009 44.4352476,46.0941262 42.7964064,46.6102254 C41.1575652,47.1263245 39.3874622,47.4296414 37.4860443,47.5201851 L37.4860443,43.934672 C38.3552639,43.8079108 39.1973078,43.658516 40.0122012,43.4864829 C40.8270946,43.3144498 41.5921775,43.051877 42.3074728,42.6987565 C43.0227682,42.3456361 43.6792002,41.8883972 44.2767887,41.3270262 C44.8743772,40.7656551 45.3859415,40.0458434 45.811497,39.1675694 C46.2370524,38.2892954 46.567532,37.2299499 46.8029457,35.989501 C47.0383593,34.7490521 47.1560644,33.2686847 47.1560644,31.5483541 L47.1560644,26.9034849 L43.0544547,26.9034849 C42.474975,28.0805532 41.7189463,29.0765191 40.7863461,29.8914125 C39.8537458,30.7063059 38.7264935,31.2767227 37.4045553,31.6026801 L37.4045553,27.3924185 C38.4005362,26.79483 39.1294021,25.9618404 39.5911751,24.8934245 C40.052948,23.8250087 40.3834276,22.4578192 40.5826237,20.7918149 L44.3582777,20.7918149 Z M57.1248773,20.8189779 L57.1248773,47.5745111 L53.4578753,47.5745111 L53.4578753,20.8189779 L57.1248773,20.8189779 Z M60.4387606,38.9910101 C60.3844343,38.2123341 60.293892,37.3838716 60.1671308,36.5055976 C60.0403696,35.6273236 59.8819205,34.7400085 59.6917787,33.8436258 C59.5016369,32.947243 59.2798081,32.0599279 59.0262857,31.1816539 C58.7727633,30.3033799 58.492082,29.4839716 58.1842334,28.7234044 L61.9870503,28.7234044 C62.2767902,29.3572104 62.5484172,30.1132391 62.8019396,30.9915131 C63.055462,31.8697871 63.2727637,32.7842649 63.4538511,33.7349738 C63.6349385,34.6856828 63.7798063,35.6227962 63.8884588,36.5463421 C63.9971112,37.4698879 64.0695451,38.2847691 64.1057626,38.9910101 L60.4387606,38.9910101 Z M43.6792032,31.0594205 L45.20033,39.2898028 L41.4246761,39.2898028 L39.9035493,31.0594205 L43.6792032,31.0594205 Z M79.7516378,33.5040885 L79.7516378,35.1881932 L90.616829,35.1881932 L90.616829,38.5835654 L77.3884588,38.5835654 C76.5735653,39.9598298 75.4780029,41.1730974 74.1017384,42.2234044 L74.1017384,43.5815533 C74.1017384,43.7988582 74.1832265,43.9844701 74.3462052,44.1383944 C74.5091839,44.2923187 74.6993229,44.3692797 74.9166278,44.3692797 L79.561497,44.3692797 L79.561497,47.5745111 L72.8794044,47.5745111 C72.209381,47.5745111 71.634437,47.3391009 71.1545553,46.8682736 C70.6746737,46.3974463 70.4347364,45.8179753 70.4347364,45.1298431 L70.4347364,44.2606278 C69.6379518,44.5684764 68.8049621,44.8174679 67.9357425,45.0076097 C67.0665228,45.1977515 66.1610993,45.3380921 65.2194447,45.4286358 L65.2194447,41.9517746 C66.8311227,41.7525785 68.2979089,41.3813548 69.6198471,40.8380926 C70.9417853,40.2948303 72.0373478,39.5433287 72.9065674,38.5835654 L65.2466076,38.5835654 L65.2466076,35.1881932 L76.1117988,35.1881932 L76.1117988,33.5040885 L79.7516378,33.5040885 Z M84.8582777,20.710326 L84.8582777,23.2093199 L90.3451992,23.2093199 L90.3451992,26.6046922 L84.8582777,26.6046922 L84.8582777,29.4296419 L89.7747767,29.4296419 L89.7747767,32.8250141 L76.2747767,32.8250141 L76.2747767,29.4296419 L81.1912757,29.4296419 L81.1912757,26.6046922 L75.7315171,26.6046922 L75.7315171,23.2093199 L81.1912757,23.2093199 L81.1912757,20.710326 L84.8582777,20.710326 Z M82.4679356,39.6157586 C82.721458,40.0322596 83.029302,40.4125375 83.3914769,40.7566036 C83.7536517,41.1006697 84.1701465,41.4266222 84.6409738,41.7344708 L86.1892636,39.6972475 L90.1822213,39.6972475 L87.5202495,43.0111308 C88.0091855,43.1560007 88.5162227,43.2782329 89.0413763,43.377831 C89.5665298,43.4774291 90.1007297,43.5543901 90.643992,43.6087163 L90.643992,47.0312515 C89.23151,46.9407078 87.8869561,46.7143519 86.6102897,46.3521771 C85.3336234,45.9900022 84.1565728,45.4965464 83.0791026,44.8717948 C82.0016324,44.2470432 81.0509377,43.4955416 80.2269899,42.6172676 C79.4030422,41.7389936 78.7466101,40.7385006 78.257674,39.6157586 L82.4679356,39.6157586 Z M74.672161,20.710326 L74.672161,33.2324588 L71.005159,33.2324588 L71.005159,20.710326 L74.672161,20.710326 Z M70.0272918,26.5232032 C69.9548568,27.6097278 69.8371517,28.7007631 69.674173,29.7963421 C69.5111944,30.891921 69.3029469,31.9739021 69.0494245,33.0423179 L65.4095855,33.0423179 C65.6449992,31.9557934 65.8441923,30.8692851 66.007171,29.7827606 C66.1701497,28.696236 66.296909,27.6097278 66.3874527,26.5232032 L70.0272918,26.5232032 Z M69.2667284,21.2264225 C69.4659245,22.0050985 69.6334279,22.7294373 69.7692435,23.3994608 C69.905059,24.0694842 70.0091827,24.8119315 70.0816177,25.6268249 L66.4689416,25.6268249 C66.3783979,24.8300403 66.2606929,24.1011743 66.1158229,23.4402052 C65.970953,22.7792361 65.8079768,22.0413159 65.6268893,21.2264225 L69.2667284,21.2264225 Z M116.204354,47.4386962 L93.9850382,47.4386962 L93.9850382,34.7807485 L116.204354,34.7807485 L116.204354,47.4386962 Z M116.666125,22.1771268 L116.666125,26.1972475 C115.977993,27.0664671 115.176693,27.8406043 114.262201,28.5196821 C113.34771,29.1987599 112.347217,29.8008666 111.260692,30.3260201 C113.488067,30.6519775 115.697301,30.8149537 117.888459,30.8149537 L117.888459,34.183163 C115.86028,34.110728 113.791387,33.9477518 111.681718,33.6942294 C109.57205,33.440707 107.485049,33.0151579 105.420652,32.4175694 C104.316019,32.7073093 103.197821,32.9563008 102.066024,33.1645513 C100.934228,33.3728018 99.8069754,33.5448323 98.6842334,33.6806479 C97.5614914,33.8164635 96.4614018,33.9251143 95.3839316,34.0066036 C94.3064614,34.088093 93.2697515,34.1469455 92.2737706,34.183163 L92.2737706,30.8149537 C93.4689476,30.7787362 94.7048508,30.7153566 95.9815171,30.6248129 C97.2581834,30.5342692 98.548412,30.3894014 99.8522414,30.1902052 C99.1278918,29.8099216 98.4307156,29.3934268 97.7606922,28.9407082 C97.0906687,28.4879897 96.4387637,27.999061 95.8049577,27.4739074 C95.3160217,27.6912124 94.8135116,27.8632428 94.2974125,27.990004 C93.7813133,28.1167652 93.2516405,28.1982533 92.7083783,28.2344708 L92.7083783,24.7847726 C93.1973143,24.7123377 93.686243,24.5538885 94.1751791,24.3094205 C94.6641151,24.0649525 95.121354,23.7571085 95.5469095,23.3858793 C95.9724649,23.0146501 96.3482157,22.5981552 96.674173,22.1363823 C97.0001304,21.6746094 97.253649,21.199262 97.4347364,20.710326 L101.21039,20.710326 C101.156064,20.9638484 101.088157,21.2128398 101.006668,21.4573078 C100.925179,21.7017759 100.839163,21.9417131 100.74862,22.1771268 L116.666125,22.1771268 Z M98.8743742,25.572499 C99.7798114,26.3149574 100.789359,26.9623353 101.903046,27.5146519 C103.016734,28.0669686 104.198312,28.5513702 105.447815,28.9678712 C106.787862,28.5513702 108.046401,28.0714957 109.223469,27.5282334 C110.400537,26.9849711 111.450828,26.3330662 112.374374,25.572499 L98.8743742,25.572499 Z M112.537352,44.143827 L112.537352,42.793827 L106.914616,42.793827 L106.914616,44.143827 L112.537352,44.143827 Z M112.537352,38.1489577 L106.914616,38.1489577 L106.914616,39.4989577 L112.537352,39.4989577 L112.537352,38.1489577 Z M97.6520402,39.4989577 L103.247614,39.4989577 L103.247614,38.1489577 L97.6520402,38.1489577 L97.6520402,39.4989577 Z M97.6520402,44.143827 L103.247614,44.143827 L103.247614,42.793827 L97.6520402,42.793827 L97.6520402,44.143827 Z" id="户外装备" fill="#333333"></path>
                    <text id="可靠精选" font-family="PingFangSC-Light, PingFang SC" font-size="22" font-weight="300" line-spacing="22" fill="#888888">
                        <tspan x="10" y="81">可靠精选</tspan>
                    </text>
                    <g id="分组-80" filter="url(#filter-1)" transform="translate(128.000000, 60.000000)">
                        <g id="分组-79" transform="translate(6.593208, 0.000000)" fill="url(#linearGradient-2)" fill-rule="nonzero">
                            <path d="M6.46995283,9.23604518 L6.46995283,8.03085458 C8.14045578,7.85710346 9.41334906,6.95638551 9.41334906,5.87135036 C9.41334906,4.6619677 7.831985,3.68156934 5.88127358,3.68156934 C3.93056217,3.68156934 2.34919811,4.6619677 2.34919811,5.87135036 C2.34919811,6.95638551 3.62209139,7.85710346 5.29259434,8.03085458 L5.29259434,9.25266249 C3.7175512,9.30769942 2.15202226,9.49446399 0.596007517,9.8129562 C0.359456222,9.02875056 0.22995283,8.17822309 0.22995283,7.28963213 C0.22995283,3.36194182 2.76013532,0.177919708 5.88127358,0.177919708 C9.00241185,0.177919708 11.5325943,3.36194182 11.5325943,7.28963213 C11.5325943,8.12011547 11.4194744,8.91735073 11.2115665,9.65826864 C9.62161829,9.38723839 8.04108041,9.24649724 6.46995283,9.23604518 Z" id="路径"></path>
                            <path d="M18.3442649,29.6084698 L18.3442649,8.71806569 C13.4402908,9.55406022 10.4611753,10.3597599 9.40691818,11.1351648 C8.64634368,11.6945665 7.53818526,15.007186 6.85237219,21.1692376 C6.71121542,22.4375355 6.59646184,24.6161987 6.50811145,27.7052273 L6.50811289,27.7052273 C6.47763122,28.7709696 7.28852486,29.6732525 8.35146165,29.756325 L8.46238693,29.7649942 C9.47583179,29.8441988 10.3615992,29.0868473 10.4408037,28.0734025 C10.4442201,28.0296891 10.4460733,27.9858675 10.44636,27.9420218 C10.4661078,24.9188404 10.7217253,22.4422676 11.2131977,20.5123033 C10.9246069,28.670126 12.1127731,28.8809449 12.7157095,29.0524492 C13.117667,29.1667855 14.9938521,29.3521257 18.3442649,29.6084698 Z" id="路径-47" transform="translate(12.406663, 19.300235) scale(-1, 1) translate(-12.406663, -19.300235) "></path>
                        </g>
                        <g id="路径-12" transform="translate(0.000000, 8.000000)">
                            <mask id="mask-4" fill="white">
                                <use xlink:href="#path-3"></use>
                            </mask>
                            <use id="Mask" fill="url(#linearGradient-2)" fill-rule="nonzero" xlink:href="#path-3"></use>
                            <path d="M1,26.8017578 C9.04151287,16.2672526 13.0622693,1.87955729 13.0622693,-16.3613281 C2.51360359,-12.1308594 -4.50715284,-3.28556315 -8,10.1745605 L1,26.8017578 Z" fill="url(#linearGradient-5)" fill-rule="nonzero" opacity="0.264927455" mask="url(#mask-4)"></path>
                        </g>
                    </g>
                </g>
            </g>
        </g>
    </g>
</svg>