<?xml version="1.0" encoding="UTF-8"?>
<svg width="42px" height="40px" viewBox="0 0 42 40" version="1.1" xmlns="http://www.w3.org/2000/svg" xmlns:xlink="http://www.w3.org/1999/xlink">
    <!-- Generator: Sketch 52.5 (67469) - http://www.bohemiancoding.com/sketch -->
    <title>分组 24</title>
    <desc>Created with Sketch.</desc>
    <g id="Page-1" stroke="none" stroke-width="1" fill="none" fill-rule="evenodd" opacity="0.6">
        <g id="个人中心" transform="translate(-668.000000, -64.000000)" fill-rule="nonzero">
            <g id="分组-24" transform="translate(668.000000, 64.000000)">
                <path d="M7.82186225,23.8149756 C10.8119452,25.5385513 11.8368235,29.3573574 10.1098993,32.343714 C9.93652886,32.6435221 9.74041608,32.9259847 9.52384987,33.1892747 C11.1434272,34.5950574 13.0085377,35.6946851 15.0287998,36.4267658 C15.5360738,35.133405 16.4700275,34.0224747 17.7236551,33.2998452 C20.7123378,31.5770766 24.5337851,32.5993995 26.2598993,35.5843553 C26.4346248,35.8865067 26.5825318,36.1998455 26.7031661,36.5214088 C28.7357871,35.8222496 30.6182416,34.7530615 32.2601775,33.3736904 C31.3949176,32.2893323 30.9,30.9282834 30.9,29.4848696 C30.9,26.0367324 33.6987551,23.2424348 37.15,23.2424348 C37.4990444,23.2424348 37.8443795,23.2711743 38.1832178,23.3275673 C38.3931778,22.2401677 38.5,21.127557 38.5,20 C38.5,18.9688227 38.4106619,17.9500777 38.2347469,16.9515638 C36.8605129,17.1592703 35.4311166,16.9072799 34.1781377,16.1850244 C31.1880548,14.4614487 30.1631765,10.6426426 31.8901007,7.65628597 C32.0634711,7.35647786 32.2595839,7.07401527 32.4761501,6.81072533 C30.8565728,5.40494255 28.9914623,4.30531487 26.9712002,3.57323424 C26.4639262,4.86659495 25.5299725,5.97752532 24.2763449,6.70015479 C21.2876622,8.42292338 17.4662149,7.40060048 15.7401007,4.41564471 C15.5653752,4.1134933 15.4174682,3.80015453 15.2968339,3.4785912 C13.2642129,4.17775036 11.3817584,5.24693852 9.73982248,6.62630961 C10.6050824,7.71066771 11.1,9.07171658 11.1,10.5151304 C11.1,13.9632676 8.30124493,16.7575652 4.85,16.7575652 C4.5009556,16.7575652 4.15562051,16.7288257 3.81678217,16.6724327 C3.60682216,17.7598324 3.5,18.872443 3.5,20 C3.5,21.0311773 3.5893381,22.0499223 3.76525311,23.0484362 C5.13948711,22.8407297 6.56888344,23.0927201 7.82186225,23.8149756 Z M1.20273922,25.3318258 C0.737853047,23.6068447 0.5,21.818434 0.5,20 C0.5,18.0684233 0.768378954,16.1710098 1.29184867,14.347985 C1.55053214,13.4470993 2.56286425,13.0014699 3.40196401,13.4191106 C3.84723589,13.6407335 4.33867399,13.7575652 4.85,13.7575652 C6.64546019,13.7575652 8.1,12.305342 8.1,10.5151304 C8.1,9.43498513 7.56833122,8.44653594 6.69261721,7.8436554 C5.92086796,7.31234884 5.81969202,6.21140788 6.481679,5.54834166 C9.1130334,2.91269733 12.4158901,1.03138428 16.0497271,0.131427346 C16.9590828,-0.0937838858 17.8500871,0.56043959 17.9075035,1.49550703 C17.9378858,1.99030323 18.0819796,2.47260326 18.3371406,2.91385117 C19.234379,4.46543856 21.2230406,4.99745014 22.7781377,4.10104431 C23.716962,3.55987716 24.3088221,2.6043728 24.3928761,1.54528163 C24.4669189,0.612334257 25.3678357,-0.0257553441 26.2724796,0.214020683 C29.8893609,1.1726757 33.1622839,3.10728709 35.7510347,5.7852222 C36.4029951,6.45964309 36.2829497,7.56027962 35.5009312,8.07829786 C35.0875667,8.35211533 34.7418756,8.7175683 34.4871406,9.15807951 C33.5907123,10.708266 34.122648,12.6903152 35.6763449,13.5859139 C36.6158803,14.127491 37.7424019,14.1615373 38.7047169,13.7038858 C39.5503153,13.3017417 40.5536051,13.7640788 40.7972608,14.6681742 C41.262147,16.3931553 41.5,18.181566 41.5,20 C41.5,21.9315767 41.231621,23.8289902 40.7081513,25.652015 C40.4494679,26.5529007 39.4371358,26.9985301 38.598036,26.5808894 C38.1527641,26.3592665 37.661326,26.2424348 37.15,26.2424348 C35.3545398,26.2424348 33.9,27.694658 33.9,29.4848696 C33.9,30.5650149 34.4316688,31.5534641 35.3073828,32.1563446 C36.079132,32.6876512 36.180308,33.7885921 35.518321,34.4516583 C32.8869666,37.0873027 29.5841099,38.9686157 25.9502729,39.8685727 C25.0409172,40.0937839 24.1499129,39.4395604 24.0924965,38.504493 C24.0621142,38.0096968 23.9180204,37.5273967 23.6628594,37.0861488 C22.765621,35.5345614 20.7769594,35.0025499 19.2218623,35.8989557 C18.283038,36.4401228 17.6911779,37.3956272 17.6071239,38.4547184 C17.5330811,39.3876657 16.6321643,40.0257553 15.7275204,39.7859793 C12.1106391,38.8273243 8.83771612,36.8927129 6.24896533,34.2147778 C5.59700494,33.5403569 5.71705027,32.4397204 6.49906881,31.9217021 C6.91243328,31.6478847 7.25812441,31.2824317 7.51285939,30.8419205 C8.40928771,29.291734 7.87735202,27.3096848 6.32365508,26.4140861 C5.3841197,25.872509 4.25759811,25.8384627 3.29528306,26.2961142 C2.44968471,26.6982583 1.44639488,26.2359212 1.20273922,25.3318258 Z" id="路径" fill="#FFFFFF"></path>
                <circle id="椭圆形" stroke="#FFFFFF" stroke-width="3" cx="21" cy="20" r="4.5"></circle>
            </g>
        </g>
    </g>
</svg>