<?xml version="1.0" encoding="UTF-8"?>
<svg width="37px" height="37px" viewBox="0 0 37 37" version="1.1" xmlns="http://www.w3.org/2000/svg" xmlns:xlink="http://www.w3.org/1999/xlink">
    <!-- Generator: Sketch 52.5 (67469) - http://www.bohemiancoding.com/sketch -->
    <title>分组 100</title>
    <desc>Created with Sketch.</desc>
    <g id="Page-1" stroke="none" stroke-width="1" fill="none" fill-rule="evenodd">
        <g id="首页" transform="translate(-677.000000, -59.000000)" fill="#FFFFFF" fill-rule="nonzero">
            <g id="banner+头部">
                <g id="分组-103">
                    <g id="分组-102">
                        <g id="分组-58" transform="translate(14.000000, 10.000000)">
                            <g id="分组-100" transform="translate(663.000000, 49.000000)">
                                <path d="M3,26.5 L3,33 C3,33.5522847 3.44771525,34 4,34 L10.5,34 C11.3284271,34 12,34.6715729 12,35.5 L12,35.5 C12,36.3284271 11.3284271,37 10.5,37 L4,37 C1.790861,37 0,35.209139 0,33 L0,26.5 C-1.01453063e-16,25.6715729 0.671572875,25 1.5,25 L1.5,25 C2.32842712,25 3,25.6715729 3,26.5 Z M1.5,12 L1.5,12 C0.671572875,12 1.01453063e-16,11.3284271 0,10.5 L0,4 C0,1.790861 1.790861,0 4,0 L10.5,0 C11.3284271,-1.52179594e-16 12,0.671572875 12,1.5 L12,1.5 C12,2.32842712 11.3284271,3 10.5,3 L4,3 C3.44771525,3 3,3.44771525 3,4 L3,10.5 C3,11.3284271 2.32842712,12 1.5,12 Z M35.5,25 L35.5,25 C36.3284271,25 37,25.6715729 37,26.5 L37,33 C37,35.209139 35.209139,37 33,37 L26.5,37 C25.6715729,37 25,36.3284271 25,35.5 L25,35.5 C25,34.6715729 25.6715729,34 26.5,34 L33,34 C33.5522847,34 34,33.5522847 34,33 L34,26.5 C34,25.6715729 34.6715729,25 35.5,25 Z M34,10.5 L34,4 C34,3.44771525 33.5522847,3 33,3 L26.5,3 C25.6715729,3 25,2.32842712 25,1.5 L25,1.5 C25,0.671572875 25.6715729,1.52179594e-16 26.5,0 L33,0 C35.209139,0 37,1.790861 37,4 L37,10.5 C37,11.3284271 36.3284271,12 35.5,12 L35.5,12 C34.6715729,12 34,11.3284271 34,10.5 Z" id="形状"></path>
                                <rect id="矩形" x="0" y="17" width="37" height="3" rx="1.5"></rect>
                            </g>
                        </g>
                    </g>
                </g>
            </g>
        </g>
    </g>
</svg>