<?xml version="1.0" encoding="UTF-8"?>
<svg width="44px" height="43px" viewBox="0 0 44 43" version="1.1" xmlns="http://www.w3.org/2000/svg" xmlns:xlink="http://www.w3.org/1999/xlink">
    <!-- Generator: Sketch 52.5 (67469) - http://www.bohemiancoding.com/sketch -->
    <title>fabu</title>
    <desc>Created with Sketch.</desc>
    <defs>
        <linearGradient x1="54.9078125%" y1="107.80222%" x2="54.9078125%" y2="-9.08203125%" id="linearGradient-1">
            <stop stop-color="#FFFFFF" offset="0%"></stop>
            <stop stop-color="#FFFFFF" offset="100%"></stop>
        </linearGradient>
        <linearGradient x1="50%" y1="0%" x2="50%" y2="100%" id="linearGradient-2">
            <stop stop-color="#20B0CE" offset="0%"></stop>
            <stop stop-color="#1AC7A4" offset="100%"></stop>
        </linearGradient>
    </defs>
    <g id="Page-1" stroke="none" stroke-width="1" fill="none" fill-rule="evenodd">
        <g id="票圈" transform="translate(-676.000000, -57.000000)" fill-rule="nonzero">
            <g id="分组-6">
                <g id="fabu" transform="translate(676.000000, 57.000000)">
                    <g id="分组-15" transform="translate(1.000000, 5.000000)">
                        <path d="M11.4444444,4.99999996 L11.6046362,3.5582739 C11.8297174,1.53254318 13.5419743,2.15076753e-15 15.5801712,1.77635684e-15 L26.4198288,1.77635684e-15 C28.4580257,1.40194615e-15 30.1702826,1.53254318 30.3953638,3.5582739 L30.5555555,4.99999988 L38.000001,4.99999985 C40.20914,4.99999985 42.000001,6.79086085 42.000001,8.99999985 L42.0000012,31.9365183 C42.0000011,33.7752705 40.7464321,35.3771765 38.9616036,35.819214 C33.0913196,37.2730713 27.15197,38 21.1435547,38 C15.1150251,38 9.08598849,37.2681961 3.05644478,35.8045884 C1.26284447,35.3692129 2.26031251e-16,33.7631539 0,31.9174687 L0,8.99999999 C-2.705415e-16,6.79086099 1.790861,4.99999999 4,4.99999999 L11.4444444,4.99999996 Z" id="合并形状" fill="url(#linearGradient-1)"></path>
                        <circle id="椭圆形" stroke="url(#linearGradient-2)" stroke-width="3" fill="#FFFFFF" cx="21" cy="21" r="8"></circle>
                    </g>
                    <g id="分组-16" fill="#FEE013">
                        <path d="M42.8810021,5 L37.1134308,5 C36.5010438,5 36,4.55 36,4 C36,3.45 36.5010438,3 37.1134308,3 L42.8865692,3 C43.4989562,3 44,3.45 44,4 C44,4.55 43.4989562,5 42.8810021,5 Z" id="路径"></path>
                        <path d="M40,8 C39.45,8 39,7.50953678 39,6.91008174 L39,1.08991826 C39,0.490463215 39.45,0 40,0 C40.55,0 41,0.490463215 41,1.08991826 L41,6.91008174 C41,7.51498638 40.55,8 40,8 Z" id="路径"></path>
                        <path d="M0,5.5 C0,6.32842712 0.671572875,7 1.5,7 C2.32842712,7 3,6.32842712 3,5.5 C3,4.67157288 2.32842712,4 1.5,4 C0.671572875,4 0,4.67157288 0,5.5 Z" id="路径"></path>
                        <path d="M4,2.99999998 C3.99999998,3.35726557 4.1905989,3.6873926 4.49999999,3.8660254 C4.80940107,4.0446582 5.19059893,4.0446582 5.50000001,3.8660254 C5.8094011,3.6873926 6.00000002,3.35726557 6,2.99999998 C6,2.44771524 5.55228475,2 5,2 C4.44771525,2 4,2.44771524 4,2.99999998 Z" id="路径"></path>
                    </g>
                </g>
            </g>
        </g>
    </g>
</svg>