<?xml version="1.0" encoding="UTF-8"?>
<svg width="24px" height="24px" viewBox="0 0 24 24" version="1.1" xmlns="http://www.w3.org/2000/svg" xmlns:xlink="http://www.w3.org/1999/xlink">
    <!-- Generator: Sketch 52.5 (67469) - http://www.bohemiancoding.com/sketch -->
    <title>形状@2x</title>
    <desc>Created with Sketch.</desc>
    <g id="Page-1" stroke="none" stroke-width="1" fill="none" fill-rule="evenodd">
        <g id="首页" transform="translate(-168.000000, -65.000000)" fill="#999999" fill-rule="nonzero">
            <g id="banner+头部">
                <g id="分组-103">
                    <g id="分组-102">
                        <g id="分组-58" transform="translate(14.000000, 10.000000)">
                            <g id="分组-53" transform="translate(134.000000, 39.000000)">
                                <g id="搜索" transform="translate(20.000000, 16.000000)">
                                    <path d="M18.4769498,17.2720151 L23.6987533,22.4938344 C24.1004156,22.8953043 24.1004156,23.2969679 23.6987533,23.6988249 C23.2968974,24.1003917 22.6944039,24.1003917 22.4937664,23.6988249 L17.2719629,18.4770057 C15.4644825,20.0838533 13.0545087,20.8869868 10.443607,20.8869868 C4.61931003,20.8869868 0,16.0670246 0,10.4433482 C0,4.81967183 4.8199476,0 10.443607,0 C16.0672663,0 20.8869236,4.81996218 20.8869236,10.4433482 C21.0887226,13.0545482 20.0835022,15.4645293 18.4769498,17.2720151 Z M10.443607,19.2804295 C15.2635546,19.2804295 19.2803712,15.2638911 19.2803712,10.4436386 C19.2803712,5.62338599 15.2635546,1.60684763 10.443607,1.60684763 C5.62365937,1.60684763 1.60568133,5.62367637 1.60568133,10.4436386 C1.60568133,15.2636007 5.62336899,19.2804295 10.443607,19.2804295 Z" id="形状"></path>
                                </g>
                            </g>
                        </g>
                    </g>
                </g>
            </g>
        </g>
    </g>
</svg>