<?xml version="1.0" encoding="UTF-8"?>
<svg width="20px" height="20px" viewBox="0 0 20 20" version="1.1" xmlns="http://www.w3.org/2000/svg" xmlns:xlink="http://www.w3.org/1999/xlink">
    <!-- Generator: Sketch 52.5 (67469) - http://www.bohemiancoding.com/sketch -->
    <title>分组 5</title>
    <desc>Created with Sketch.</desc>
    <g id="Page-1" stroke="none" stroke-width="1" fill="none" fill-rule="evenodd">
        <g id="首页" transform="translate(-98.000000, -67.000000)" fill="#FFFFFF" fill-rule="nonzero">
            <g id="banner+头部">
                <g id="分组-103">
                    <g id="分组-102">
                        <g id="分组-58" transform="translate(14.000000, 10.000000)">
                            <g id="分组-54" transform="translate(16.000000, 52.000000)">
                                <g id="分组-46">
                                    <g id="分组-8">
                                        <g id="分组-101">
                                            <g id="分组-9" transform="translate(68.000000, 5.000000)">
                                                <g id="分组-5">
                                                    <g id="分组-4">
                                                        <path d="M10,0 C15.5228475,-1.01453063e-15 20,4.4771525 20,10 C20,15.5228475 15.5228475,20 10,20 C4.4771525,20 6.76353751e-16,15.5228475 0,10 C-6.76353751e-16,4.4771525 4.4771525,1.01453063e-15 10,0 Z M10.1307119,10.8629449 L6.30055014,7.03278319 C5.81239478,6.54462783 5.02093855,6.54462783 4.53278319,7.03278319 C4.04462783,7.52093855 4.04462783,8.31239478 4.53278319,8.80055014 L9.54145622,13.8092232 C9.86689313,14.1346601 10.3945306,14.1346601 10.7199675,13.8092232 L15.7286406,8.80055014 C16.2167959,8.31239478 16.2167959,7.52093855 15.7286406,7.03278319 C15.2404852,6.54462783 14.449029,6.54462783 13.9608736,7.03278319 L10.1307119,10.8629449 Z" id="形状"></path>
                                                    </g>
                                                </g>
                                            </g>
                                        </g>
                                    </g>
                                </g>
                            </g>
                        </g>
                    </g>
                </g>
            </g>
        </g>
    </g>
</svg>