<?xml version="1.0" encoding="UTF-8"?>
<svg width="48px" height="48px" viewBox="0 0 48 48" version="1.1" xmlns="http://www.w3.org/2000/svg" xmlns:xlink="http://www.w3.org/1999/xlink">
    <!-- Generator: Sketch 52.5 (67469) - http://www.bohemiancoding.com/sketch -->
    <title>分组 59@2x</title>
    <desc>Created with Sketch.</desc>
    <defs>
        <linearGradient x1="54.9078125%" y1="100%" x2="54.2177083%" y2="0%" id="linearGradient-1">
            <stop stop-color="#1AC6A4" offset="0%"></stop>
            <stop stop-color="#20AFD0" offset="100%"></stop>
        </linearGradient>
        <path d="M7.70749532,0 L28.2925047,1.77635684e-15 C31.4897498,4.02875658e-15 34.1253559,2.50711823 34.2850187,5.7003743 L35.6850187,33.7003743 C35.8504974,37.0099484 33.3017045,39.8270353 29.9921304,39.992514 C29.8923331,39.9975039 29.7924267,40 29.6925047,40 L6.30749532,40 C2.99378682,40 0.307495318,37.3137085 0.307495318,34 C0.307495318,33.900078 0.309991419,33.8001716 0.314981285,33.7003743 L1.71498129,5.7003743 C1.87464409,2.50711823 4.51025017,2.36368124e-15 7.70749532,1.77635684e-15 Z" id="path-2"></path>
    </defs>
    <g id="Page-1" stroke="none" stroke-width="1" fill="none" fill-rule="evenodd">
        <g id="个人中心" transform="translate(-438.000000, -850.000000)">
            <g id="分组-59" transform="translate(438.000000, 850.000000)">
                <rect id="矩形-copy-5" fill="#FFFFFF" fill-rule="nonzero" x="0" y="0" width="48" height="48"></rect>
                <g id="分组-44" transform="translate(6.000000, 4.000000)">
                    <g id="路径-7">
                        <mask id="mask-3" fill="white">
                            <use xlink:href="#path-2"></use>
                        </mask>
                        <use id="Mask" fill="url(#linearGradient-1)" fill-rule="nonzero" opacity="0.7" xlink:href="#path-2"></use>
                        <path d="M25.4769999,-2.01931719e-15 L10.2469988,40 L6.30749532,40 C2.99378682,40 0.307495318,37.3137085 0.307495318,34 C0.307495318,33.900078 0.309991419,33.8001716 0.314981285,33.7003743 L1.71498129,5.7003743 C1.87464409,2.50711823 4.51025017,-1.18903243e-15 7.70749532,-1.77635684e-15 L25.4769999,-2.01931719e-15 Z" id="路径" fill="#FFFFFF" fill-rule="nonzero" opacity="0.1" mask="url(#mask-3)"></path>
                        <path d="M10.5000684,10.6890898 C10.5000684,9.86066272 11.1716412,9.18908985 12.0000684,9.18908985 C12.8284955,9.18908985 13.5000684,9.86066272 13.5000684,10.6890898 C13.5000684,13.1743712 15.514787,15.1890898 18.0000684,15.1890898 C20.4853497,15.1890898 22.5000684,13.1743712 22.5000684,10.6890898 C22.5000684,9.86066272 23.1716412,9.18908985 24.0000684,9.18908985 C24.8284955,9.18908985 25.5000684,9.86066272 25.5000684,10.6890898 C25.5000684,14.8312255 22.142204,18.1890898 18.0000684,18.1890898 C13.8579328,18.1890898 10.5000684,14.8312255 10.5000684,10.6890898 Z" id="路径" fill="#FFFFFF" fill-rule="nonzero" mask="url(#mask-3)"></path>
                    </g>
                </g>
            </g>
        </g>
    </g>
</svg>