<?xml version="1.0" encoding="UTF-8"?>
<svg width="72px" height="30px" viewBox="0 0 72 30" version="1.1" xmlns="http://www.w3.org/2000/svg" xmlns:xlink="http://www.w3.org/1999/xlink">
    <!-- Generator: Sketch 52.5 (67469) - http://www.bohemiancoding.com/sketch -->
    <title>分组 17</title>
    <desc>Created with Sketch.</desc>
    <defs>
        <linearGradient x1="54.9078125%" y1="100%" x2="54.2177083%" y2="0%" id="linearGradient-1">
            <stop stop-color="#1AC6A4" offset="0%"></stop>
            <stop stop-color="#20AFD0" offset="100%"></stop>
        </linearGradient>
        <linearGradient x1="50%" y1="0%" x2="50%" y2="100%" id="linearGradient-2">
            <stop stop-color="#FFFFFF" stop-opacity="0.642012002" offset="0%"></stop>
            <stop stop-color="#FFFFFF" offset="100%"></stop>
        </linearGradient>
    </defs>
    <g id="Page-1" stroke="none" stroke-width="1" fill="none" fill-rule="evenodd">
        <g id="首页" transform="translate(-250.000000, -3428.000000)">
            <g id="分组-37" transform="translate(0.000000, 1705.000000)">
                <g id="分组-36" transform="translate(0.000000, 1167.000000)">
                    <g id="分组-35">
                        <g id="分组-15" transform="translate(0.000000, 73.000000)">
                            <g id="分组-12" transform="translate(30.000000, 478.000000)">
                                <g id="分组-27" transform="translate(220.000000, 0.000000)">
                                    <g id="分组-17" transform="translate(0.000000, 5.000000)">
                                        <path d="M15,0 L57,0 C65.2842712,-1.52179594e-15 72,6.71572875 72,15 L72,15 C72,23.2842712 65.2842712,30 57,30 L15,30 C6.71572875,30 1.01453063e-15,23.2842712 0,15 L0,15 C-1.01453063e-15,6.71572875 6.71572875,1.52179594e-15 15,0 Z" id="矩形" fill="url(#linearGradient-1)" fill-rule="nonzero"></path>
                                        <g id="分组-95" transform="translate(9.000000, 6.000000)">
                                            <path d="M13.9366516,3.68516266 C13.9674208,3.69550357 13.9904977,3.70929144 14.021267,3.71963235 L14.0366516,3.60588235 L13.9366516,3.68516266 Z M0.0235294118,3.71963235 C0.0470588235,3.70825735 0.0764705882,3.70256985 0.1,3.68550735 L0,3.60588235 L0.0235294118,3.71963235 Z M12.8837436,4.82679628 C12.7637887,4.82679628 12.6556604,4.8851667 12.5762536,4.97897631 C12.5711851,4.98523028 12.5694956,4.98314563 12.5711851,4.97480699 L9.60272367,8.27898996 L7.18504109,2.30227541 C7.07184422,2.11674085 6.89275662,2 6.69001594,2 C6.45348515,2 6.24736546,2.16468798 6.14261611,2.40442366 L3.76548168,8.27898996 L0.702407948,4.86848944 C0.638206733,4.82471162 0.563868485,4.79969572 0.48446172,4.79969572 C0.239483402,4.79969572 0.041811242,5.04568537 0.041811242,5.34587612 C0.041811242,5.37089202 0.0384322307,5.38339997 0.0316742081,5.38339997 L0.979486873,14.1202017 C0.979486873,14.0868472 0.977797367,14.0534927 0.974418356,14.0180535 C1.03186155,14.6267736 1.36469416,15.1312609 1.81241315,15.3397267 C1.77186502,15.3209647 1.73131688,15.3063721 1.69414776,15.2980335 C2.64533944,15.7378964 4.51224317,16.0234945 6.66298385,15.9984786 C8.82386157,15.9755474 10.7076604,15.6461714 11.6723681,15.1812927 C11.6368885,15.1896313 11.5997193,15.2021392 11.5591712,15.2209012 C12.0068902,15.0103507 12.3397228,14.5058635 12.397166,13.8971433 C12.390408,13.9680217 12.390408,14.0347308 12.393787,14.0951858 L13.3348416,5.40424655 C13.3314626,5.40007723 13.3280836,5.38756928 13.3280836,5.36880736 C13.3280836,5.07278592 13.1304114,4.82679628 12.8837436,4.82679628 Z" id="形状" fill="url(#linearGradient-2)" opacity="0.802804129"></path>
                                            <path d="M32.8593867,15.8171818 L28.9456993,15.8171818 L28.9456993,17.8350194 C28.9456993,17.8984737 28.8312652,17.9365458 28.6023934,17.9492366 C28.3735217,17.9619275 28.125581,17.9460642 27.8585639,17.9016461 C27.5915469,17.8572281 27.3436062,17.7842567 27.1147345,17.6827298 C26.8858627,17.5812029 26.7714286,17.4416054 26.7714286,17.2639333 L26.7714286,8.75475023 C26.7714286,8.64053244 26.8744193,8.57707906 27.0804039,8.5643882 C27.2863885,8.55169733 27.5190713,8.57390601 27.7784592,8.63101491 C28.0378472,8.68812381 28.2819734,8.77378587 28.5108452,8.88800366 C28.7397169,9.00222145 28.8770379,9.12278287 28.9228123,9.24969153 L32.9509349,9.24969153 L33.5002244,8.52631579 L35.5142857,9.55427079 L35.0565445,10.2776465 L35.0565445,16.6547748 C35.0565445,17.0608825 34.9268525,17.3749767 34.6674645,17.5970669 C34.4080765,17.819157 34.0800319,17.9492364 33.6833209,17.987309 C33.2866098,18.0253816 32.859389,17.9777916 32.4016455,17.8445375 C31.943902,17.7112834 31.5243101,17.4987146 31.1428571,17.2068247 C31.4632776,17.270279 31.7341051,17.289315 31.9553478,17.2639333 C32.1765905,17.2385516 32.3558707,17.1814435 32.4931937,17.0926075 C32.6305168,17.0037714 32.7258786,16.8895553 32.779282,16.7499558 C32.8326854,16.6103563 32.8593867,16.4580682 32.8593867,16.2930869 L32.8593867,15.8171818 Z M26.7811164,8.52631579 C26.5949182,8.52631579 26.4242391,8.44360985 26.2690739,8.27819549 C26.1139088,8.11278113 25.9936576,7.93082806 25.9083167,7.73233083 C25.8229759,7.5338336 25.7880643,7.35188053 25.8035808,7.18646617 C25.8190973,7.02105181 25.9044368,6.93834587 26.059602,6.93834587 L29.5508008,6.93834587 L29.5508008,5.92601504 L27.2466096,5.92601504 C27.0604114,5.92601504 26.8897323,5.84000086 26.7345671,5.66796993 C26.579402,5.49593899 26.4591508,5.31067769 26.3738099,5.11218046 C26.2884691,4.91368322 26.2535574,4.72842192 26.2690739,4.55639098 C26.2845905,4.38436005 26.36993,4.29834587 26.5250952,4.29834587 L29.5508008,4.29834587 L29.5508008,3.32571429 L26.9673137,3.32571429 C26.7811155,3.32571429 26.6104364,3.23970012 26.4552712,3.06766918 C26.300106,2.89563825 26.1798548,2.71037694 26.094514,2.51187971 C26.0091732,2.31338248 25.9703825,2.12812117 25.9781407,1.95609024 C25.985899,1.7840593 26.0673595,1.69804512 26.2225246,1.69804512 L29.5508008,1.69804512 L29.5508008,0.209323323 C29.5508008,0.0769918343 29.667173,0.00751884498 29.8999207,0.000902270551 C30.1326685,-0.00571430387 30.3848081,0.0240598344 30.6563471,0.0902255787 C30.9278862,0.156391323 31.1800258,0.255638451 31.4127735,0.387969939 C31.6455213,0.520301428 31.7618934,0.665863881 31.7618934,0.824661668 L31.7618934,1.69804512 L34.5315778,1.69804512 C34.7332926,1.69804512 34.8962135,1.7840593 35.0203457,1.95609024 C35.1444778,2.12812117 35.2298174,2.31338248 35.2763669,2.51187971 C35.3229165,2.71037694 35.3384328,2.89563825 35.3229162,3.06766918 C35.3073997,3.23970012 35.2608509,3.32571429 35.1832683,3.32571429 L31.7618934,3.32571429 L31.7618934,4.29834587 L34.2290073,4.29834587 C34.430722,4.29834587 34.593643,4.38436005 34.7177751,4.55639098 C34.8419072,4.72842192 34.9311259,4.91368322 34.9854337,5.11218046 C35.0397415,5.31067769 35.0591368,5.49593899 35.0436203,5.66796993 C35.0281038,5.84000086 34.981555,5.92601504 34.9039724,5.92601504 L31.7618934,5.92601504 L31.7618934,6.93834587 L34.6945004,6.93834587 C34.8962152,6.93834587 35.0591361,7.02105181 35.1832683,7.18646617 C35.3074004,7.35188053 35.396619,7.5338336 35.4509269,7.73233083 C35.5052347,7.93082806 35.52463,8.11278113 35.5091135,8.27819549 C35.493597,8.44360985 35.4470481,8.52631579 35.3694656,8.52631579 L26.7811164,8.52631579 Z M23.4188148,7.00759114 L25.0174734,7.00759114 C25.2047046,7.00759114 25.3595281,7.08703249 25.4819485,7.24591756 C25.6043689,7.40480263 25.690782,7.58275125 25.7411904,7.77976874 C25.7915988,7.97678623 25.8096016,8.15473484 25.7951992,8.31361991 C25.7807968,8.47250499 25.7375902,8.55194633 25.6655782,8.55194633 L23.4188148,8.55194633 L23.4188148,17.7990114 C23.4188148,17.9261194 23.3107984,17.9928502 23.0947624,17.9992056 C22.8787263,18.005561 22.6446908,17.9737844 22.3926488,17.903875 C22.1406068,17.8339656 21.9065712,17.7354583 21.6905352,17.6083502 C21.4744992,17.4812422 21.3664828,17.3414254 21.3664828,17.1888957 L21.3664828,8.55194633 L19.9190487,8.55194633 C19.7462199,8.55194633 19.5877958,8.47250499 19.4437718,8.31361991 C19.2997478,8.15473484 19.1881308,7.97678623 19.1089176,7.77976874 C19.0297044,7.58275125 18.993699,7.40480263 19.0009002,7.24591756 C19.0081014,7.08703249 19.0837128,7.00759114 19.2277369,7.00759114 L21.3664828,7.00759114 L21.3664828,0.200988626 C21.3664828,0.0738805676 21.4744992,0.00714983768 21.6905352,0.000794434746 C21.9065712,-0.00556096819 22.1406068,0.0262155698 22.3926488,0.0961250022 C22.6446908,0.166034435 22.8787263,0.264541702 23.0947624,0.391649761 C23.3107984,0.51875782 23.4188148,0.658574587 23.4188148,0.811104258 L23.4188148,7.00759114 Z M23.8571429,10.1400188 C23.8571429,10.0305837 23.9337422,9.92722993 24.0869432,9.82995433 C24.2401441,9.73267873 24.4142335,9.65060367 24.6092166,9.58372669 C24.8041996,9.51684972 24.9817708,9.48037192 25.1419355,9.47429219 C25.3021001,9.46821247 25.3891448,9.50773009 25.4030722,9.59284624 L25.8,16.8702407 L24.2540707,17.0526316 L23.8571429,10.1400188 Z M20.519504,16.9161329 C20.5054507,17.0128199 20.417619,17.0581413 20.2560062,17.0520984 C20.0943934,17.0460554 19.91873,17.0097983 19.7290106,16.943326 C19.5392912,16.8768536 19.3671411,16.7952752 19.2125549,16.6985881 C19.0579688,16.6019011 18.9877034,16.4991726 19.0017567,16.3903997 L19.4233532,9.59212527 C19.4233532,9.5075241 19.5076716,9.46824557 19.676311,9.47428851 C19.8449505,9.48033145 20.0241272,9.51658855 20.2138465,9.5830609 C20.4035659,9.64953325 20.5757161,9.73111173 20.7303022,9.82779878 C20.8848884,9.92448583 20.9551537,10.0272143 20.9411005,10.1359872 L20.519504,16.9161329 Z M25.4491668,6.63157895 L23.8571429,6.42943621 L24.2933138,2.00067267 C24.2933138,1.91491472 24.3769124,1.8812246 24.5441121,1.89960131 C24.7113118,1.91797801 24.8894132,1.96085634 25.0784215,2.02823759 C25.2674299,2.09561884 25.4382618,2.18443824 25.5909224,2.29469847 C25.743583,2.40495869 25.8126427,2.50909179 25.7981036,2.60710088 L25.4491668,6.63157895 Z M19.0018964,2.60710088 C18.9873573,2.50909179 19.056417,2.40495869 19.2090776,2.29469847 C19.3617382,2.18443824 19.5325701,2.09561884 19.7215785,2.02823759 C19.9105868,1.96085634 20.0850535,1.91797801 20.2449836,1.89960131 C20.4049138,1.8812246 20.4921471,1.91491472 20.5066862,2.00067267 L20.9428571,6.42943621 L19.3508332,6.63157895 L19.0018964,2.60710088 Z M28.7142857,14.2105263 L32.6,14.2105263 L32.6,13.2631579 L28.7142857,13.2631579 L28.7142857,14.2105263 Z M28.7142857,11.3684211 L32.6,11.3684211 L32.6,10.4210526 L28.7142857,10.4210526 L28.7142857,11.3684211 Z M44.6819386,2.92194207 L46.1923234,2.92194207 L46.1923234,0.198097781 C46.1923234,0.0728629343 46.2981223,0.00711562612 46.5097231,0.000853883798 C46.721324,-0.00540785853 46.9584594,0.0227695593 47.2211363,0.0853869825 C47.4838132,0.148004406 47.7209486,0.241929132 47.9325494,0.367163978 C48.1441503,0.492398825 48.2499491,0.63015509 48.2499491,0.780436905 L48.2499491,2.92194207 L51.2269395,2.92194207 C51.4166507,2.92194207 51.5698766,3.00021268 51.6866219,3.15675624 C51.8033672,3.31329979 51.8872766,3.48862595 51.9383527,3.68273996 C51.9894288,3.87685397 52.0076699,4.05218013 51.9930768,4.20872369 C51.9784836,4.36526724 51.9347048,4.44353785 51.861739,4.44353785 L48.2499491,4.44353785 L48.2499491,7.41158887 L52.1681939,7.41158887 C52.357905,7.41158887 52.5111309,7.4929903 52.6278762,7.6557956 C52.7446215,7.8186009 52.8285309,7.99392706 52.879607,8.18177933 C52.9306831,8.3696316 52.9489243,8.54495775 52.9343311,8.70776305 C52.9197379,8.87056835 52.8759591,8.95196978 52.8029933,8.95196978 L49.9354511,8.95196978 L49.9354511,12.7841369 C49.9354511,13.2224589 50.1908276,13.4416166 50.7015883,13.4416166 L51.380167,13.4416166 C51.6136576,13.4416166 51.8070141,13.3664768 51.9602423,13.216195 C52.1134705,13.0659132 52.1098223,12.8404938 51.9492975,12.5399302 C52.2995334,12.715259 52.5622064,12.9344167 52.7373244,13.1974099 C52.9124423,13.460403 53,13.7139998 53,13.9582077 C53,14.2024157 52.9197388,14.4153117 52.759214,14.5969023 C52.5986892,14.7784928 52.3579056,14.8692867 52.036856,14.8692867 L49.4319895,14.8692867 C48.9796014,14.8692867 48.6038331,14.7471845 48.3046732,14.5029766 C48.0055134,14.2587686 47.8559357,13.9425554 47.8559357,13.5543274 L47.8559357,8.95196978 L46.1704338,8.95196978 L43.5217879,15.0195678 C43.4780084,15.1322791 43.3466719,15.1761107 43.1277745,15.1510637 C42.9088771,15.1260167 42.6790382,15.0634002 42.438251,14.9632124 C42.1974638,14.8630245 41.9931626,14.7346607 41.8253412,14.5781171 C41.6575198,14.4215736 41.6100928,14.2744248 41.6830586,14.1366665 L43.9158014,8.95196978 L42.2521891,8.95196978 C42.0916643,8.95196978 41.9384384,8.87056835 41.7925067,8.70776305 C41.6465751,8.54495775 41.5334798,8.3696316 41.4532174,8.18177933 C41.372955,7.99392706 41.3364726,7.8186009 41.3437692,7.6557956 C41.3510658,7.4929903 41.4276788,7.41158887 41.5736104,7.41158887 L46.1923234,7.41158887 L46.1923234,4.44353785 L44.0471392,4.44353785 L43.3466709,6.22812549 C43.3174845,6.29074291 43.200741,6.30326621 42.9964367,6.26569576 C42.7921324,6.2281253 42.5805347,6.15611635 42.3616373,6.04966673 C42.1427398,5.94321711 41.9530315,5.81485331 41.7925067,5.6645715 C41.631982,5.51428968 41.5882031,5.36401012 41.6611689,5.2137283 L43.3904501,0.968288236 C43.4342296,0.855576874 43.5582696,0.818006984 43.7625739,0.855577438 C43.9668782,0.893147891 44.1711794,0.974549321 44.3754837,1.09978417 C44.579788,1.22501901 44.7585516,1.37216775 44.9117798,1.54123479 C45.065008,1.71030184 45.1124351,1.85745057 45.0540624,1.98268542 L44.6819386,2.92194207 Z M41.8164472,17.811023 C41.4258191,17.811023 41.0614887,17.7490313 40.7234451,17.6250461 C40.3854015,17.5010608 40.0961908,17.3150857 39.8558042,17.0671152 L39.4952262,16.6579658 L38.0078418,17.9412069 C37.9026727,18.0279966 37.7561894,18.0186979 37.5683874,17.9133104 C37.3805854,17.8079229 37.2040542,17.6684416 37.0387884,17.4948622 C36.8735227,17.3212828 36.7533312,17.1353077 36.6782104,16.9369313 C36.6030896,16.7385549 36.6256255,16.5897748 36.7458188,16.4905866 L38.390956,15.1329547 L38.390956,6.89417495 L37.4219026,6.89417495 C37.2566368,6.89417495 37.0988855,6.81668532 36.9486439,6.66170374 C36.7984023,6.50672216 36.6819668,6.33314539 36.5993339,6.14096822 C36.5167011,5.94879106 36.4791412,5.77521429 36.4866533,5.62023271 C36.4941654,5.46525113 36.573041,5.3877615 36.7232826,5.3877615 L38.6163173,5.3877615 L39.292401,4.73684211 L40.892466,5.68532465 L40.5093519,6.09447398 L40.5093519,15.0213685 L41.5009414,16.0070464 C41.6962555,16.1930243 41.9741983,16.2860119 42.3347781,16.2860119 L52.2281376,16.2860119 C52.4234517,16.2860119 52.581203,16.3666011 52.7013963,16.527782 C52.8215895,16.6889628 52.9042212,16.8625396 52.9492937,17.0485175 C52.9943661,17.2344954 53.0093901,17.4080721 52.9943659,17.569253 C52.9793417,17.7304338 52.9342699,17.811023 52.8591491,17.811023 L41.8164472,17.811023 Z M37.6347756,1.88481696 C37.4867477,1.75783921 37.4312381,1.57442966 37.468245,1.3345828 C37.505252,1.09473593 37.5903668,0.861946885 37.723592,0.636208663 C37.8568171,0.410470441 38.0085435,0.234115101 38.1787756,0.107137351 C38.3490078,-0.019840399 38.5007341,-0.0339488262 38.6339593,0.0648116459 L41.3428571,2.2657483 L39.921796,3.78947368 L37.6347756,1.88481696 Z" id="精选" fill="#FFFFFF"></path>
                                        </g>
                                    </g>
                                </g>
                            </g>
                        </g>
                    </g>
                </g>
            </g>
        </g>
    </g>
</svg>