<?xml version="1.0" encoding="UTF-8"?>
<svg width="48px" height="48px" viewBox="0 0 48 48" version="1.1" xmlns="http://www.w3.org/2000/svg" xmlns:xlink="http://www.w3.org/1999/xlink">
    <!-- Generator: Sketch 52.5 (67469) - http://www.bohemiancoding.com/sketch -->
    <title>分组 62@2x</title>
    <desc>Created with Sketch.</desc>
    <defs>
        <linearGradient x1="54.9078125%" y1="100%" x2="54.2177083%" y2="0%" id="linearGradient-1">
            <stop stop-color="#1AC6A4" offset="0%"></stop>
            <stop stop-color="#20AFD0" offset="100%"></stop>
        </linearGradient>
        <circle id="path-2" cx="20" cy="20" r="20"></circle>
    </defs>
    <g id="Page-1" stroke="none" stroke-width="1" fill="none" fill-rule="evenodd">
        <g id="个人中心" transform="translate(-265.000000, -995.000000)">
            <g id="分组-62" transform="translate(265.000000, 995.000000)">
                <rect id="矩形-copy-9" fill="#FFFFFF" fill-rule="nonzero" x="0" y="0" width="48" height="48"></rect>
                <g id="分组-50" transform="translate(4.000000, 4.000000)">
                    <g id="路径-7">
                        <mask id="mask-3" fill="white">
                            <use xlink:href="#path-2"></use>
                        </mask>
                        <use id="Mask" fill="url(#linearGradient-1)" fill-rule="nonzero" opacity="0.7" xlink:href="#path-2"></use>
                        <path d="M8.79253371,36.5672099 C3.48669926,32.9708782 0,26.8926202 0,20 C0,8.954305 8.954305,0 20,0 C20.8981508,0 21.782474,0.0592030801 22.6492799,0.173919658 L8.79253371,36.5672099 Z" id="路径" fill="#FFFFFF" fill-rule="nonzero" opacity="0.1" mask="url(#mask-3)"></path>
                    </g>
                    <path d="M21.5,18.876917 L26.6503471,21.2785633 C27.3616407,21.6102449 27.669377,22.4557435 27.3376954,23.1670371 C27.0060137,23.8783308 26.1605151,24.1860671 25.4492215,23.8543854 L19.496323,21.0785032 C18.9156484,20.8715504 18.5,20.3168957 18.5,19.6651611 L18.5,13.6651611 C18.5,12.836734 19.1715729,12.1651611 20,12.1651611 C20.8284271,12.1651611 21.5,12.836734 21.5,13.6651611 L21.5,18.876917 Z" id="合并形状" fill="#FFFFFF" fill-rule="nonzero"></path>
                </g>
            </g>
        </g>
    </g>
</svg>