<?xml version="1.0" encoding="UTF-8"?>
<svg width="48px" height="48px" viewBox="0 0 48 48" version="1.1" xmlns="http://www.w3.org/2000/svg" xmlns:xlink="http://www.w3.org/1999/xlink">
    <!-- Generator: Sketch 52.5 (67469) - http://www.bohemiancoding.com/sketch -->
    <title>分组 55</title>
    <desc>Created with Sketch.</desc>
    <g id="Page-1" stroke="none" stroke-width="1" fill="none" fill-rule="evenodd">
        <g id="产品详情" transform="translate(-216.000000, -5290.000000)" fill-rule="nonzero">
            <g id="分组-3" transform="translate(0.000000, 5282.000000)">
                <g id="分组-43" transform="translate(24.000000, 8.000000)">
                    <g id="分组-55" transform="translate(192.000000, 0.000000)">
                        <rect id="矩形-copy-4" fill="#FFFFFF" x="0" y="0" width="48" height="48"></rect>
                        <path d="M21.1029868,35.5535398 C22.9023796,34.5485787 25.0972029,34.5485787 26.8965958,35.5535398 L33.1575388,39.0502772 L31.8717233,31.0861144 C31.5764273,29.2570924 32.1610779,27.3961609 33.4504792,26.0609651 L39.0383446,20.2746401 L31.6411245,19.1327635 C29.6824715,18.8304148 28.0055227,17.5723083 27.1732342,15.7807936 L23.9997913,8.94990564 L20.8263484,15.7807936 C19.9940599,17.5723083 18.3171111,18.8304148 16.358458,19.1327635 L8.96123797,20.2746401 L14.5491034,26.0609651 C15.8385046,27.3961609 16.4231552,29.2570924 16.1278593,31.0861144 L14.8420438,39.0502772 L21.1029868,35.5535398 Z M22.551389,38.1258756 L16.2904461,41.622613 C14.8639853,42.4192915 13.0591386,41.9134531 12.2592081,40.4927913 C11.9324183,39.9124187 11.812297,39.2390403 11.9183636,38.5820786 L13.2041791,30.6179158 C13.351827,29.7034048 13.0595017,28.772939 12.4148011,28.1053411 L6.82693569,22.3190161 C5.69324923,21.1450654 5.72977444,19.2780921 6.90851704,18.1490144 C7.34744923,17.728576 7.90586519,17.4531422 8.50767504,17.3602434 L15.9048951,16.2183668 C16.8842216,16.0671925 17.722696,15.4381392 18.1388403,14.5423819 L21.3122832,7.71149393 C21.9990309,6.23325816 23.7589883,5.58936712 25.243258,6.27332302 C25.8806061,6.56701491 26.3924087,7.07673684 26.6872994,7.71149393 L29.8607423,14.5423819 C30.2768865,15.4381392 31.1153609,16.0671925 32.0946875,16.2183668 L39.4919075,17.3602434 C41.1080545,17.609721 42.2151334,19.1167823 41.9646375,20.7263592 C41.8713595,21.3257225 41.5948014,21.8818683 41.1726469,22.3190161 L35.5847815,28.1053411 C34.9400809,28.772939 34.6477555,29.7034048 34.7954035,30.6179158 L36.081219,38.5820786 C36.3408535,40.1902184 35.2423525,41.7034929 33.6276485,41.9620719 C32.9680052,42.0677073 32.2918782,41.9480743 31.7091365,41.622613 L25.4481935,38.1258756 C24.5484971,37.623395 23.4510855,37.623395 22.551389,38.1258756 Z" id="Mask" fill="#000000"></path>
                    </g>
                </g>
            </g>
        </g>
    </g>
</svg>