<?xml version="1.0" encoding="UTF-8"?>
<svg width="108px" height="108px" viewBox="0 0 108 108" version="1.1" xmlns="http://www.w3.org/2000/svg" xmlns:xlink="http://www.w3.org/1999/xlink">
    <!-- Generator: Sketch 52.5 (67469) - http://www.bohemiancoding.com/sketch -->
    <title>分组 65</title>
    <desc>Created with Sketch.</desc>
    <defs>
        <linearGradient x1="50%" y1="0%" x2="50%" y2="100%" id="linearGradient-1">
            <stop stop-color="#FBC91E" stop-opacity="0.181017889" offset="0%"></stop>
            <stop stop-color="#FCCD29" stop-opacity="0" offset="100%"></stop>
        </linearGradient>
        <linearGradient x1="50%" y1="0%" x2="50%" y2="100%" id="linearGradient-2">
            <stop stop-color="#F74120" offset="0%"></stop>
            <stop stop-color="#F48A52" offset="100%"></stop>
        </linearGradient>
        <filter x="-12.0%" y="-12.7%" width="124.1%" height="125.5%" filterUnits="objectBoundingBox" id="filter-3">
            <feOffset dx="0" dy="1" in="SourceAlpha" result="shadowOffsetOuter1"></feOffset>
            <feGaussianBlur stdDeviation="1" in="shadowOffsetOuter1" result="shadowBlurOuter1"></feGaussianBlur>
            <feColorMatrix values="0 0 0 0 1   0 0 0 0 0.561509012   0 0 0 0 0.373066604  0 0 0 0.606034873 0" type="matrix" in="shadowBlurOuter1" result="shadowMatrixOuter1"></feColorMatrix>
            <feMerge>
                <feMergeNode in="shadowMatrixOuter1"></feMergeNode>
                <feMergeNode in="SourceGraphic"></feMergeNode>
            </feMerge>
        </filter>
        <linearGradient x1="50%" y1="0%" x2="50%" y2="100%" id="linearGradient-4">
            <stop stop-color="#FBC715" offset="0%"></stop>
            <stop stop-color="#FFDF66" offset="100%"></stop>
        </linearGradient>
        <path d="M44,-3.55271368e-14 C44,1.65685425 45.3431458,3 47,3 C48.6568542,3 50,1.65685425 50,-3.55271368e-14 L54,-3.55271368e-14 L54,37 L27,50.1933594 L0,37 L0,-3.55271368e-14 L4,-3.55271368e-14 C4,1.65685425 5.34314575,3 7,3 C8.65685425,3 10,1.65685425 10,-3.55271368e-14 L14,-3.55271368e-14 C14,1.65685425 15.3431458,3 17,3 C18.6568542,3 20,1.65685425 20,-3.55271368e-14 L24,-3.55271368e-14 C24,1.65685425 25.3431458,3 27,3 C28.6568542,3 30,1.65685425 30,-3.55271368e-14 L34,-3.55271368e-14 C34,1.65685425 35.3431458,3 37,3 C38.6568542,3 40,1.65685425 40,-3.55271368e-14 L44,-3.55271368e-14 Z" id="path-5"></path>
        <linearGradient x1="50%" y1="0%" x2="50%" y2="100%" id="linearGradient-7">
            <stop stop-color="#FFE381" offset="0%"></stop>
            <stop stop-color="#FFE279" offset="100%"></stop>
        </linearGradient>
        <linearGradient x1="50%" y1="0%" x2="50%" y2="100%" id="linearGradient-8">
            <stop stop-color="#FDCF2D" offset="0%"></stop>
            <stop stop-color="#FFE279" offset="100%"></stop>
        </linearGradient>
        <linearGradient x1="42.4729113%" y1="162.270207%" x2="42.4729113%" y2="0%" id="linearGradient-9">
            <stop stop-color="#CDB946" offset="0%"></stop>
            <stop stop-color="#9E8322" offset="100%"></stop>
        </linearGradient>
        <linearGradient x1="50%" y1="-20.1375773%" x2="50%" y2="100%" id="linearGradient-10">
            <stop stop-color="#C5A11F" offset="0%"></stop>
            <stop stop-color="#82680D" offset="100%"></stop>
        </linearGradient>
        <filter x="-17.3%" y="-60.2%" width="134.5%" height="220.4%" filterUnits="objectBoundingBox" id="filter-11">
            <feGaussianBlur stdDeviation="3" in="SourceGraphic"></feGaussianBlur>
        </filter>
    </defs>
    <g id="Page-1" stroke="none" stroke-width="1" fill="none" fill-rule="evenodd">
        <g id="个人中心" transform="translate(-249.000000, -1228.000000)">
            <g id="分组-43" transform="translate(30.000000, 1136.000000)">
                <g id="分组-12" transform="translate(30.000000, 92.000000)">
                    <g id="分组-65" transform="translate(189.000000, 0.000000)">
                        <rect id="矩形" fill="#FFFFFF" fill-rule="nonzero" x="0" y="0" width="108" height="108"></rect>
                        <g id="分组-28" transform="translate(8.000000, 8.000000)">
                            <circle id="椭圆形" fill="url(#linearGradient-1)" fill-rule="nonzero" cx="47" cy="47" r="45"></circle>
                            <g id="分组-27" transform="translate(14.000000, 17.000000)">
                                <path d="M3.55271368e-14,28.4589844 C10.6861979,22.8196615 21.6861979,20 33,20 C44.3138021,20 55.3138021,22.8196615 66,28.4589844 L66,60.4589844 C55.2259115,70.1529948 44.2259115,75 33,75 C21.7740885,75 10.7740885,70.1529948 3.55271368e-14,60.4589844 L3.55271368e-14,28.4589844 Z" id="矩形" fill="url(#linearGradient-2)" fill-rule="nonzero"></path>
                                <g id="矩形" filter="url(#filter-3)" transform="translate(6.000000, 0.000000)">
                                    <mask id="mask-6" fill="white">
                                        <use xlink:href="#path-5"></use>
                                    </mask>
                                    <use id="Mask" fill="url(#linearGradient-4)" fill-rule="nonzero" xlink:href="#path-5"></use>
                                    <rect id="合并形状" fill="url(#linearGradient-7)" fill-rule="nonzero" mask="url(#mask-6)" x="5" y="6" width="44" height="47"></rect>
                                    <circle id="椭圆形" fill="url(#linearGradient-8)" fill-rule="nonzero" opacity="0.6" mask="url(#mask-6)" cx="9" cy="12" r="2"></circle>
                                    <circle id="椭圆形" fill="url(#linearGradient-8)" fill-rule="nonzero" opacity="0.6" mask="url(#mask-6)" cx="16.2" cy="12" r="2"></circle>
                                    <circle id="椭圆形" fill="url(#linearGradient-8)" fill-rule="nonzero" opacity="0.6" mask="url(#mask-6)" cx="23.4" cy="12" r="2"></circle>
                                    <circle id="椭圆形" fill="url(#linearGradient-8)" fill-rule="nonzero" opacity="0.6" mask="url(#mask-6)" cx="30.6" cy="12" r="2"></circle>
                                    <circle id="椭圆形" fill="url(#linearGradient-8)" fill-rule="nonzero" opacity="0.6" mask="url(#mask-6)" cx="37.8" cy="12" r="2"></circle>
                                    <circle id="椭圆形" fill="url(#linearGradient-8)" fill-rule="nonzero" opacity="0.6" mask="url(#mask-6)" cx="45" cy="12" r="2"></circle>
                                    <path d="M15.385,17.03 L14.995,18.889 L19.662,18.889 L19.012,20.527 L14.657,20.527 L13.292,27.17 L11.329,27.17 L12.694,20.527 L10.614,20.527 L11.264,18.889 L13.032,18.889 L13.409,17.03 L15.385,17.03 Z M10.991,17.043 L9.821,20.215 L10.25,20.215 L10.25,27.17 L8.352,27.17 L8.352,21.879 L7.182,21.879 L8.95,17.043 L10.991,17.043 Z M17.712,20.956 L17.712,25.116 C17.712,25.2286672 17.748833,25.321833 17.8225,25.3955 C17.896167,25.469167 17.9893328,25.506 18.102,25.506 L19.818,25.506 L19.207,27.17 L16.958,27.17 C16.8019992,27.17 16.6525007,27.139667 16.5095,27.079 C16.3664993,27.018333 16.2430005,26.9360005 16.139,26.832 C16.0349995,26.7279995 15.952667,26.6066674 15.892,26.468 C15.831333,26.3293326 15.801,26.1820008 15.801,26.026 L15.801,20.956 L17.712,20.956 Z M18.167,17.095 L18.583,18.473 L16.672,18.473 L16.256,17.095 L18.167,17.095 Z M25.863,17.329 L25.863,17.004 L27.761,17.004 L27.761,17.329 L32.74,17.329 L32.09,18.577 L27.761,18.577 L27.761,18.902 L31.505,18.902 C31.7650013,18.902 31.9708326,18.9648327 32.1225,19.0905 C32.2741674,19.2161673 32.35,19.3786657 32.35,19.578 L32.35,21.164 C32.35,21.2593338 32.3175003,21.3459996 32.2525,21.424 C32.1874997,21.5020004 32.1030005,21.5756663 31.999,21.645 L31.154,22.256 C31.0673329,22.3253337 30.9655006,22.3686666 30.8485,22.386 C30.7314994,22.4033334 30.6123339,22.412 30.491,22.412 L27.761,22.412 L27.761,22.789 L30.387,22.789 L30.14,24.024 L20.442,24.024 L21.04,22.789 L25.863,22.789 L25.863,22.412 L21.703,22.412 C21.4256653,22.412 21.2263339,22.3470007 21.105,22.217 C20.9836661,22.0869994 20.923,21.9093345 20.923,21.684 L20.923,18.876 L22.821,18.876 L22.821,21.151 C22.821,21.2030003 22.8383332,21.2484998 22.873,21.2875 C22.9076668,21.3265002 22.9509997,21.346 23.003,21.346 L25.863,21.346 L25.863,21.06 L23.029,21.06 L23.38,20.228 L25.863,20.228 L25.863,19.968 L23.029,19.968 L23.38,18.902 L25.863,18.902 L25.863,18.577 L20.247,18.577 L20.91,17.329 L25.863,17.329 Z M25.239,24.271 L25.239,25.493 C25.239,25.5970005 25.275833,25.6836663 25.3495,25.753 C25.423167,25.8223337 25.5163328,25.857 25.629,25.857 L30.153,25.857 L29.464,27.183 L24.407,27.183 C24.0343315,27.183 23.7591676,27.0811677 23.5815,26.8775 C23.4038324,26.6738323 23.315,26.4333347 23.315,26.156 L23.315,24.271 L25.239,24.271 Z M22.691,24.271 L22.171,27.183 L20.299,27.183 L20.806,24.271 L22.691,24.271 Z M32.012,24.323 L32.701,27.183 L30.829,27.183 L30.127,24.323 L32.012,24.323 Z M30.829,24.024 L30.452,22.581 L32.311,22.581 L32.688,24.024 L30.829,24.024 Z M28.346,24.271 L28.762,25.571 L26.812,25.571 L26.396,24.271 L28.346,24.271 Z M30.257,21.346 C30.3090003,21.346 30.3544998,21.3265002 30.3935,21.2875 C30.4325002,21.2484998 30.452,21.2030003 30.452,21.151 L30.452,21.06 L27.761,21.06 L27.761,21.346 L30.257,21.346 Z M27.761,19.968 L27.761,20.228 L30.452,20.228 L30.452,20.163 C30.452,20.1109997 30.4325002,20.0655002 30.3935,20.0265 C30.3544998,19.9874998 30.3090003,19.968 30.257,19.968 L27.761,19.968 Z M34.313,24.245 L34.521,23.699 L33.26,23.699 L34.599,21.957 L33.195,21.957 L33.689,20.371 L35.808,20.371 L36.146,19.929 L33.702,19.929 L34.196,18.421 L37.303,18.421 L38.317,17.108 L40.592,17.108 L39.578,18.421 L45.35,18.421 L44.895,19.929 L38.421,19.929 L38.083,20.371 L45.857,20.371 L45.324,21.957 L44.596,21.957 L45.831,23.699 L44.349,23.699 L44.141,24.245 L34.313,24.245 Z M44.154,26.273 C44.154,26.5503347 44.0760008,26.7713325 43.92,26.936 C43.7639992,27.1006675 43.5473347,27.183 43.27,27.183 L39.214,27.183 L39.812,25.519 L41.957,25.519 C42.0350004,25.519 42.0999997,25.4930003 42.152,25.441 C42.2040003,25.3889997 42.23,25.3110005 42.23,25.207 L42.23,24.544 L44.154,24.544 L44.154,26.273 Z M37.55,24.544 L36.198,27.183 L34.222,27.183 L35.574,24.544 L37.55,24.544 Z M36.328,22.659 L42.828,22.659 L42.321,21.957 L36.874,21.957 L36.328,22.659 Z M44.518,17.186 L44.05,18.226 L41.944,18.226 L42.412,17.186 L44.518,17.186 Z M36.64,17.186 L37.03,18.226 L34.937,18.226 L34.547,17.186 L36.64,17.186 Z" id="优惠券" fill="url(#linearGradient-9)" mask="url(#mask-6)"></path>
                                    <path d="M25.7,47.43 C25.7,50.04 25.31,51.27 24.68,52.23 C23.75,53.67 22.1,54.24 20.33,54.24 C18.32,54.24 16.88,53.49 16.07,52.23 C15.29,50.97 15.02,49.68 15.02,47.43 C15.02,45.78 15.41,44.01 15.89,42.78 L19.82,32.64 L24.02,32.64 L20.48,40.95 C20.78,40.77 21.23,40.74 21.53,40.74 C22.73,40.74 23.84,41.22 24.59,42.24 C25.37,43.29 25.7,44.58 25.7,47.43 Z M21.68,47.37 C21.68,46.74 21.74,45.15 21.32,44.52 C21.08,44.19 20.75,44.04 20.36,44.04 C19.97,44.04 19.61,44.22 19.4,44.52 C18.98,45.18 19.04,46.77 19.04,47.37 C19.04,48 18.98,49.5 19.4,50.16 C19.61,50.46 19.97,50.64 20.36,50.64 C20.75,50.64 21.11,50.46 21.32,50.16 C21.74,49.53 21.68,48 21.68,47.37 Z M38.36,49.02 C38.36,50.88 37.85,51.96 36.89,52.86 C35.93,53.79 34.52,54.24 33.08,54.24 C31.64,54.24 30.23,53.79 29.27,52.86 C28.31,51.96 27.8,50.88 27.8,49.02 L27.8,37.62 C27.8,35.76 28.31,34.68 29.27,33.78 C30.23,32.85 31.64,32.4 33.08,32.4 C34.52,32.4 35.93,32.85 36.89,33.78 C37.85,34.68 38.36,35.76 38.36,37.62 L38.36,49.02 Z M34.34,49.17 L34.34,37.47 C34.34,36.48 33.8,36 33.08,36 C32.36,36 31.82,36.48 31.82,37.47 L31.82,49.17 C31.82,50.16 32.36,50.64 33.08,50.64 C33.8,50.64 34.34,50.16 34.34,49.17 Z" id="60" fill="url(#linearGradient-10)" mask="url(#mask-6)"></path>
                                    <path d="M51.083998,39.8579609 C51.8330755,39.504161 52.7271343,39.8245968 53.0809342,40.5736743 C53.4347341,41.3227518 53.1142983,42.2168106 52.3652208,42.5706105 L26.7616666,54.6635317 L1.90592437,42.5629549 C1.16107497,42.2003381 0.851214155,41.3025595 1.21383086,40.5577101 C1.57644757,39.8128607 2.47422623,39.5029999 3.21907563,39.8656166 L26.7813021,51.3364683 L51.083998,39.8579609 Z" id="路径-5" fill-opacity="0.748046875" fill="#503F06" fill-rule="nonzero" filter="url(#filter-11)" mask="url(#mask-6)"></path>
                                </g>
                            </g>
                            <circle id="椭圆形" fill="#FEEC11" fill-rule="nonzero" cx="8" cy="13" r="2"></circle>
                            <circle id="椭圆形" fill="#FEEC11" fill-rule="nonzero" cx="56" cy="4" r="4"></circle>
                            <circle id="椭圆形" fill="#FEEC11" fill-rule="nonzero" cx="86" cy="25" r="2"></circle>
                            <circle id="椭圆形" fill="#FEEC11" fill-rule="nonzero" cx="2" cy="35" r="2"></circle>
                        </g>
                    </g>
                </g>
            </g>
        </g>
    </g>
</svg>