<?xml version="1.0" standalone="no"?><!DOCTYPE svg PUBLIC "-//W3C//DTD SVG 1.1//EN" "http://www.w3.org/Graphics/SVG/1.1/DTD/svg11.dtd"><svg t="1574149430367" class="icon" viewBox="0 0 1186 1024" version="1.1" xmlns="http://www.w3.org/2000/svg" p-id="5847" xmlns:xlink="http://www.w3.org/1999/xlink" width="148.25" height="128"><defs><style type="text/css"></style></defs><path d="M512 760.584009c-57.548088 0-113.316338-20.171495-157.812283-56.954809l-10.679026 13.052144c47.462341 38.563152 107.383546 59.921205 168.491309 59.921205 127.555041 0 237.311703-91.365006 261.636153-215.95365l-17.205099-2.966396c-22.544612 118.062572-125.775203 202.901506-244.431054 202.901506m168.491309-455.045191c-47.462341-38.563152-107.383546-59.921205-168.491309-59.921205-127.555041 0-237.311703 91.365006-261.636153 215.95365l17.205099 2.966396c21.358053-116.876014 124.588644-201.714948 244.431054-201.714948 57.548088 0 113.316338 20.171495 157.812283 56.954809l10.679026-14.238702m150.099653 390.971031l-17.205099-14.831981-6.526072 23.73117-21.358053 13.052144 20.171495 13.052144 4.152955 23.73117 19.578215-14.831982 23.731171 2.373118c-74.159907 109.163384-198.748552 182.136732-339.949015 182.136732-226.632677 0-409.955968-183.323291-409.955968-409.955968s183.323291-409.955968 409.955968-409.955967 409.955968 183.323291 409.955967 409.955967c0 83.652375-25.511008 161.965238-68.820394 227.225956l-7.71263-21.358053 10.679026-22.544612-26.697566-1.779838M512 82.465817c-237.311703 0-428.940904 192.22248-428.940904 428.940904s192.22248 428.940904 428.940904 428.940904 428.940904-192.22248 428.940904-428.940904c-1.186559-236.718424-192.815759-428.940904-428.940904-428.940904m0 907.123986c-262.822711 0-477.589803-214.767092-477.589803-477.589803S249.177289 34.410197 512 34.410197s477.589803 213.580533 477.589803 477.589803c-0.593279 262.822711-214.767092 477.589803-477.589803 477.589803M512 0C229.599073 0 0 229.599073 0 512s229.599073 512 512 512 512-229.599073 512-512S793.807648 0 512 0M362.493627 812.199305l-17.205099-17.205099-7.71263 22.544612-21.358053 10.679027 19.578215 14.831981 4.152955 23.731171 19.578216-14.238703 23.73117 4.152955-7.71263-23.73117 10.679026-21.358054-23.73117 0.59328m181.543453 26.697566l-23.73117 6.526072-21.358054-11.865585v23.73117l-17.205098 16.01854 23.73117 8.30591 10.679027 21.358053 14.238702-18.391657 23.73117-2.966396-13.052143-19.578216 2.966396-23.137891m150.099652-41.529548l-18.391657 14.831982-24.917729-2.373117 9.492469 21.358053-9.492469 21.358053 24.917729-2.373117 18.391657 14.831982 5.339514-22.544612 21.358053-11.865585-21.358053-11.865585-5.339514-21.358054M230.785632 333.422943l17.205098 17.205099 8.30591-22.544612 22.544611-10.679027-19.578215-14.238702-2.966396-23.73117-20.171495 14.238702-23.73117-2.966396 6.526071 22.544611-11.865585 21.358054 23.731171-1.186559m253.923522-142.387022l23.73117-6.526072 22.544612 11.865586v-23.731171l17.205099-16.01854-23.731171-8.305909-11.865585-21.358054-14.238702 18.391657-24.32445 2.966397 14.831982 19.578215-4.152955 23.137891m193.409038 27.884125l17.205099 17.205099 7.71263-22.544612 21.358054-10.679027-20.171495-14.831981-4.152955-23.73117-19.578216 14.238702-23.73117-4.152955 7.71263 23.73117-10.679026 21.358054 24.324449-0.59328m-344.695249 25.511008l19.578216-14.831981 24.917729 2.373117-10.085748-21.951333 9.492468-21.358053-24.917729 2.373117-19.578215-14.831981-5.339513 21.358053-21.358054 11.865585 21.358054 11.865585 5.932792 23.137891" fill="#FD6969" p-id="5848"></path><path d="M361.900348 488.862109l16.611819 40.936269-27.290846 11.272306-6.526072-16.01854-133.487833 54.581691 6.526072 16.01854-26.104288 10.679027-16.611819-40.936269 81.279259-33.223638c-4.152955-4.746234-8.899189-9.492468-13.052144-13.052144l24.32445-18.391657c6.526072 5.932793 15.425261 13.645423 20.171494 18.984936L361.900348 488.862109zM301.979143 570.734647l67.633835-27.884126 44.495944 107.976825-26.697566 10.679027-3.559676-8.899189-40.936269 16.611819 14.831982 35.596756-27.290846 11.272306-14.831982-35.596756-41.529548 17.205099 4.152955 10.085747-25.511008 10.085748-45.089224-108.570105 67.040557-27.290846L266.975666 563.615295l27.290846-11.272305 7.712631 18.391657z m-59.921206 51.022016l6.526072 16.01854 41.529548-17.205099-6.526071-16.01854-41.529549 17.205099z m63.480881 36.190035l-6.526072-16.01854-41.529548 17.205098 6.526072 16.01854 41.529548-17.205098z m5.339513-64.66744l6.526072 16.01854 40.936269-16.611819-6.526072-16.01854-40.936269 16.611819z m63.480881 36.783314l-6.526072-16.01854-40.936269 16.61182 6.526072 16.01854 40.936269-16.61182zM494.201622 560.648899c-4.746234-5.339513-12.458864-12.458864-19.578215-18.984936l40.936269 99.670915-24.917729 10.085748L456.825029 570.734647c1.186559 18.391657 0.593279 36.190035-2.373117 49.242178-5.339513-6.526072-16.01854-16.01854-23.137891-21.358053 6.526072-22.544612 5.339513-58.141367 1.186558-87.212051L405.803013 522.085747l-9.492468-23.73117 26.697566-10.679027-16.611819-40.936268 24.917729-10.085748 16.611819 40.936269 21.951333-8.899189 10.085747 24.32445-21.951333 8.899189 2.966397 7.119351c9.492468 5.339513 35.003476 24.32445 41.529548 28.477404l-8.30591 23.137891z m99.670916-109.163383c-5.932793 43.902665-27.884125 90.178447-61.701043 125.775202-5.339513-4.152955-16.01854-11.272306-22.544612-14.238702 16.611819-16.611819 30.850521-36.190035 40.34299-55.76825-32.03708 16.01854-38.563152 20.171495-42.716107 24.32445-3.559676-5.932793-11.865585-16.611819-16.01854-21.358054 4.746234-2.966396 11.865585-8.30591 14.238702-14.238702 1.779838-5.339513 4.746234-21.951333 7.119351-35.596755l-36.190035 14.831981-9.492468-23.73117 51.615296-20.764774c-4.746234-5.932793-10.679027-12.458864-16.01854-17.205099l21.358053-17.798378c8.30591 6.526072 17.798378 16.01854 23.137891 23.731171l44.495945-18.391657 9.492468 23.73117-60.514485 24.917729c-2.373117 13.052144-4.746234 27.884125-7.119351 40.936269l28.477405-13.052144c1.779838-7.71263 3.559676-16.01854 4.152955-23.73117l27.884125-2.373117z m33.223638 37.376593c-2.966396 18.391657-8.30591 36.783314-16.01854 54.581692 17.205098 4.746234 37.376593 11.272306 49.242179 16.611819l-13.052144 24.917729c-10.679027-5.932793-30.257242-13.645423-48.05562-18.984936-14.238702 23.137891-32.630359 45.089224-56.36153 64.074159-5.932793-4.746234-17.205098-11.865585-24.324449-16.01854 45.682503-35.003476 74.753187-82.465817 78.312862-124.588644l30.257242-0.593279zM805.079954 327.490151l45.089223 109.756662-27.290846 11.272306-4.746234-11.272306-49.835457 20.171495 27.884125 68.227115-27.884125 11.272306-27.884126-68.227115-49.242178 20.171495 4.746234 11.865585-26.104287 10.679027-45.089224-110.943222 75.939745-30.850521-15.425261-37.969873 27.884126-11.272305 15.42526 37.969872 76.533025-30.850521z m-74.753187 115.689455l-19.578215-47.462341-49.242179 20.171495 19.578216 47.462341 49.242178-20.171495z m77.126304-31.443801l-19.578216-47.46234-49.835458 20.171494 19.578216 47.462341 49.835458-20.171495z" fill="#FD6969" p-id="5849"></path></svg>