<?xml version="1.0" encoding="UTF-8"?>
<svg width="48px" height="48px" viewBox="0 0 48 48" version="1.1" xmlns="http://www.w3.org/2000/svg" xmlns:xlink="http://www.w3.org/1999/xlink">
    <!-- Generator: Sketch 52.5 (67469) - http://www.bohemiancoding.com/sketch -->
    <title>分组 61@2x</title>
    <desc>Created with Sketch.</desc>
    <defs>
        <linearGradient x1="54.9078125%" y1="100%" x2="54.2177083%" y2="0%" id="linearGradient-1">
            <stop stop-color="#1AC6A4" offset="0%"></stop>
            <stop stop-color="#20AFD0" offset="100%"></stop>
        </linearGradient>
        <rect id="path-2" x="0" y="0" width="36" height="40" rx="6"></rect>
    </defs>
    <g id="Page-1" stroke="none" stroke-width="1" fill="none" fill-rule="evenodd">
        <g id="个人中心" transform="translate(-92.000000, -995.000000)">
            <g id="分组-61" transform="translate(92.000000, 995.000000)">
                <rect id="矩形-copy-10" fill="#FFFFFF" fill-rule="nonzero" x="0" y="0" width="48" height="48"></rect>
                <g id="分组-46" transform="translate(6.000000, 4.000000)">
                    <g id="路径-7">
                        <mask id="mask-3" fill="white">
                            <use xlink:href="#path-2"></use>
                        </mask>
                        <use id="Mask" fill="url(#linearGradient-1)" fill-rule="nonzero" opacity="0.7" xlink:href="#path-2"></use>
                        <path d="M26.2384999,0 L11.0084989,40 L6,40 C2.6862915,40 -4.82366169e-16,37.3137085 -8.8817842e-16,34 L0,6 C-4.05812251e-16,2.6862915 2.6862915,6.08718376e-16 6,0 L26.2384999,0 Z" id="路径" fill="#FFFFFF" fill-rule="nonzero" opacity="0.1" mask="url(#mask-3)"></path>
                    </g>
                    <path d="M17.5693177,25.2392886 L16.0019127,26.0633222 C15.321012,26.4212929 14.4788403,26.1595064 14.1208696,25.4786057 C13.9783238,25.2074675 13.9291348,24.8969002 13.9809176,24.5949833 L14.2802653,22.8496521 C14.3915412,22.200864 14.1764442,21.5388636 13.705072,21.0793893 L12.4370147,19.8433389 C11.8861545,19.3063829 11.8748829,18.4245335 12.4118389,17.8736733 C12.6256576,17.6543178 12.9058244,17.5115657 13.2089661,17.4675167 L14.9613783,17.2128763 C15.6127986,17.1182194 16.1759298,16.7090806 16.4672538,16.1187937 L17.2509563,14.5308389 C17.5914067,13.8410111 18.4266121,13.5577848 19.1164399,13.8982351 C19.3911329,14.0338042 19.6134745,14.2561459 19.7490437,14.5308389 L20.5327462,16.1187937 C20.8240702,16.7090806 21.3872014,17.1182194 22.0386217,17.2128763 L23.7910339,17.4675167 C24.552304,17.5781357 25.0797609,18.2849415 24.9691419,19.0462116 C24.9250928,19.3493534 24.7823407,19.6295202 24.5629853,19.8433389 L23.294928,21.0793893 C22.8235558,21.5388636 22.6084588,22.200864 22.7197347,22.8496521 L23.0190824,24.5949833 C23.1491229,25.3531774 22.6399038,26.0732338 21.8817097,26.2032743 C21.5797928,26.2550571 21.2692256,26.205868 20.9980873,26.0633222 L19.4306823,25.2392886 C18.8480342,24.9329724 18.1519658,24.9329724 17.5693177,25.2392886 Z" id="星形" fill="#FFFFFF" fill-rule="nonzero"></path>
                </g>
            </g>
        </g>
    </g>
</svg>