<?xml version="1.0" encoding="UTF-8"?>
<svg width="44px" height="44px" viewBox="0 0 44 44" version="1.1" xmlns="http://www.w3.org/2000/svg" xmlns:xlink="http://www.w3.org/1999/xlink">
    <!-- Generator: Sketch 52.5 (67469) - http://www.bohemiancoding.com/sketch -->
    <title>分组 34@2x</title>
    <desc>Created with Sketch.</desc>
    <defs>
        <linearGradient x1="50%" y1="0%" x2="50%" y2="100%" id="linearGradient-1">
            <stop stop-color="#14D36F" offset="0%"></stop>
            <stop stop-color="#0ABD60" offset="100%"></stop>
        </linearGradient>
    </defs>
    <g id="Page-1" stroke="none" stroke-width="1" fill="none" fill-rule="evenodd">
        <g id="详情页2" transform="translate(-612.000000, -61.000000)" fill-rule="nonzero">
            <g id="分组-34" transform="translate(612.000000, 61.000000)">
                <circle id="椭圆形" fill="url(#linearGradient-1)" cx="22" cy="22" r="22"></circle>
                <g id="微信" transform="translate(8.800000, 12.466667)" fill="#FFFFFF">
                    <path d="M11.2521178,8.21612148 C12.9442113,6.49874936 15.1496175,5.42480469 17.6,5.42480469 C17.5437078,5.17541468 16.7395155,3.85388351 16.1891509,3.20980924 C12.8961916,-0.643866837 6.26746055,-1.10148013 2.42169772,2.23866348 C0.434795534,3.96438364 -0.392712383,6.12114352 0.175581334,8.67809995 C0.539469927,10.315146 1.57945763,11.5649955 2.93284237,12.5562785 C3.37401733,12.8795583 3.44547014,13.1686175 3.25589606,13.6338778 C3.02064229,14.2110084 2.8433286,14.8102836 2.6410328,15.4 C3.20777747,15.2793675 3.66576097,15.0960609 4.08752371,14.8537763 C5.07652548,14.2856629 6.05827651,13.9765939 7.24983779,14.3275306 C7.9692766,14.5392907 8.78178863,14.4559376 9.65774468,14.5118887 C9.02271111,12.0258588 9.54113948,9.95283429 11.2521178,8.21612148 Z M12.0006585,3.73509907 C12.6394822,3.72624122 13.0247934,4.0752024 13.0386028,4.67476439 C13.0528406,5.29299795 12.6931377,5.67108175 12.0774834,5.68503764 C11.3698765,5.70112836 10.8353647,5.28831415 10.8302892,4.72195319 C10.8254114,4.17694028 11.3386324,3.7441481 12.0006585,3.73509907 Z M5.93458537,5.68481458 C5.23591007,5.6871087 4.71751468,5.26218664 4.7254905,4.69375459 C4.73300491,4.15342551 5.24543493,3.74006964 5.91385485,3.73493974 C6.54437315,3.73025592 6.98175792,4.14163629 6.97243084,4.730811 C6.96336738,5.30351267 6.55063512,5.68296653 5.93458537,5.68481458 Z" id="形状"></path>
                    <path d="M24.4560524,8.62773583 C21.7421957,6.30379051 17.3194723,5.92995588 14.0974677,7.75242606 C9.93447107,10.1070739 9.97039146,14.9440404 14.1894076,17.2147015 C16.2159558,18.3054123 18.4078465,18.6107774 20.7115725,18.0582219 C21.1885871,17.9437741 21.574273,17.9768314 21.9932649,18.2077195 C22.5630682,18.5217792 23.1699123,18.7828567 23.7609351,19.0666667 C23.8032044,19.0386208 23.8454737,19.0105749 23.8877429,18.9824988 C23.7257617,18.4803896 23.5295236,17.9840769 23.4193519,17.4730317 C23.3778975,17.2810577 23.470143,17.0040705 23.6161672,16.8544219 C23.9919732,16.4697493 24.4660341,16.1606709 24.8409234,15.7752133 C27.0546108,13.4988766 26.8972809,10.7184383 24.4560524,8.62773583 Z M16.304874,11.3855322 C15.8116986,11.3922644 15.41267,11.0532079 15.4281517,10.6406706 C15.443294,10.2362843 15.803822,9.94945539 16.2956733,9.95063278 C16.8368896,9.95187056 17.2805302,10.2885119 17.2646411,10.685864 C17.2497704,11.0560155 16.8071823,11.3786792 16.304874,11.3855322 Z M21.2210784,11.3864379 C20.7736693,11.3804302 20.347921,11.0398642 20.3374301,10.6796148 C20.3261243,10.2940064 20.758527,9.94658741 21.2456591,9.94987807 C21.8019498,9.95371212 22.2044076,10.276889 22.1826448,10.7021663 C22.1631908,11.0817972 21.7254577,11.3932908 21.2210784,11.3864379 Z" id="形状"></path>
                </g>
            </g>
        </g>
    </g>
</svg>