<?xml version="1.0" encoding="UTF-8"?>
<svg width="60px" height="54px" viewBox="0 0 60 54" version="1.1" xmlns="http://www.w3.org/2000/svg" xmlns:xlink="http://www.w3.org/1999/xlink">
    <!-- Generator: Sketch 52.5 (67469) - http://www.bohemiancoding.com/sketch -->
    <title>微信支付</title>
    <desc>Created with Sketch.</desc>
    <g id="Page-1" stroke="none" stroke-width="1" fill="none" fill-rule="evenodd">
        <g id="消息" transform="translate(-30.000000, -632.000000)" fill="#13D06D">
            <g id="微信支付" transform="translate(30.000000, 632.000000)">
                <path d="M21.822353,33.9266048 C20.8670204,34.416165 19.7006292,34.0548324 19.1788235,33.1076744 L19.0482353,32.816221 L13.5864706,20.6735219 C13.3956751,20.253198 13.509917,19.7553155 13.864144,19.4633817 C14.218371,19.1714478 14.7227193,19.1595232 15.09,19.434398 L21.5347059,24.0833478 C22.3242925,24.608721 23.3130131,24.7234972 24.1994118,24.3926817 L54.5082353,10.7247694 C49.0729412,4.2394846 40.1258824,0 30,0 C13.4311765,0 0,11.3398613 0,25.3296239 C0,32.9628418 4.04117648,39.832559 10.3658824,44.4761446 C10.8741176,44.8426964 11.2058824,45.4452718 11.2058824,46.1265218 C11.2058824,46.3518171 11.1582353,46.5574437 11.1,46.7720105 L9.74823527,51.8822791 C9.68470588,52.1218789 9.5858823,52.3722069 9.58588236,52.622535 C9.58588236,53.182197 10.0341176,53.6363636 10.5864706,53.6363636 C10.7920192,53.6276857 10.9914194,53.5628108 11.1635294,53.4486176 L17.7317647,49.6078699 C18.2258824,49.3182045 18.7482353,49.1393988 19.3252941,49.1393988 C19.632353,49.1393988 19.9288235,49.1876763 20.207647,49.2735031 C23.2711764,50.1657438 26.5764705,50.6628239 30,50.6628239 C46.5688235,50.6628239 60,39.3211746 60,25.3314119 C60,21.0937154 58.7611765,17.1027709 56.5835294,13.5946019 L22.0411765,33.7996527 L21.822353,33.9266048 Z" id="路径"></path>
            </g>
        </g>
    </g>
</svg>