<?xml version="1.0" encoding="UTF-8"?>
<svg width="60px" height="60px" viewBox="0 0 60 60" version="1.1" xmlns="http://www.w3.org/2000/svg" xmlns:xlink="http://www.w3.org/1999/xlink">
    <!-- Generator: Sketch 52.5 (67469) - http://www.bohemiancoding.com/sketch -->
    <title>分组 34</title>
    <desc>Created with Sketch.</desc>
    <g id="Page-1" stroke="none" stroke-width="1" fill="none" fill-rule="evenodd">
        <g id="产品详情" transform="translate(-585.000000, -54.000000)" fill-rule="nonzero">
            <g id="分组-34" transform="translate(585.000000, 54.000000)">
                <circle id="椭圆形" fill="#000000" opacity="0.6" cx="30" cy="30" r="30"></circle>
                <g id="微信" transform="translate(12.000000, 17.000000)" fill="#FFFFFF">
                    <path d="M15.343797,11.203802 C17.6511972,8.86193095 20.6585693,7.39746094 24,7.39746094 C23.923238,7.05738365 22.826612,5.2552957 22.0761149,4.3770126 C17.5857158,-0.878000232 8.54653712,-1.50201836 3.30231507,3.05272293 C0.592903001,5.4059777 -0.535516887,8.34701389 0.239429092,11.8337727 C0.735640809,14.0661082 2.15380586,15.7704484 3.99933051,17.122198 C4.60093272,17.5630341 4.69836837,17.9572057 4.43985826,18.5916516 C4.11905767,19.3786478 3.87726628,20.1958413 3.60140836,21 C4.37424201,20.8355012 4.99876496,20.5855376 5.57389597,20.2551495 C6.92253474,19.4804494 8.26128615,19.0589917 9.88614244,19.5375417 C10.8671954,19.8263055 11.9751663,19.7126422 13.1696518,19.7889391 C12.303697,16.3988984 13.0106447,13.5720468 15.343797,11.203802 Z M16.3645343,5.09331692 C17.2356575,5.08123803 17.761082,5.55709418 17.7799129,6.37467871 C17.7993281,7.21772448 17.3088241,7.73329329 16.4692956,7.75232406 C15.5043771,7.77426595 14.7754973,7.21133748 14.7685762,6.43902707 C14.7619246,5.69582765 15.4617715,5.10565651 16.3645343,5.09331692 Z M8.09261642,7.75201988 C7.13987736,7.75514822 6.43297456,7.17570906 6.44385068,6.40057444 C6.45409761,5.66376206 7.15286581,5.10009497 8.06434752,5.09309965 C8.9241452,5.08671261 9.52057898,5.64768585 9.50786024,6.45110591 C9.49550098,7.23206273 8.93268426,7.74949981 8.09261642,7.75201988 Z" id="形状"></path>
                    <path d="M33.3491624,11.9277469 C29.6484487,8.57231784 23.6174622,8.03255662 19.2238195,10.6639307 C13.547006,14.0636896 13.5959884,21.047545 19.3491921,24.3260397 C22.112667,25.9008626 25.1016088,26.3417642 28.2430534,25.5439568 C28.8935279,25.3787113 29.4194631,25.4264411 29.9908158,25.7598089 C30.7678203,26.2132641 31.595335,26.5902208 32.4012752,27 C32.4589151,26.9595059 32.516555,26.9190118 32.5741949,26.8784742 C32.3533114,26.1535038 32.085714,25.4369024 31.9354799,24.6990297 C31.8789511,24.421848 32.0047404,24.0219199 32.2038643,23.8058498 C32.7163271,23.2504402 33.3627737,22.8041772 33.8739865,22.2476342 C36.8926511,18.9609449 36.6781103,14.9464082 33.3491624,11.9277469 Z M22.2339192,15.9095919 C21.5614072,15.9193122 21.0172772,15.4297654 21.0383887,14.8341233 C21.0590372,14.2502501 21.5506663,13.8361121 22.2213726,13.837812 C22.959395,13.8395992 23.5643594,14.3256589 23.5426923,14.8993758 C23.5224142,15.4338192 22.918885,15.8996972 22.2339192,15.9095919 Z M28.9378342,15.9108996 C28.3277308,15.9022254 27.747165,15.4104992 27.7328592,14.8903529 C27.7174422,14.3335921 28.3070823,13.8319711 28.9713533,13.8367223 C29.7299316,13.8422581 30.2787376,14.3088772 30.2490611,14.9229139 C30.2225329,15.4710441 29.6256242,15.9207942 28.9378342,15.9108996 Z" id="形状"></path>
                </g>
            </g>
        </g>
    </g>
</svg>