<?xml version="1.0" encoding="UTF-8"?>
<svg width="48px" height="48px" viewBox="0 0 48 48" version="1.1" xmlns="http://www.w3.org/2000/svg" xmlns:xlink="http://www.w3.org/1999/xlink">
    <!-- Generator: Sketch 52.5 (67469) - http://www.bohemiancoding.com/sketch -->
    <title>合并形状 2@2x</title>
    <desc>Created with Sketch.</desc>
    <defs>
        <linearGradient x1="50%" y1="0%" x2="50%" y2="100%" id="linearGradient-1">
            <stop stop-color="#FF9A78" offset="0%"></stop>
            <stop stop-color="#FF6332" offset="100%"></stop>
        </linearGradient>
        <path d="M44,22.1666667 L44,32 C44,35.3137085 41.3137085,38 38,38 L6,38 C2.6862915,38 4.05812251e-16,35.3137085 0,32 L0,22.1666667 C1.65685425,22.1666667 3,20.7489017 3,19 C3,17.2510983 1.65685425,15.8333333 0,15.8333333 L0,6 C-4.05812251e-16,2.6862915 2.6862915,6.08718376e-16 6,0 L38,0 C41.3137085,-6.08718376e-16 44,2.6862915 44,6 L44,15.8333333 C42.3431458,15.8333333 41,17.2510983 41,19 C41,20.7489017 42.3431458,22.1666667 44,22.1666667 Z" id="path-2"></path>
    </defs>
    <g id="Page-1" stroke="none" stroke-width="1" fill="none" fill-rule="evenodd">
        <g id="个人中心" transform="translate(-581.000000, -436.000000)">
            <g id="合并形状-2" transform="translate(581.000000, 436.000000)">
                <rect id="矩形-copy-11" fill="#FFFFFF" fill-rule="nonzero" x="0" y="0" width="48" height="48"></rect>
                <g transform="translate(2.000000, 5.000000)">
                    <g id="路径-4">
                        <mask id="mask-3" fill="white">
                            <use xlink:href="#path-2"></use>
                        </mask>
                        <use id="Mask" fill="url(#linearGradient-1)" fill-rule="nonzero" xlink:href="#path-2"></use>
                        <path d="M9.40480733,38 L6,38 C2.6862915,38 4.05812251e-16,35.3137085 0,32 L0,22.1666667 C1.65685425,22.1666667 3,20.7489017 3,19 C3,17.2510983 1.65685425,15.8333333 0,15.8333333 L0,6 C-4.05812251e-16,2.6862915 2.6862915,6.08718376e-16 6,0 L32.7686256,0 L9.40480733,38 Z" id="路径" fill="#FFFFFF" fill-rule="nonzero" opacity="0.1" mask="url(#mask-3)"></path>
                    </g>
                    <g id="分组-17" opacity="0.7" transform="translate(15.000000, 9.000000)" fill="#FFFFFF" fill-rule="nonzero">
                        <path d="M5.5,9 L1.8,9 C1.08202983,9 0.5,8.32842712 0.5,7.5 C0.5,6.67157288 1.08202983,6 1.8,6 L4.37867966,6 L1.28248558,2.90380592 C0.696699141,2.31801948 0.696699141,1.36827202 1.28248558,0.782485579 C1.86827202,0.196699141 2.81801948,0.196699141 3.40380592,0.782485579 L7,4.37867966 L10.5961941,0.782485579 C11.1819805,0.196699141 12.131728,0.196699141 12.7175144,0.782485579 C13.3033009,1.36827202 13.3033009,2.31801948 12.7175144,2.90380592 L9.62132034,6 L12.2,6 C12.9179702,6 13.5,6.67157288 13.5,7.5 C13.5,8.32842712 12.9179702,9 12.2,9 L8.5,9 L8.5,12 L12.2,12 C12.9179702,12 13.5,12.6715729 13.5,13.5 C13.5,14.3284271 12.9179702,15 12.2,15 L8.5,15 L8.5,17.7 C8.5,18.4179702 7.82842712,19 7,19 C6.17157288,19 5.5,18.4179702 5.5,17.7 L5.5,15 L1.8,15 C1.08202983,15 0.5,14.3284271 0.5,13.5 C0.5,12.6715729 1.08202983,12 1.8,12 L5.5,12 L5.5,9 Z" id="合并形状"></path>
                    </g>
                </g>
            </g>
        </g>
    </g>
</svg>