<?xml version="1.0" encoding="UTF-8"?>
<svg width="108px" height="108px" viewBox="0 0 108 108" version="1.1" xmlns="http://www.w3.org/2000/svg" xmlns:xlink="http://www.w3.org/1999/xlink">
    <!-- Generator: Sketch 52.5 (67469) - http://www.bohemiancoding.com/sketch -->
    <title>分组 67</title>
    <desc>Created with Sketch.</desc>
    <defs>
        <linearGradient x1="50%" y1="0%" x2="50%" y2="90.9201389%" id="linearGradient-1">
            <stop stop-color="#1C6BF5" stop-opacity="0.0570086051" offset="0%"></stop>
            <stop stop-color="#1C6BF5" stop-opacity="0" offset="100%"></stop>
        </linearGradient>
        <circle id="path-2" cx="45" cy="46" r="45"></circle>
        <linearGradient x1="50%" y1="100%" x2="50%" y2="-14.1925744%" id="linearGradient-4">
            <stop stop-color="#51CCFF" offset="0%"></stop>
            <stop stop-color="#23AEE8" offset="100%"></stop>
        </linearGradient>
        <rect id="path-5" x="6" y="7" width="44" height="56"></rect>
        <filter x="-22.7%" y="-14.3%" width="145.5%" height="135.7%" filterUnits="objectBoundingBox" id="filter-6">
            <feOffset dx="0" dy="2" in="SourceAlpha" result="shadowOffsetOuter1"></feOffset>
            <feGaussianBlur stdDeviation="3" in="shadowOffsetOuter1" result="shadowBlurOuter1"></feGaussianBlur>
            <feColorMatrix values="0 0 0 0 0.361985695   0 0 0 0 0.789357094   0 0 0 0 0.967075893  0 0 0 1 0" type="matrix" in="shadowBlurOuter1"></feColorMatrix>
        </filter>
        <linearGradient x1="50%" y1="0%" x2="50%" y2="100%" id="linearGradient-7">
            <stop stop-color="#93F76C" offset="0%"></stop>
            <stop stop-color="#73DE43" offset="100%"></stop>
        </linearGradient>
        <rect id="path-8" x="21" y="0" width="14" height="10"></rect>
        <filter x="-25.0%" y="-25.0%" width="150.0%" height="170.0%" filterUnits="objectBoundingBox" id="filter-9">
            <feOffset dx="0" dy="1" in="SourceAlpha" result="shadowOffsetOuter1"></feOffset>
            <feGaussianBlur stdDeviation="1" in="shadowOffsetOuter1" result="shadowBlurOuter1"></feGaussianBlur>
            <feColorMatrix values="0 0 0 0 0.539286829   0 0 0 0 0.907392645   0 0 0 0 0.156602566  0 0 0 0.378764719 0" type="matrix" in="shadowBlurOuter1"></feColorMatrix>
        </filter>
        <linearGradient x1="50%" y1="0%" x2="50%" y2="100%" id="linearGradient-10">
            <stop stop-color="#FBC715" offset="0%"></stop>
            <stop stop-color="#FFDF66" offset="100%"></stop>
        </linearGradient>
        <filter x="-100.0%" y="-30.8%" width="300.0%" height="161.5%" filterUnits="objectBoundingBox" id="filter-11">
            <feOffset dx="1" dy="1" in="SourceAlpha" result="shadowOffsetOuter1"></feOffset>
            <feGaussianBlur stdDeviation="1.5" in="shadowOffsetOuter1" result="shadowBlurOuter1"></feGaussianBlur>
            <feColorMatrix values="0 0 0 0 0.498039216   0 0 0 0 0.909803922   0 0 0 0 0.325490196  0 0 0 0.317000679 0" type="matrix" in="shadowBlurOuter1" result="shadowMatrixOuter1"></feColorMatrix>
            <feMerge>
                <feMergeNode in="shadowMatrixOuter1"></feMergeNode>
                <feMergeNode in="SourceGraphic"></feMergeNode>
            </feMerge>
        </filter>
        <linearGradient x1="50%" y1="0%" x2="50%" y2="100%" id="linearGradient-12">
            <stop stop-color="#89F060" offset="0%"></stop>
            <stop stop-color="#78E249" offset="100%"></stop>
        </linearGradient>
    </defs>
    <g id="Page-1" stroke="none" stroke-width="1" fill="none" fill-rule="evenodd">
        <g id="个人中心" transform="translate(-591.000000, -1228.000000)">
            <g id="分组-43" transform="translate(30.000000, 1136.000000)">
                <g id="分组-12" transform="translate(30.000000, 92.000000)">
                    <g id="矩形" transform="translate(197.000000, 0.000000)">
                        <g id="分组-67" transform="translate(334.000000, 0.000000)">
                            <rect id="矩形" fill="#FFFFFF" fill-rule="nonzero" x="0" y="0" width="108" height="108"></rect>
                            <g id="分组-66" transform="translate(9.000000, 9.000000)">
                                <mask id="mask-3" fill="white">
                                    <use xlink:href="#path-2"></use>
                                </mask>
                                <use id="Mask" fill="url(#linearGradient-1)" fill-rule="nonzero" xlink:href="#path-2"></use>
                                <g id="分组-35" transform="translate(17.000000, 17.000000)" fill-rule="nonzero">
                                    <path d="M2,1.99991554 L54.000025,1.99991473 C55.1045945,1.99991473 56.000025,2.89534523 56.000025,3.99991473 C56.000025,3.999915 56.000025,3.99991527 56.000025,3.99991554 L56,64.1625977 C47.7005208,70.7208659 38.3671875,74 28,74 C17.6328125,74 8.29947917,70.7208659 -9.09494702e-13,64.1625977 L-9.09494702e-13,3.99991554 C-9.09629973e-13,2.89534604 0.8954305,1.99991554 2,1.99991554 Z" id="矩形" fill="url(#linearGradient-4)"></path>
                                    <g id="矩形" opacity="0.95">
                                        <use fill="black" fill-opacity="1" filter="url(#filter-6)" xlink:href="#path-5"></use>
                                        <use fill="#FFFFFF" xlink:href="#path-5"></use>
                                    </g>
                                    <g id="矩形">
                                        <use fill="black" fill-opacity="1" filter="url(#filter-9)" xlink:href="#path-8"></use>
                                        <use fill="url(#linearGradient-7)" xlink:href="#path-8"></use>
                                    </g>
                                    <polygon id="路径-6" fill="#22CEF4" points="13 17 13 16 43 16 43 17"></polygon>
                                    <polygon id="路径-6" fill="#22CEF4" points="13 24 13 23 43 23 43 24"></polygon>
                                    <polygon id="路径-6" fill="#22CEF4" points="13 31 13 30 23 30 23 31"></polygon>
                                    <polygon id="路径-6" fill="#22CEF4" points="13 38 13 37 23 37 23 38"></polygon>
                                </g>
                                <g id="分组-3" filter="url(#filter-11)" transform="translate(54.964102, 59.258330) rotate(-330.000000) translate(-54.964102, -59.258330) translate(50.964102, 46.258330)" fill-rule="nonzero">
                                    <path d="M2,4.54747351e-13 L6,4.54747351e-13 C7.1045695,4.54544445e-13 8,0.8954305 8,2 L8,2.56025484 L-9.09494702e-13,2.56025484 L-9.09494702e-13,2 C-9.09629973e-13,0.8954305 0.8954305,4.54950257e-13 2,4.54747351e-13 Z" id="矩形" fill-opacity="0.2" fill="#84EC5A"></path>
                                    <polygon id="矩形" fill="#D8F7D4" points="-1.8189894e-12 20.8637146 8 20.8637146 5 24.7116534 3 24.7116534"></polygon>
                                    <rect id="矩形" fill="url(#linearGradient-12)" x="-5.45696821e-12" y="2.56025484" width="8" height="18.3034597"></rect>
                                    <path d="M3,24.7116534 L5,24.7116534 L4.9486833,24.8656035 C4.77403553,25.3895468 4.20771555,25.6727068 3.68377223,25.498059 C3.38516724,25.398524 3.1508517,25.1642085 3.0513167,24.8656035 L3,24.7116534 Z" id="矩形" fill="#111111"></path>
                                </g>
                                <g id="分组-36" transform="translate(3.000000, 0.000000)" fill="#71D5FF" fill-opacity="0.615857111" fill-rule="nonzero">
                                    <circle id="椭圆形" cx="8.765625" cy="18.8457031" r="1"></circle>
                                    <circle id="椭圆形" cx="46.5878906" cy="3.91992188" r="3"></circle>
                                    <circle id="椭圆形" cx="77" cy="38" r="2"></circle>
                                    <circle id="椭圆形" cx="2.17773438" cy="40" r="2"></circle>
                                </g>
                            </g>
                        </g>
                    </g>
                </g>
            </g>
        </g>
    </g>
</svg>