<?xml version="1.0" standalone="no"?><!DOCTYPE svg PUBLIC "-//W3C//DTD SVG 1.1//EN" "http://www.w3.org/Graphics/SVG/1.1/DTD/svg11.dtd"><svg t="1574149479839" class="icon" viewBox="0 0 1024 1024" version="1.1" xmlns="http://www.w3.org/2000/svg" p-id="6754" xmlns:xlink="http://www.w3.org/1999/xlink" width="128" height="128"><defs><style type="text/css"></style></defs><path d="M322.56 76.8c240.64-102.4 519.68 7.68 624.64 245.76s-7.68 519.68-245.76 624.64S181.76 939.52 76.8 701.44 84.48 181.76 322.56 76.8M307.2 43.52C48.64 156.16-69.12 455.68 43.52 716.8 156.16 975.36 455.68 1093.12 716.8 980.48S1093.12 568.32 980.48 307.2C867.84 48.64 568.32-69.12 307.2 43.52z" p-id="6755" fill="#1ac6a4"></path><path d="M343.04 125.44c212.48-92.16 463.36 5.12 555.52 220.16 92.16 212.48-5.12 463.36-220.16 555.52-212.48 92.16-463.36-5.12-555.52-220.16s7.68-463.36 220.16-555.52m-5.12-12.8C117.76 207.36 17.92 465.92 112.64 686.08s353.28 322.56 573.44 225.28 322.56-353.28 225.28-573.44C816.64 117.76 558.08 17.92 337.92 112.64z" p-id="6756" fill="#1ac6a4"></path><path d="M606.72 732.16c-61.44 28.16-133.12 25.6-197.12-2.56-5.12-2.56-7.68-7.68-5.12-12.8 2.56-5.12 7.68-7.68 12.8-5.12 56.32 25.6 122.88 25.6 179.2 2.56 48.64-20.48 87.04-58.88 110.08-104.96 2.56-5.12 7.68-7.68 12.8-5.12 5.12 2.56 7.68 7.68 5.12 12.8-20.48 51.2-64 92.16-117.76 115.2zM624.64 317.44h-7.68c-58.88-33.28-130.56-35.84-192-7.68-58.88 25.6-102.4 74.24-122.88 135.68-2.56 5.12-7.68 7.68-12.8 7.68-5.12-2.56-7.68-7.68-7.68-12.8 20.48-66.56 69.12-120.32 133.12-148.48 69.12-30.72 145.92-25.6 209.92 7.68 5.12 2.56 7.68 7.68 5.12 12.8 0 5.12-2.56 5.12-5.12 5.12zM376.32 688.64c25.6-10.24 25.6-20.48 12.8-61.44h17.92c15.36 43.52 12.8 61.44-25.6 76.8L291.84 742.4c-35.84 15.36-51.2 15.36-64-12.8l-51.2-117.76 15.36-7.68 17.92 38.4 125.44-53.76-28.16-64-153.6 66.56-7.68-15.36 168.96-74.24 46.08 104.96-15.36 7.68-5.12-12.8-125.44 53.76 28.16 64c7.68 15.36 12.8 15.36 38.4 5.12l94.72-35.84zM488.96 614.4c5.12 0 12.8 2.56 23.04 5.12 20.48 2.56 40.96-5.12 66.56-15.36 28.16-12.8 61.44-28.16 84.48-40.96 0 5.12 0 12.8 2.56 17.92-15.36 7.68-56.32 28.16-81.92 38.4-28.16 12.8-48.64 17.92-69.12 15.36-12.8-2.56-23.04-5.12-28.16-2.56-7.68 2.56-12.8 23.04-17.92 43.52l-15.36-7.68c5.12-17.92 12.8-35.84 23.04-43.52l-30.72-69.12-35.84 12.8-5.12-15.36 48.64-20.48 35.84 81.92zM435.2 504.32c-12.8-7.68-38.4-17.92-56.32-23.04l7.68-12.8c17.92 5.12 43.52 12.8 56.32 20.48l-7.68 15.36z m48.64-56.32h40.96c10.24-10.24 20.48-23.04 25.6-35.84l-99.84 43.52-5.12-12.8 115.2-51.2 2.56-2.56 12.8 2.56c-7.68 17.92-20.48 38.4-33.28 56.32 7.68 0 15.36 0 23.04 2.56l30.72-12.8 46.08 104.96c2.56 7.68 2.56 12.8 0 17.92-5.12 5.12-15.36 10.24-30.72 15.36-2.56-5.12-7.68-7.68-10.24-10.24 12.8-5.12 20.48-10.24 25.6-10.24 2.56-2.56 2.56-2.56 2.56-5.12l-15.36-28.16-43.52 17.92 17.92 38.4-12.8 5.12-17.92-38.4-40.96 17.92 17.92 40.96-15.36 7.68-53.76-120.32 69.12-30.72h-56.32l5.12-12.8z m2.56 48.64l10.24 23.04 40.96-17.92-10.24-23.04-40.96 17.92z m64 38.4l-7.68-23.04-40.96 17.92 10.24 23.04 38.4-17.92z m-10.24-61.44l10.24 23.04 43.52-17.92-10.24-23.04-43.52 17.92z m69.12 38.4l-10.24-23.04-43.52 17.92 10.24 23.04 43.52-17.92zM721.92 506.88c5.12 0 12.8 2.56 23.04 5.12 20.48 2.56 38.4-2.56 66.56-15.36s61.44-28.16 81.92-40.96c0 5.12 0 12.8 2.56 17.92-15.36 7.68-58.88 28.16-79.36 38.4-28.16 12.8-48.64 17.92-69.12 15.36-12.8-2.56-23.04-7.68-28.16-5.12-7.68 2.56-12.8 23.04-20.48 43.52l-17.92-10.24c7.68-20.48 15.36-35.84 23.04-43.52l-28.16-61.44-33.28 15.36-2.56-15.36 48.64-20.48 33.28 76.8z m-53.76-107.52c-10.24-7.68-33.28-17.92-51.2-25.6l7.68-12.8c17.92 5.12 40.96 15.36 53.76 23.04l-10.24 15.36z m115.2-48.64L691.2 391.68l-7.68-15.36 89.6-38.4-17.92-40.96 15.36-7.68 17.92 40.96 33.28-15.36 7.68 15.36-33.28 15.36 40.96 94.72c5.12 10.24 2.56 17.92-2.56 23.04-7.68 5.12-20.48 12.8-43.52 23.04-2.56-5.12-7.68-10.24-12.8-12.8 17.92-7.68 33.28-15.36 38.4-15.36 5.12-2.56 5.12-5.12 2.56-7.68l-35.84-99.84z m-58.88 51.2c17.92 10.24 40.96 23.04 53.76 30.72l-10.24 12.8c-12.8-10.24-35.84-23.04-53.76-33.28l10.24-10.24z" p-id="6757" fill="#1ac6a4"></path><path d="M517.12 212.48l-25.6-12.8-23.04 12.8 5.12-25.6-20.48-20.48 28.16-5.12 10.24-23.04 12.8 23.04 28.16 5.12-20.48 20.48zM629.76 230.4l-20.48-20.48-28.16 2.56 15.36-23.04-12.8-25.6 28.16 5.12 20.48-17.92 2.56 28.16 25.6 12.8-25.6 10.24zM407.04 235.52l-28.16-2.56-15.36 23.04-7.68-25.6-25.6-10.24 23.04-15.36V176.64l23.04 17.92 25.6-7.68-10.24 25.6zM309.76 291.84l-25.6 10.24-7.68 25.6-17.92-23.04L230.4 307.2l17.92-23.04-10.24-25.6 28.16 7.68 20.48-17.92v28.16zM250.88 373.76l-20.48 17.92 2.56 28.16-23.04-15.36-25.6 12.8 5.12-28.16-17.92-20.48 28.16-2.56 12.8-23.04 10.24 25.6z" p-id="6758" fill="#1ac6a4"></path><path d="M517.12 832l23.04 12.8 25.6-12.8-5.12 28.16 20.48 20.48-28.16 2.56-12.8 25.6-10.24-25.6-28.16-2.56 20.48-20.48zM404.48 816.64l17.92 20.48 28.16-2.56-12.8 23.04 12.8 25.6-28.16-5.12-20.48 17.92-2.56-28.16-25.6-12.8 25.6-10.24zM624.64 811.52h28.16l17.92-20.48 7.68 25.6 25.6 10.24-23.04 15.36V870.4l-23.04-17.92-25.6 7.68 10.24-25.6zM724.48 752.64l25.6-7.68 7.68-25.6 17.92 20.48h25.6l-15.36 23.04 10.24 25.6-28.16-7.68-20.48 17.92v-28.16zM783.36 673.28l20.48-17.92-2.56-28.16 23.04 15.36 25.6-12.8-5.12 28.16 17.92 20.48-28.16 2.56-12.8 23.04-10.24-25.6z" p-id="6759" fill="#1ac6a4"></path></svg>