<?xml version="1.0" encoding="UTF-8"?>
<svg width="137px" height="31px" viewBox="0 0 137 31" version="1.1" xmlns="http://www.w3.org/2000/svg" xmlns:xlink="http://www.w3.org/1999/xlink">
    <!-- Generator: Sketch 52.5 (67469) - http://www.bohemiancoding.com/sketch -->
    <title>分组 48</title>
    <desc>Created with Sketch.</desc>
    <defs>
        <rect id="path-1" x="0" y="0" width="137" height="31"></rect>
        <filter x="-14.6%" y="-64.5%" width="129.2%" height="229.0%" filterUnits="objectBoundingBox" id="filter-3">
            <feOffset dx="0" dy="2" in="SourceAlpha" result="shadowOffsetOuter1"></feOffset>
            <feGaussianBlur stdDeviation="4" in="shadowOffsetOuter1" result="shadowBlurOuter1"></feGaussianBlur>
            <feColorMatrix values="0 0 0 0 0.282357917   0 0 0 0 0.703576743   0 0 0 0 0.625297138  0 0 0 0.0653872283 0" type="matrix" in="shadowBlurOuter1" result="shadowMatrixOuter1"></feColorMatrix>
            <feMerge>
                <feMergeNode in="shadowMatrixOuter1"></feMergeNode>
                <feMergeNode in="SourceGraphic"></feMergeNode>
            </feMerge>
        </filter>
        <linearGradient x1="54.9078125%" y1="100%" x2="54.2177083%" y2="0%" id="linearGradient-4">
            <stop stop-color="#1AC6A4" offset="0%"></stop>
            <stop stop-color="#20AFD0" offset="100%"></stop>
        </linearGradient>
        <path d="M63.272,28.608 L42.944,28.608 L42.944,18.144 L63.272,18.144 L63.272,28.608 Z M46.328,4.896 C46.3119999,5.0560008 46.3,5.21199924 46.292,5.364 C46.284,5.51600076 46.2640002,5.6719992 46.232,5.832 L53.624,5.832 L53.624,8.712 L49.424,8.712 L49.424,10.32 L53.912,10.32 L53.912,13.176 L50.24,13.176 C50.6560021,13.6080022 51.1919967,13.9319989 51.848,14.148 C52.5040033,14.3640011 53.2159962,14.5279994 53.984,14.64 L53.984,17.664 C53.4239972,17.6319998 52.8600028,17.5600006 52.292,17.448 C51.7239972,17.3359994 51.1720027,17.180001 50.636,16.98 C50.0999973,16.779999 49.5920024,16.5320015 49.112,16.236 C48.6319976,15.9399985 48.2000019,15.592002 47.816,15.192 C47.0799963,16.0080041 46.1800053,16.6039981 45.116,16.98 C44.0519947,17.3560019 42.9520057,17.5839996 41.816,17.664 L41.816,14.64 C42.5680038,14.5279994 43.247997,14.3640011 43.856,14.148 C44.464003,13.9319989 44.9599981,13.6080022 45.344,13.176 L42.056,13.176 L42.056,10.32 L46.232,10.32 L46.232,8.712 L44.888,8.712 C44.5679984,9.0320016 44.1760023,9.29599896 43.712,9.504 C43.2479977,9.71200104 42.7040031,9.83999976 42.08,9.888 L42.08,7.152 C42.5920026,6.97599912 42.9359991,6.71600172 43.112,6.372 C43.2880009,6.02799828 43.4079997,5.5360032 43.472,4.896 L46.328,4.896 Z M64.184,17.256 L54.68,17.256 L54.68,5.784 L64.184,5.784 L64.184,17.256 Z M60.944,8.664 L57.92,8.664 L57.92,14.376 L60.944,14.376 L60.944,8.664 Z M60.032,21.024 L46.184,21.024 L46.184,22.056 L60.032,22.056 L60.032,21.024 Z M60.032,25.728 L60.032,24.696 L46.184,24.696 L46.184,25.728 L60.032,25.728 Z M77.288,25.944 C77.288,27.8000093 76.3760091,28.728 74.552,28.728 L72.032,28.728 L72.032,25.728 L73.568,25.728 C73.6960006,25.728 73.8079995,25.6800005 73.904,25.584 C74.0000005,25.4879995 74.048,25.3760006 74.048,25.248 L74.048,24.768 L69.056,24.768 L69.056,28.728 L65.816,28.728 L65.816,13.752 L77.288,13.752 L77.288,25.944 Z M88.592,22.008 C87.6799954,22.1840009 86.6520057,22.3199995 85.508,22.416 C84.3639943,22.5120005 83.1200067,22.5839998 81.776,22.632 L81.776,24.864 C81.776,25.056001 81.8439993,25.2199993 81.98,25.356 C82.1160007,25.4920007 82.287999,25.56 82.496,25.56 L88.592,25.56 L88.592,28.56 L80.936,28.56 C80.2639966,28.56 79.6960023,28.3280023 79.232,27.864 C78.7679977,27.3999977 78.536,26.8320034 78.536,26.16 L78.536,17.304 L81.776,17.304 L81.776,19.68 C82.9120057,19.6479998 84.0319945,19.5800005 85.136,19.476 C86.2400055,19.3719995 87.391994,19.224001 88.592,19.032 L88.592,22.008 Z M88.592,9.672 C87.6799954,9.84800088 86.6520057,9.98399952 85.508,10.08 C84.3639943,10.1760005 83.1200067,10.2479998 81.776,10.296 L81.776,12.576 C81.776,12.768001 81.8439993,12.9319993 81.98,13.068 C82.1160007,13.2040007 82.287999,13.272 82.496,13.272 L88.592,13.272 L88.592,16.272 L80.936,16.272 C80.2639966,16.272 79.6960023,16.0400023 79.232,15.576 C78.7679977,15.1119977 78.536,14.5440034 78.536,13.872 L78.536,5.016 L81.776,5.016 L81.776,7.344 C82.9120057,7.31199984 84.0319945,7.24400052 85.136,7.14 C86.2400055,7.03599948 87.391994,6.88800096 88.592,6.696 L88.592,9.672 Z M74.024,9.744 L72.872,6.24 L76.52,6.24 L77.72,9.744 L77.72,12.744 L65.384,12.744 L65.384,9.744 L67.52,4.92 L71.216,4.92 L69.08,9.744 L74.024,9.744 Z M74.048,16.752 L69.056,16.752 L69.056,17.88 L74.048,17.88 L74.048,16.752 Z M69.056,21.888 L74.048,21.888 L74.048,20.76 L69.056,20.76 L69.056,21.888 Z M102.608,4.92 L102.608,26.256 C102.608,26.9280034 102.380002,27.4959977 101.924,27.96 C101.467998,28.4240023 100.904003,28.656 100.232,28.656 L95.6,28.656 L95.6,25.656 L98.192,25.656 C98.5120016,25.656 98.7919988,25.5400012 99.032,25.308 C99.2720012,25.0759988 99.392,24.7920017 99.392,24.456 L99.392,4.92 L102.608,4.92 Z M94.4298554,10.656 C94.4458555,11.8080058 94.4298556,12.987994 94.3818554,14.196 C94.3338552,15.404006 94.249856,16.607994 94.1298554,17.808 C94.0098548,19.008006 93.8578563,20.1919942 93.6738554,21.36 C93.4898545,22.5280058 93.2778566,23.6559946 93.0378554,24.744 L89.7738554,24.744 C90.285858,22.4879887 90.6618542,20.160012 90.9018554,17.76 C91.1418566,15.359988 91.2458556,12.9920117 91.2138554,10.656 L94.4298554,10.656 Z M108.136,24.744 C108.136,22.4079883 107.972002,20.036012 107.644,17.628 C107.315998,15.219988 106.896003,12.8960112 106.384,10.656 L109.6,10.656 C110.112003,12.8960112 110.531998,15.219988 110.86,17.628 C111.188002,20.036012 111.352,22.4079883 111.352,24.744 L108.136,24.744 Z M119.792,4.896 L119.792,7.44 L123.056,7.44 L123.056,10.44 L117.656,10.44 L117.656,12.96 L122.768,12.96 L122.768,25.632 C122.768,26.5920048 122.504003,27.3319974 121.976,27.852 C121.447997,28.3720026 120.752004,28.632 119.888,28.632 L117.848,28.632 L117.848,25.632 L118.808,25.632 C119.000001,25.632 119.167999,25.5640007 119.312,25.428 C119.456001,25.2919993 119.528,25.120001 119.528,24.912 L119.528,15.936 L117.656,15.936 L117.656,20.184 C117.656,21.3680059 117.584001,22.4199954 117.44,23.34 C117.295999,24.2600046 117.048002,25.0679965 116.696,25.764 C116.343998,26.4600035 115.884003,27.0439976 115.316,27.516 C114.747997,27.9880024 114.032004,28.3599986 113.168,28.632 L113.168,24.744 C113.616002,24.3279979 113.939999,23.7720035 114.14,23.076 C114.340001,22.3799965 114.44,21.4400059 114.44,20.256 L114.44,10.44 L113.288,10.44 L113.288,7.44 L116.552,7.44 L116.552,4.896 L119.792,4.896 Z M127.712,14.928 L127.712,24.696 C127.712,24.9680014 127.799999,25.1759993 127.976,25.32 C128.152001,25.4640007 128.375999,25.536 128.648,25.536 L131.024,25.536 L131.024,28.536 L126.632,28.536 C126.023997,28.536 125.512002,28.3280021 125.096,27.912 C124.679998,27.4959979 124.472,26.984003 124.472,26.376 L124.472,11.928 L133.448,11.928 C134.024003,11.928 134.527998,11.8960003 134.96,11.832 C135.392002,11.7679997 135.895997,11.6240011 136.472,11.4 L136.472,14.424 C136.007998,14.616001 135.516003,14.7479996 134.996,14.82 C134.475997,14.8920004 133.960003,14.928 133.448,14.928 L127.712,14.928 Z M136.448,20.136 L134.12,21.36 C134.744003,22.6560065 135.567995,23.6719963 136.592,24.408 L136.592,28.584 C135.487994,27.991997 134.512004,27.2600044 133.664,26.388 C132.815996,25.5159956 132.096003,24.5400054 131.504,23.46 C130.911997,22.3799946 130.448002,21.2160062 130.112,19.968 C129.775998,18.7199938 129.568,17.4080069 129.488,16.032 L132.704,16.032 C132.752,16.4960023 132.812,16.9559977 132.884,17.412 C132.956,17.8680023 133.047999,18.3039979 133.16,18.72 L136.448,16.992 L136.448,20.136 Z M128.912,4.896 C128.896,5.20000152 128.876,5.48799864 128.852,5.76 C128.828,6.03200136 128.792,6.29599872 128.744,6.552 L136.808,6.552 L136.808,9.432 L127.496,9.432 C126.567995,10.6000058 125.288008,11.3519983 123.656,11.688 L123.656,8.352 C124.264003,8.1119988 124.747998,7.70800284 125.108,7.14 C125.468002,6.57199716 125.68,5.82400464 125.744,4.896 L128.912,4.896 Z" id="path-5"></path>
        <linearGradient x1="50%" y1="0%" x2="50%" y2="100%" id="linearGradient-6">
            <stop stop-color="#56C2C8" offset="0%"></stop>
            <stop stop-color="#61D3BB" offset="100%"></stop>
        </linearGradient>
        <path d="M5.24050666,7.20446681 L3.36117797,4.2571405 C3.26670586,4.26948868 3.17031612,4.27586207 3.07241379,4.27586207 C1.87262278,4.27586207 0.9,3.31867774 0.9,2.13793103 C0.9,0.957184328 1.87262278,0 3.07241379,0 C4.2722048,0 5.24482759,0.957184328 5.24482759,2.13793103 C5.24482759,2.57307798 5.11272758,2.97786105 4.88584046,3.31555965 L6.73450607,6.21479746 C8.72367379,5.07891906 11.0346635,4.42857143 13.5,4.42857143 C15.9653365,4.42857143 18.2763262,5.07891906 20.2654939,6.21479746 L22.1141595,3.31555965 C21.8872724,2.97786105 21.7551724,2.57307798 21.7551724,2.13793103 C21.7551724,0.957184328 22.7277952,0 23.9275862,0 C25.1273772,0 26.1,0.957184328 26.1,2.13793103 C26.1,3.31867774 25.1273772,4.27586207 23.9275862,4.27586207 C23.8296839,4.27586207 23.7332941,4.26948868 23.638822,4.2571405 L21.7594933,7.20446681 C24.9476201,9.6346007 27,13.4385681 27,17.7142857 C27,25.0517831 20.9558441,31 13.5,31 C6.04415588,31 0,25.0517831 0,17.7142857 C0,13.4385681 2.05237993,9.6346007 5.24050666,7.20446681 Z" id="path-7"></path>
        <linearGradient x1="50%" y1="0%" x2="50%" y2="100%" id="linearGradient-8">
            <stop stop-color="#FFFFFF" stop-opacity="0.534618433" offset="0%"></stop>
            <stop stop-color="#FFFFFF" stop-opacity="0" offset="100%"></stop>
        </linearGradient>
    </defs>
    <g id="Page-1" stroke="none" stroke-width="1" fill="none" fill-rule="evenodd">
        <g id="个人中心" transform="translate(-60.000000, -610.000000)">
            <g id="分组-18" transform="translate(30.000000, 399.000000)">
                <g id="分组-38" transform="translate(0.000000, 181.000000)">
                    <g id="分组-48" transform="translate(30.000000, 30.000000)">
                        <mask id="mask-2" fill="white">
                            <use xlink:href="#path-1"></use>
                        </mask>
                        <use id="Mask" fill="#FFFFFF" fill-rule="nonzero" xlink:href="#path-1"></use>
                        <g filter="url(#filter-3)" mask="url(#mask-2)" fill-rule="nonzero">
                            <g id="智能小旅">
                                <use fill="#111111" xlink:href="#path-5"></use>
                                <use fill="url(#linearGradient-4)" xlink:href="#path-5"></use>
                            </g>
                            <g id="分组-43">
                                <g id="路径" fill="url(#linearGradient-6)">
                                    <use xlink:href="#path-7"></use>
                                    <use xlink:href="#path-7"></use>
                                </g>
                                <circle id="椭圆形" stroke="url(#linearGradient-8)" opacity="0.186314174" cx="13.5" cy="17.5" r="11.5"></circle>
                                <path d="M10,23 C11.05497,23.6198294 12.2388095,24 13.5023793,24 C14.7492041,24 15.9406681,23.6285934 17,23.0232587" id="路径" stroke="#FFFFFF" stroke-linecap="round"></path>
                                <circle id="椭圆形" fill="#FFFFFF" cx="8" cy="14" r="2"></circle>
                                <circle id="椭圆形" fill="#FFFFFF" cx="19" cy="14" r="2"></circle>
                            </g>
                        </g>
                    </g>
                </g>
            </g>
        </g>
    </g>
</svg>