<?xml version="1.0" standalone="no"?><!DOCTYPE svg PUBLIC "-//W3C//DTD SVG 1.1//EN" "http://www.w3.org/Graphics/SVG/1.1/DTD/svg11.dtd"><svg t="1562349410125" class="icon" viewBox="0 0 1225 1024" version="1.1" xmlns="http://www.w3.org/2000/svg" p-id="16728" xmlns:xlink="http://www.w3.org/1999/xlink" width="19.140625" height="16"><defs><style type="text/css"></style></defs><path d="M1190.180571 148.48a271.981714 271.981714 0 0 1-38.217142 312.996571L673.005714 987.300571a81.682286 81.682286 0 0 1-120.868571 0L73.179429 461.476571A272.146286 272.146286 0 0 1 3.291429 253.531429l136.393142 110.573714a173.641143 173.641143 0 0 0 244.041143-26.294857 173.641143 173.641143 0 0 0-26.294857-245.028572l-108.617143-87.405714a274.285714 274.285714 0 0 1 138.349715 20.589714L612.571429 122.514286l225.426285-96.548572c131.419429-56.338286 284.123429-3.218286 352.182857 122.514286z m-961.481142 178.230857a114.340571 114.340571 0 1 1 0-228.699428 114.340571 114.340571 0 0 1 0 228.699428z" fill="#ff4a26" p-id="16729"></path></svg>