<?xml version="1.0" standalone="no"?><!DOCTYPE svg PUBLIC "-//W3C//DTD SVG 1.1//EN" "http://www.w3.org/Graphics/SVG/1.1/DTD/svg11.dtd"><svg t="1562406093915" class="icon" viewBox="0 0 1024 1024" version="1.1" xmlns="http://www.w3.org/2000/svg" p-id="6615" xmlns:xlink="http://www.w3.org/1999/xlink" width="32" height="32"><defs><style type="text/css"></style></defs><path d="M874.322554 150.367671c-199.573482-199.594801-524.378737-199.616121-723.973538 0s-199.594801 524.378737 0 723.952218c199.616121 199.573482 524.357417 199.573482 723.930899 0C1073.874716 674.725088 1073.917355 349.983792 874.322554 150.367671zM698.008838 698.006173c-8.378632 8.335993-21.810028 8.335993-30.18866 0l-155.484393-155.484393-155.484393 155.484393c-8.335993 8.335993-21.831348 8.335993-30.167341 0-8.357313-8.335993-8.399952-21.810028-0.02132-30.18866l155.484393-155.484393-155.463073-155.463073c-8.335993-8.314673-8.357313-21.831348 0-30.18866 8.335993-8.335993 21.852667-8.314673 30.18866 0l155.463073 155.463073 155.441753-155.463073c8.421272-8.314673 21.810028-8.314673 30.18866 0 8.378632 8.335993 8.378632 21.852667 0 30.18866l-155.441753 155.463073 155.484393 155.484393C706.344831 676.196145 706.344831 689.6915 698.008838 698.006173z" p-id="6616" fill="#ffffff"></path></svg>