<?xml version="1.0" encoding="UTF-8"?>
<svg width="48px" height="48px" viewBox="0 0 48 48" version="1.1" xmlns="http://www.w3.org/2000/svg" xmlns:xlink="http://www.w3.org/1999/xlink">
    <!-- Generator: Sketch 52.5 (67469) - http://www.bohemiancoding.com/sketch -->
    <title>分组 54</title>
    <desc>Created with Sketch.</desc>
    <g id="Page-1" stroke="none" stroke-width="1" fill="none" fill-rule="evenodd">
        <g id="产品详情" transform="translate(-120.000000, -5290.000000)">
            <g id="分组-3" transform="translate(0.000000, 5282.000000)">
                <g id="分组-43" transform="translate(24.000000, 8.000000)">
                    <g id="分组-54" transform="translate(96.000000, 0.000000)">
                        <rect id="矩形-copy-3" fill="#FFFFFF" fill-rule="nonzero" x="0" y="0" width="48" height="48"></rect>
                        <g id="店铺-fill" transform="translate(6.000000, 7.000000)" stroke="#111111" stroke-width="3">
                            <path d="M32.5981854,17.8613587 C31.4761257,18.2522496 30.1424952,18.4562604 29.0497418,18.3991983 C26.9086699,18.2832021 25.2977696,17.8646332 23.8422412,16.9260696 C22.2089584,18.003944 20.2798297,18.5957984 18.2537095,18.6165547 C16.1231686,18.6020771 14.223693,18.1254003 12.6439866,17.1316961 C11.013357,18.184507 9.06990225,18.7241866 6.99202556,18.7241866 C5.67705391,18.7241866 4.91307211,18.5530581 3.39488446,18.0002877 L3.40196703,29.7908428 C3.40196703,30.83973 4.27564778,31.7052632 5.35077087,31.7052632 L5.59991217,31.7052632 L5.83567625,31.7858031 C9.16978957,32.9247781 13.0394644,33.4984074 17.4472337,33.4984074 C22.1474602,33.4984074 26.4067222,32.9159081 30.2278669,31.7556264 L30.4381977,31.69176 L30.6580095,31.6909276 C31.7306617,31.6868658 32.6052632,30.8179072 32.6052634,29.7702149 L32.5981854,17.8613587 Z M3.25503001,17.9475872 L3.19246885,17.9206702 C3.19227641,17.9206445 3.19208506,17.9206189 3.19189424,17.9205936 C3.22139617,17.9333441 3.24108812,17.9417878 3.25503001,17.9475872 Z M3.19246885,17.9206702 L3.19082164,17.9199615 C3.19948073,17.9204186 3.21387653,17.9207936 3.23955345,17.9207936 C3.24906652,17.9207936 3.25839824,17.9199114 3.26746955,17.9182087 L3.26494184,17.9319668 C3.25937245,17.9309117 3.23456061,17.9267157 3.20917579,17.9230121 C3.2003898,17.9217644 3.19622021,17.9211723 3.19246885,17.9206702 Z M3.19082164,17.9199615 L3.12970235,17.8936648 C3.15355886,17.9040019 3.17354053,17.9126599 3.19037675,17.9199377 C3.19052335,17.9199456 3.19067163,17.9199536 3.19082164,17.9199615 Z M3.19037675,17.9199377 C3.19088545,17.9201576 3.19139127,17.9203762 3.19189424,17.9205936 C3.18911396,17.920224 3.18644702,17.9198886 3.18214005,17.919351 C3.18492468,17.9195897 3.18727074,17.9197689 3.19037675,17.9199377 Z M3.28775359,17.9600247 C3.29175964,17.9612505 3.2954049,17.9621975 3.29992562,17.9633719 C3.29412633,17.9616856 3.28939202,17.960309 3.28493057,17.9589728 Z M3.18214005,17.919351 C3.1815384,17.9192759 3.18090474,17.9191969 3.1802343,17.9191132 C3.18104718,17.9192103 3.18197204,17.9193117 3.1830644,17.9194146 Z" id="路径"></path>
                            <path d="M34.1511628,10.6256969 L34.1511628,10.5657636 C34.1572321,10.6769759 34.1594702,10.7179861 34.1620687,10.7419559 C34.1562332,10.7032177 34.1541728,10.6771742 34.1511628,10.6256969 Z M34.1620687,10.7419559 C34.1635868,10.7559584 34.1652278,10.7641456 34.1678274,10.7771157 C34.1639867,10.7562361 34.1613469,10.7418857 34.1591853,10.7255406 Z M34.7926923,10.4983539 L34.9670977,10.4983539 L34.5960095,10.6561485 L34.1608997,10.7216508 C34.1602982,10.7176551 34.1599888,10.7163785 34.1574585,10.7087385 L34.7926923,10.4983539 Z M34.1511628,10.7068871 L31.1521718,3.65410964 L31.0870758,3.46786515 C30.7387196,2.21128657 29.8564901,1.5 28.7232559,1.5 L7.36744187,1.5 C6.28239467,1.5 5.45420873,2.17231967 5.12268431,3.37352216 L5.09284244,3.48164733 L1.83164536,10.8125323 L1.80464507,10.9373548 C1.60165844,11.6944618 1.5,12.4654394 1.5,13.245298 C1.5,15.9469694 2.71002395,18.3807115 4.60096533,19.5978584 C5.301533,20.0548841 6.14540872,20.2894737 7.13128898,20.2894854 C8.74692623,20.2831086 10.2782748,19.4182737 11.3629159,17.8639422 L12.5935267,16.1004307 L13.8234601,17.8644147 C14.9018875,19.4111071 16.4144351,20.2683327 18.0019563,20.2810955 C19.5901803,20.2683922 21.1023557,19.4046532 22.1744436,17.8590028 L23.4059398,16.0835302 L24.6388354,17.8580313 C25.7204086,19.4147345 27.2470114,20.2726213 28.8600277,20.2726529 C29.873843,20.2660699 30.7339762,20.0194866 31.4544533,19.5437151 C33.3111619,18.3168417 34.5,15.8952229 34.5,13.2200193 C34.5,12.4506598 34.3963249,11.6717531 34.2031509,10.95725 L34.1511628,10.7649587 L34.1511628,10.7068871 Z M37.1332801,10.3221617 C37.1317621,10.3081592 37.1301211,10.2999719 37.1275214,10.2870019 C37.1313622,10.3078814 37.1340019,10.3222318 37.1361635,10.338577 Z" id="形状" fill="#FFFFFF" fill-rule="nonzero"></path>
                        </g>
                    </g>
                </g>
            </g>
        </g>
    </g>
</svg>