<?xml version="1.0" encoding="UTF-8"?>
<svg width="18px" height="18px" viewBox="0 0 18 18" version="1.1" xmlns="http://www.w3.org/2000/svg" xmlns:xlink="http://www.w3.org/1999/xlink">
    <!-- Generator: Sketch 52.5 (67469) - http://www.bohemiancoding.com/sketch -->
    <title>店铺-fill</title>
    <desc>Created with Sketch.</desc>
    <g id="Page-1" stroke="none" stroke-width="1" fill="none" fill-rule="evenodd">
        <g id="首页" transform="translate(-250.000000, -3609.000000)" fill="#979797" fill-rule="nonzero">
            <g id="分组-37" transform="translate(0.000000, 1705.000000)">
                <g id="分组-36" transform="translate(0.000000, 1167.000000)">
                    <g id="分组-35">
                        <g id="分组-15" transform="translate(0.000000, 73.000000)">
                            <g id="分组-12" transform="translate(30.000000, 478.000000)">
                                <g id="分组-24" transform="translate(220.000000, 183.000000)">
                                    <g id="店铺-fill" transform="translate(0.000000, 3.000000)">
                                        <path d="M0.956149904,14.4485987 L0.953609867,10.3614389 C0.953300962,9.86438269 1.35599419,9.46118862 1.85305037,9.46087972 C2.35010655,9.46057082 2.75330061,9.86326405 2.75360952,10.3603202 C2.75459731,11.9497713 2.75459731,11.9497713 2.75614973,14.4480394 C2.75614973,14.8695514 3.13515763,15.1071899 3.38663102,15.1908391 C3.63810441,15.2744882 6.62908881,16.2003728 9.11697731,16.1999997 C11.3896462,16.1996588 14.3055725,15.3 14.6160912,15.1839441 C14.9266098,15.0678883 15.2470588,14.8593233 15.247059,14.4382383 L15.2443711,10.0611841 C15.2440659,9.56412796 15.6467621,9.16093688 16.1438183,9.16063164 C16.6408745,9.16032641 17.0440656,9.56302262 17.0443708,10.0600788 C17.0454161,11.7622665 17.0454161,11.7622665 17.0470588,14.4376856 C17.0470588,15.7401229 16.2,16.4487305 14.8640303,16.9706637 C13.5280606,17.4925969 11.5537287,17.9996342 9.11724731,17.9999996 C6.47420884,18.0003961 4.20609407,17.390031 3.13515763,16.9774435 C2.06422119,16.564856 0.956149741,15.7490512 0.956149904,14.4485987 Z" id="形状"></path>
                                        <path d="M18,7.04299814 C18,8.79568127 17.2252508,10.4252773 15.9336673,11.3065581 C15.3451502,11.7078617 14.6553337,11.9120671 13.8913953,11.9171691 C12.9819129,11.9171691 12.1280536,11.5721189 11.4339007,10.9573641 C10.7475908,11.5668254 9.90335532,11.9136712 8.99891915,11.9210545 C8.09827851,11.9136891 7.25439432,11.5685799 6.56662808,10.9592134 C5.87297782,11.5737087 5.0201557,11.921303 4.11174419,11.925 C3.36420574,11.925 2.68066292,11.7287852 2.1034481,11.3399307 C0.790180767,10.4670761 0,8.82594675 0,7.05474445 C0,6.55507852 0.0632000437,6.06013971 0.171470629,5.65929456 C0.183246737,5.59281624 0.183246737,5.59281624 0.193832024,5.54551887 C0.202529322,5.50857219 0.202529322,5.50857219 0.20482034,5.49902327 L0.255533653,5.34391313 L1.70406484,1.9815626 C2.05057942,0.788037749 3.01298792,-4.54747351e-13 4.21534884,-4.54747351e-13 L13.8254651,-4.54747351e-13 C15.0498486,-4.54747351e-13 16.0392294,0.807493468 16.3922726,2.03222284 L17.768627,5.38206416 C17.7962925,5.46832135 17.8167192,5.55508705 17.8301199,5.64609104 C17.941372,6.09322857 18,6.56980948 18,7.04299814 Z M14.7074493,2.66791506 L14.6704315,2.55858056 C14.5366084,2.06011753 14.2241654,1.8 13.8254651,1.8 L4.21534884,1.8 C3.83874399,1.8 3.55038935,2.04171895 3.42401383,2.51454286 L3.38109428,2.63823941 L1.94146394,5.97992917 C1.93910544,5.99100573 1.93583181,6.00638073 1.93123251,6.02798194 C1.8437901,6.36476302 1.8,6.70769663 1.8,7.05474445 C1.8,8.2499208 2.31478633,9.31908246 3.10445465,9.84395119 C3.37991138,10.0295092 3.71256752,10.125 4.10807616,10.1250075 C4.75197214,10.1223832 5.37168214,9.76098712 5.82116717,9.09585395 C6.17812842,8.56763444 6.9559843,8.56778209 7.31274499,9.09613708 C7.75959898,9.75791832 8.37123311,10.1158611 8.99884604,10.1211153 C9.63040477,10.1158991 10.2419018,9.75522867 10.6860386,9.09402774 C11.0424727,8.56339276 11.8230016,8.56308863 12.1798491,9.09344568 C12.6277802,9.75917378 13.2447128,10.1171691 13.8853609,10.1171894 C14.2943899,10.1144468 14.6345846,10.0137394 14.9193672,9.81954924 C15.6939834,9.29100856 16.2,8.22666077 16.2,7.0429981 C16.2,6.70096337 16.1553369,6.35446934 16.0723709,6.03759203 C16.063203,6.00257613 16.0561651,5.96707515 16.0512826,5.93128426 L14.7074493,2.66791506 Z" id="形状"></path>
                                    </g>
                                </g>
                            </g>
                        </g>
                    </g>
                </g>
            </g>
        </g>
    </g>
</svg>