<?xml version="1.0" encoding="UTF-8"?>
<svg width="24px" height="24px" viewBox="0 0 24 24" version="1.1" xmlns="http://www.w3.org/2000/svg" xmlns:xlink="http://www.w3.org/1999/xlink">
    <!-- Generator: Sketch 52.5 (67469) - http://www.bohemiancoding.com/sketch -->
    <title>点赞@2x</title>
    <desc>Created with Sketch.</desc>
    <defs>
        <linearGradient x1="50%" y1="0%" x2="50%" y2="100%" id="linearGradient-1">
            <stop stop-color="#F2E535" offset="0%"></stop>
            <stop stop-color="#E1C718" offset="100%"></stop>
        </linearGradient>
    </defs>
    <g id="Page-1" stroke="none" stroke-width="1" fill="none" fill-rule="evenodd">
        <g id="产品详情" transform="translate(-290.000000, -2321.000000)" fill="url(#linearGradient-1)" fill-rule="nonzero">
            <g id="分组-50" transform="translate(0.000000, 778.000000)">
                <g id="分组-48" transform="translate(0.000000, 1444.000000)">
                    <g id="分组-21" transform="translate(130.000000, 49.000000)">
                        <g id="点赞" transform="translate(160.000000, 50.000000)">
                            <path d="M21.6677244,8.32653063 L16.4665536,8.32653063 C16.0812817,8.25655978 15.9528577,7.83673471 15.8886457,7.62682217 L15.8886457,2.51895044 C15.8886457,1.11953353 14.861254,0 13.5770143,0 C12.4211985,0 11.4580188,0.979591843 11.2653828,2.16909623 C10.5590509,6.99708456 7.86214757,8.60641401 6.12842397,9.09620993 C6.19263597,9.30612248 6.19263597,9.44606417 6.19263594,9.58600585 L6.19263594,23.1603498 C6.19263594,23.4402332 6.12842394,23.7201166 6,24 L18.5855491,24 C19.8055768,23.7201166 20.6403326,23.2303207 21.2182405,21.9008746 L23.8509319,11.8250729 C24.3646278,10.0058309 23.529872,8.25655978 21.6677244,8.32653063 Z M5,23.2396313 L5,9.76036869 C5,9.34562216 4.42857144,9.00000003 3.78571427,9 L1.85714284,9 C0.857142836,9 0,9.8294931 0,10.797235 L0,22.1336406 C0,23.1705069 0.785714282,24 1.85714284,24 L3.78571427,24 C4.42857141,24 4.99999997,23.6543779 5,23.2396313 Z" id="形状"></path>
                        </g>
                    </g>
                </g>
            </g>
        </g>
    </g>
</svg>