<?xml version="1.0" encoding="UTF-8"?>
<svg width="20px" height="24px" viewBox="0 0 20 24" version="1.1" xmlns="http://www.w3.org/2000/svg" xmlns:xlink="http://www.w3.org/1999/xlink">
    <!-- Generator: Sketch 52.5 (67469) - http://www.bohemiancoding.com/sketch -->
    <title>路径@2x</title>
    <desc>Created with Sketch.</desc>
    <g id="Page-1" stroke="none" stroke-width="1" fill="none" fill-rule="evenodd">
        <g id="产品列表" transform="translate(-50.000000, -713.000000)" fill="#FF4A26">
            <path d="M59.9168597,737 C54.1137342,737 50,733.072922 50,727.665888 C50,724.793604 51.7658794,721.700625 51.8390421,721.570804 C51.9920184,721.304671 52.2946456,721.158623 52.6072495,721.191078 C52.9165278,721.230025 53.172597,721.447474 53.2524107,721.742816 C53.2590619,721.76229 53.7346189,723.495397 54.3598266,724.459316 C54.7788489,725.108419 55.0315925,724.680011 55.510475,724.998072 C55.1845688,723.621972 55.1147318,722.440603 55.5204517,720.314788 C56.6345188,714.479346 61.3402051,713.087018 61.5397395,713.028599 C61.7991342,712.957197 62.0718312,713.022108 62.2713656,713.19412 C62.4709,713.372624 62.5573649,713.635511 62.5074813,713.891907 C62.5008302,713.930853 61.722646,718.016961 63.3721304,721.496157 C63.5217812,721.814218 63.7312923,722.180962 63.9541057,722.547705 C64.0172916,722.04465 64.1170588,721.505894 64.2700352,720.983365 C64.8752895,718.919215 66.438309,718.214938 66.5048205,718.185728 C66.7675408,718.068889 67.0701679,718.107836 67.2963069,718.279848 C67.5224459,718.451861 67.6288643,718.734221 67.5756551,719.006844 C67.5690039,719.058773 67.3495161,720.460837 68.5733271,722.453585 C69.680743,724.254848 69.999998,725.416744 69.999998,727.656152 C70.0033236,733.072922 65.759892,737 59.9168597,737 Z" id="路径"></path>
        </g>
    </g>
</svg>