<?xml version="1.0" encoding="UTF-8"?>
<svg width="176px" height="176px" viewBox="0 0 176 176" version="1.1" xmlns="http://www.w3.org/2000/svg" xmlns:xlink="http://www.w3.org/1999/xlink">
    <!-- Generator: Sketch 52.5 (67469) - http://www.bohemiancoding.com/sketch -->
    <title>分组 18</title>
    <desc>Created with Sketch.</desc>
    <defs>
        <linearGradient x1="50%" y1="0%" x2="50%" y2="100%" id="linearGradient-1">
            <stop stop-color="#5CE991" offset="0%"></stop>
            <stop stop-color="#1DCD62" offset="100%"></stop>
        </linearGradient>
        <circle id="path-2" cx="74" cy="74" r="74"></circle>
        <filter x="-16.2%" y="-12.2%" width="132.4%" height="132.4%" filterUnits="objectBoundingBox" id="filter-3">
            <feOffset dx="0" dy="6" in="SourceAlpha" result="shadowOffsetOuter1"></feOffset>
            <feGaussianBlur stdDeviation="7" in="shadowOffsetOuter1" result="shadowBlurOuter1"></feGaussianBlur>
            <feColorMatrix values="0 0 0 0 0.196078431   0 0 0 0 0.843137255   0 0 0 0 0.447058824  0 0 0 0.317255435 0" type="matrix" in="shadowBlurOuter1"></feColorMatrix>
        </filter>
        <path d="M50,39.0000006 L98.0000065,39 C101.313715,39 104.000006,41.6862915 104.000006,45 L104.000006,99.5070386 C104.000005,102.212922 102.188846,104.58399 99.5782512,105.29575 C90.5206052,107.765252 81.7803287,109.000003 73.3574219,109.000003 C65.0138069,109.000003 56.670192,107.78839 48.3265771,105.365164 C45.7632892,104.620714 44,102.272455 44,99.6032507 L44,45.0000006 C44,41.6862921 46.6862915,39.0000006 50,39.0000006 Z M73.5346589,87.7446476 C73.8259829,87.5914895 74.1740171,87.5914895 74.4653411,87.7446476 L79.8477361,90.5743401 C80.0423966,90.6766792 80.2653647,90.7119939 80.4821223,90.674817 C81.0264588,90.581456 81.3920466,90.0645001 81.2986856,89.5201636 L80.2707396,83.5267787 C80.2151017,83.2023847 80.3226501,82.8713845 80.5583362,82.6416473 L84.9127853,78.3971085 C85.0702689,78.2435999 85.1727561,78.0424575 85.2043806,77.8248205 C85.2837982,77.2782756 84.9051167,76.7708328 84.3585719,76.6914152 L78.3408713,75.8169921 C78.0151612,75.7696636 77.7335956,75.5650943 77.5879336,75.2699508 L74.8967361,69.816989 C74.7994058,69.6197764 74.6397783,69.4601489 74.4425657,69.3628187 C73.9473121,69.1183964 73.3476862,69.3217354 73.1032639,69.816989 L70.4120664,75.2699508 C70.2664044,75.5650943 69.9848388,75.7696636 69.6591287,75.8169921 L63.6414281,76.6914152 C63.4237911,76.7230397 63.2226487,76.8255268 63.0691401,76.9830105 C62.6836389,77.3784941 62.6917312,78.0116073 63.0872147,78.3971085 L67.4416638,82.6416473 C67.6773499,82.8713845 67.7848983,83.2023847 67.7292604,83.5267787 L66.7013144,89.5201636 C66.6641376,89.7369213 66.6994523,89.9598893 66.8017913,90.1545498 C67.0587921,90.6433944 67.6634193,90.8313409 68.1522639,90.5743401 L73.5346589,87.7446476 Z M67,39.0000033 L67,55.1904964 C67,55.3787546 67.0531414,55.5631892 67.1533114,55.7225852 C67.4471759,56.1901984 68.0644756,56.3310495 68.5320888,56.037185 L73.6161418,52.8421879 C73.9478112,52.6337552 74.3706386,52.6381703 74.6978833,52.8534831 L79.4503474,55.9803989 C79.6135524,56.0877808 79.8046369,56.1450056 80,56.1450056 C80.5522847,56.1450056 81,55.6972903 81,55.1450056 L81,39.0000033 L67,39.0000033 Z" id="path-4"></path>
        <filter x="-41.7%" y="-28.6%" width="183.3%" height="171.4%" filterUnits="objectBoundingBox" id="filter-5">
            <feOffset dx="0" dy="5" in="SourceAlpha" result="shadowOffsetOuter1"></feOffset>
            <feGaussianBlur stdDeviation="7.5" in="shadowOffsetOuter1" result="shadowBlurOuter1"></feGaussianBlur>
            <feColorMatrix values="0 0 0 0 0.147441547   0 0 0 0 0.781994048   0 0 0 0 0.395910899  0 0 0 1 0" type="matrix" in="shadowBlurOuter1"></feColorMatrix>
        </filter>
    </defs>
    <g id="Page-1" stroke="none" stroke-width="1" fill="none" fill-rule="evenodd">
        <g id="分享发布" transform="translate(-133.000000, -899.000000)" fill-rule="nonzero">
            <g id="分组-18" transform="translate(147.000000, 907.000000)">
                <g id="椭圆形">
                    <use fill="black" fill-opacity="1" filter="url(#filter-3)" xlink:href="#path-2"></use>
                    <use fill="url(#linearGradient-1)" xlink:href="#path-2"></use>
                </g>
                <g id="合并形状">
                    <use fill="black" fill-opacity="1" filter="url(#filter-5)" xlink:href="#path-4"></use>
                    <use fill="#FFFFFF" xlink:href="#path-4"></use>
                </g>
            </g>
        </g>
    </g>
</svg>