<?xml version="1.0" encoding="UTF-8"?>
<svg width="48px" height="48px" viewBox="0 0 48 48" version="1.1" xmlns="http://www.w3.org/2000/svg" xmlns:xlink="http://www.w3.org/1999/xlink">
    <!-- Generator: Sketch 52.5 (67469) - http://www.bohemiancoding.com/sketch -->
    <title>分组 104</title>
    <desc>Created with Sketch.</desc>
    <defs>
        <linearGradient x1="86.3722278%" y1="13.7600806%" x2="17.4647177%" y2="90.0579637%" id="linearGradient-1">
            <stop stop-color="#2ED8E1" offset="0%"></stop>
            <stop stop-color="#23DEAC" offset="100%"></stop>
        </linearGradient>
    </defs>
    <g id="Page-1" stroke="none" stroke-width="1" fill="none" fill-rule="evenodd">
        <g id="首页" transform="translate(-70.000000, -4365.000000)">
            <g id="分组-6" transform="translate(0.000000, 4355.000000)">
                <g id="分组-104" transform="translate(70.000000, 10.000000)">
                    <rect id="矩形-copy-2" fill="#FFFFFF" fill-rule="nonzero" x="0" y="0" width="48" height="48"></rect>
                    <g id="分组-39" transform="translate(2.000000, 2.000000)">
                        <path d="M11.0103627,23.8633419 L23.0103627,10.3633419 C24.4780348,8.71221086 27.0063243,8.56348795 28.6574554,10.03116 C28.7745948,10.135284 28.8855133,10.2462025 28.9896373,10.3633419 L40.9896373,23.8633419 C41.6404857,24.5955464 42,25.5411406 42,26.5207973 L42,39 C42,41.209139 40.209139,43 38,43 L14,43 C11.790861,43 10,41.209139 10,39 L10,26.5207973 C10,25.5411406 10.3595143,24.5955464 11.0103627,23.8633419 Z" id="路径" fill="url(#linearGradient-1)" fill-rule="nonzero" opacity="0.6"></path>
                        <path d="M6.14176463,19.8625322 C5.72860904,20.321594 5.5,20.9173396 5.5,21.534944 L5.5,36 C5.5,37.3807119 6.61928813,38.5 8,38.5 L36,38.5 C37.3807119,38.5 38.5,37.3807119 38.5,36 L38.5,21.534944 C38.5,20.9173396 38.271391,20.321594 37.8582354,19.8625322 L23.8582354,4.30697664 C23.7995948,4.24182049 23.737568,4.17979363 23.6724118,4.1211531 C22.6461368,3.19750555 21.0654122,3.28070158 20.1417646,4.30697664 L6.14176463,19.8625322 Z" id="路径-copy" stroke="#111111" stroke-width="3" fill-rule="nonzero"></path>
                        <rect id="矩形" fill="#111111" fill-rule="nonzero" x="21" y="21" width="3" height="12" rx="1.5"></rect>
                        <g id="分组-16" fill="#E1C718">
                            <path d="M42.8810021,5 L37.1134308,5 C36.5010438,5 36,4.55 36,4 C36,3.45 36.5010438,3 37.1134308,3 L42.8865692,3 C43.4989562,3 44,3.45 44,4 C44,4.55 43.4989562,5 42.8810021,5 Z" id="路径"></path>
                            <path d="M40,8 C39.45,8 39,7.50953678 39,6.91008174 L39,1.08991826 C39,0.490463215 39.45,0 40,0 C40.55,0 41,0.490463215 41,1.08991826 L41,6.91008174 C41,7.51498638 40.55,8 40,8 Z" id="路径"></path>
                            <path d="M0,5.5 C0,6.32842712 0.671572875,7 1.5,7 C2.32842712,7 3,6.32842712 3,5.5 C3,4.67157288 2.32842712,4 1.5,4 C0.671572875,4 0,4.67157288 0,5.5 Z" id="路径"></path>
                            <path d="M4,2.99999998 C3.99999998,3.35726557 4.1905989,3.6873926 4.49999999,3.8660254 C4.80940107,4.0446582 5.19059893,4.0446582 5.50000001,3.8660254 C5.8094011,3.6873926 6.00000002,3.35726557 6,2.99999998 C6,2.44771524 5.55228475,2 5,2 C4.44771525,2 4,2.44771524 4,2.99999998 Z" id="路径"></path>
                        </g>
                    </g>
                </g>
            </g>
        </g>
    </g>
</svg>