<?xml version="1.0" encoding="UTF-8"?>
<svg width="48px" height="51px" viewBox="0 0 48 51" version="1.1" xmlns="http://www.w3.org/2000/svg" xmlns:xlink="http://www.w3.org/1999/xlink">
    <!-- Generator: Sketch 52.5 (67469) - http://www.bohemiancoding.com/sketch -->
    <title>分组 53</title>
    <desc>Created with Sketch.</desc>
    <defs>
        <filter x="-52.8%" y="-52.8%" width="205.6%" height="205.6%" filterUnits="objectBoundingBox" id="filter-1">
            <feMorphology radius="1.5" operator="dilate" in="SourceAlpha" result="shadowSpreadOuter1"></feMorphology>
            <feOffset dx="0" dy="3" in="shadowSpreadOuter1" result="shadowOffsetOuter1"></feOffset>
            <feMorphology radius="1.5" operator="erode" in="SourceAlpha" result="shadowInner"></feMorphology>
            <feOffset dx="0" dy="3" in="shadowInner" result="shadowInner"></feOffset>
            <feComposite in="shadowOffsetOuter1" in2="shadowInner" operator="out" result="shadowOffsetOuter1"></feComposite>
            <feGaussianBlur stdDeviation="3" in="shadowOffsetOuter1" result="shadowBlurOuter1"></feGaussianBlur>
            <feColorMatrix values="0 0 0 0 0.376470588   0 0 0 0 0.819607843   0 0 0 0 0.737254902  0 0 0 0.208842844 0" type="matrix" in="shadowBlurOuter1" result="shadowMatrixOuter1"></feColorMatrix>
            <feMerge>
                <feMergeNode in="shadowMatrixOuter1"></feMergeNode>
                <feMergeNode in="SourceGraphic"></feMergeNode>
            </feMerge>
        </filter>
    </defs>
    <g id="Page-1" stroke="none" stroke-width="1" fill="none" fill-rule="evenodd">
        <g id="产品详情" transform="translate(-24.000000, -5290.000000)" fill-rule="nonzero">
            <g id="分组-3" transform="translate(0.000000, 5282.000000)">
                <g id="分组-43" transform="translate(24.000000, 8.000000)">
                    <g id="分组-53">
                        <rect id="矩形-copy-2" fill="#FFFFFF" x="0" y="0" width="48" height="48"></rect>
                        <g id="分组-23" filter="url(#filter-1)" stroke-linecap="round" transform="translate(6.000000, 6.000000)" stroke="#194FE7" stroke-width="3">
                            <path d="M4.2,32.7 L10.4896444,32.7 L10.8000267,32.8507845 C13.0238426,33.9311198 15.4698901,34.5 18,34.5 C27.1126984,34.5 34.5,27.1126984 34.5,18 C34.5,8.88730163 27.1126984,1.5 18,1.5 C8.88730163,1.5 1.5,8.88730163 1.5,18 C1.5,21.1183561 2.36501077,24.1055373 3.97407402,26.6950955 L4.2,27.0586912 L4.2,32.7 Z" id="合并形状"></path>
                            <path d="M11.8,25.0131666 C13.2922825,27.4527382 15.5143793,28.1 17.9959792,28.1 C20.4820407,28.1 22.707665,27.4471697 24.2,25" id="路径"></path>
                        </g>
                    </g>
                </g>
            </g>
        </g>
    </g>
</svg>