<?xml version="1.0" encoding="UTF-8"?>
<svg width="30px" height="30px" viewBox="0 0 30 30" version="1.1" xmlns="http://www.w3.org/2000/svg" xmlns:xlink="http://www.w3.org/1999/xlink">
    <!-- Generator: Sketch 52.5 (67469) - http://www.bohemiancoding.com/sketch -->
    <title>分组 8</title>
    <desc>Created with Sketch.</desc>
    <defs>
        <linearGradient x1="54.2177083%" y1="100%" x2="54.2177083%" y2="0%" id="linearGradient-1">
            <stop stop-color="#1AC6A4" offset="0%"></stop>
            <stop stop-color="#20AFD0" offset="100%"></stop>
        </linearGradient>
    </defs>
    <g id="Page-1" stroke="none" stroke-width="1" fill="none" fill-rule="evenodd">
        <g id="登陆" transform="translate(-60.000000, -882.000000)">
            <g id="分组-6" transform="translate(60.000000, 468.000000)">
                <g id="分组-4" transform="translate(0.000000, 414.000000)">
                    <g id="分组-8">
                        <circle id="椭圆形" fill="url(#linearGradient-1)" fill-rule="nonzero" opacity="0.329496838" cx="15" cy="15" r="15"></circle>
                        <path d="M15.2747253,7 C16.7032967,7 17.8681319,7.37362637 18.7472527,8.16483516 C19.6263736,8.93406593 20.0659341,9.98901099 20.0659341,11.3296703 C20.0659341,12.4285714 19.7802198,13.3296703 19.2527473,14.032967 C19.0549451,14.2527473 18.4175824,14.8461538 17.3626374,15.7692308 C16.967033,16.0989011 16.6813187,16.4725275 16.4835165,16.8681319 C16.2637363,17.3076923 16.1538462,17.7692308 16.1538462,18.2967033 L16.1538462,18.6043956 L13.6263736,18.6043956 L13.6263736,18.2967033 C13.6263736,17.4615385 13.7582418,16.7362637 14.0659341,16.1428571 C14.3516484,15.5494505 15.2087912,14.6263736 16.6373626,13.3516484 L16.9010989,13.043956 C17.2967033,12.5604396 17.4945055,12.032967 17.4945055,11.4835165 C17.4945055,10.7582418 17.2747253,10.1868132 16.8791209,9.76923077 C16.4615385,9.35164835 15.8681319,9.15384615 15.1208791,9.15384615 C14.1538462,9.15384615 13.4725275,9.43956044 13.0549451,10.0549451 C12.6813187,10.5604396 12.5054945,11.2857143 12.5054945,12.2087912 L10,12.2087912 C10,10.5824176 10.4615385,9.30769231 11.4285714,8.38461538 C12.3736264,7.46153846 13.6483516,7 15.2747253,7 Z M14.8791209,19.6813187 C15.3626374,19.6813187 15.7802198,19.8351648 16.1098901,20.1428571 C16.4175824,20.4505495 16.5934066,20.8461538 16.5934066,21.3296703 C16.5934066,21.8131868 16.4175824,22.2307692 16.0879121,22.5384615 C15.7582418,22.8461538 15.3626374,23 14.8791209,23 C14.3956044,23 14,22.8241758 13.6703297,22.5164835 C13.3406593,22.2087912 13.1868132,21.8131868 13.1868132,21.3296703 C13.1868132,20.8461538 13.3406593,20.4505495 13.6703297,20.1428571 C14,19.8351648 14.3956044,19.6813187 14.8791209,19.6813187 Z" id="？" fill="#FFFFFF" opacity="0.5"></path>
                    </g>
                </g>
            </g>
        </g>
    </g>
</svg>