<?xml version="1.0" encoding="UTF-8"?>
<svg width="72px" height="30px" viewBox="0 0 72 30" version="1.1" xmlns="http://www.w3.org/2000/svg" xmlns:xlink="http://www.w3.org/1999/xlink">
    <!-- Generator: Sketch 52.5 (67469) - http://www.bohemiancoding.com/sketch -->
    <title>分组 17</title>
    <desc>Created with Sketch.</desc>
    <defs>
        <linearGradient x1="54.9078125%" y1="100%" x2="54.2338359%" y2="2.33697616%" id="linearGradient-1">
            <stop stop-color="#D2BA1A" offset="0%"></stop>
            <stop stop-color="#EACF1D" offset="100%"></stop>
        </linearGradient>
        <linearGradient x1="50%" y1="0%" x2="50%" y2="100%" id="linearGradient-2">
            <stop stop-color="#FFFFFF" stop-opacity="0.642012002" offset="0%"></stop>
            <stop stop-color="#FFFFFF" offset="100%"></stop>
        </linearGradient>
    </defs>
    <g id="Page-1" stroke="none" stroke-width="1" fill="none" fill-rule="evenodd">
        <g id="首页" transform="translate(-250.000000, -3689.000000)">
            <g id="分组-37" transform="translate(0.000000, 1705.000000)">
                <g id="分组-36" transform="translate(0.000000, 1167.000000)">
                    <g id="分组-35">
                        <g id="分组-15" transform="translate(0.000000, 73.000000)">
                            <g id="分组-12" transform="translate(30.000000, 741.000000)">
                                <g id="分组-27" transform="translate(220.000000, 0.000000)">
                                    <g id="分组-17" transform="translate(0.000000, 3.000000)">
                                        <path d="M15,0 L57,0 C65.2842712,-1.52179594e-15 72,6.71572875 72,15 L72,15 C72,23.2842712 65.2842712,30 57,30 L15,30 C6.71572875,30 1.01453063e-15,23.2842712 0,15 L0,15 C-1.01453063e-15,6.71572875 6.71572875,1.52179594e-15 15,0 Z" id="矩形" fill="url(#linearGradient-1)" fill-rule="nonzero"></path>
                                        <g id="分组-94" transform="translate(10.000000, 6.000000)">
                                            <path d="M27.8835394,2.79499157 L29.9629148,2.79499157 L30.4053351,2.14650903 L32.2856213,3.11923284 L31.9095641,3.74864237 L31.9095641,11.7020901 C31.9095641,12.0199752 32.038602,12.2393127 32.2966818,12.3601091 C32.5547616,12.4809055 32.9050075,12.5413028 33.3474301,12.5413028 C33.0229869,12.8210417 32.654307,13.0308428 32.2413793,13.1707123 C31.8284516,13.3105818 31.4339641,13.3741579 31.057905,13.3614425 C30.6818459,13.348727 30.3647812,13.2533629 30.1067014,13.0753472 C29.8486216,12.8973315 29.7195836,12.630312 29.7195836,12.2742805 L29.7195836,4.33990587 L27.4853611,4.33990587 L26.6226415,7.8302678 L29.2108003,9.22259797 L28.1489915,10.6149281 L26.1802212,9.58498528 L25.2732596,13.2470044 C25.2437648,13.3741584 25.1184136,13.4281981 24.8972023,13.409125 C24.6759911,13.3900519 24.440036,13.3264758 24.1893299,13.2183948 C23.9386238,13.1103139 23.7174158,12.9799829 23.5256994,12.827398 C23.333983,12.6748131 23.260247,12.5222305 23.3044893,12.3696456 L24.2556929,8.57411543 L23.1496422,7.96377892 C22.9726732,7.87477106 22.8694428,7.71583085 22.839948,7.48695351 C22.8104531,7.25807618 22.8325739,7.03238108 22.906311,6.80986145 C22.9800481,6.58734181 23.0869653,6.41250758 23.2270657,6.2853535 C23.3671662,6.15819943 23.5256985,6.1391266 23.7026675,6.22813446 L24.7202342,6.78125192 L25.3175016,4.33990587 L24.1450878,4.33990587 C23.938624,4.33990587 23.7469104,4.26043576 23.5699414,4.10149317 C23.3929724,3.94255057 23.2602477,3.76453754 23.1717632,3.56744872 C23.0832787,3.3703599 23.0427239,3.19234687 23.0500976,3.03340427 C23.0574713,2.87446168 23.1496413,2.79499157 23.3266103,2.79499157 L25.6935589,2.79499157 L26.3571893,0.220134407 C26.3866842,0.0929803307 26.5120353,0.0389406591 26.7332466,0.0580137705 C26.9544578,0.0770868818 27.1867262,0.137484162 27.4300586,0.239207423 C27.6733909,0.340930684 27.8909121,0.468082852 28.0826285,0.620667743 C28.2743449,0.773252635 28.3480809,0.919477629 28.3038386,1.05934711 L27.8835394,2.79499157 Z M20.9817827,2.87128364 L22.0435914,2.87128364 C22.2353078,2.87128364 22.3901534,2.95075374 22.5081327,3.10969634 C22.6261121,3.26863893 22.7109084,3.44665197 22.7625244,3.64374078 C22.8141404,3.8408296 22.8325744,4.01884264 22.8178269,4.17778523 C22.8030795,4.33672783 22.7588379,4.41619793 22.6851008,4.41619793 L20.9817827,4.41619793 L20.9817827,7.73490272 L21.8666233,7.58231859 C22.0583397,7.54417237 22.2316193,7.59503324 22.3864671,7.73490272 C22.541315,7.87477221 22.6629794,8.03689122 22.7514639,8.22126463 C22.8399484,8.40563804 22.8952504,8.58047227 22.9173715,8.74577257 C22.9394926,8.91107287 22.9210586,9.00007939 22.862069,9.0127948 L20.9817827,9.33703607 L20.9817827,12.1789155 C20.9817827,12.5858085 20.8453711,12.8973313 20.5725439,13.1134932 C20.2997167,13.3296552 19.9605312,13.4568073 19.5549772,13.4949536 C19.1494233,13.5330998 18.714381,13.4885965 18.2498373,13.3614425 C17.7852937,13.2342884 17.3686854,13.0308449 17,12.7511059 C17.353938,12.7892522 17.6488819,12.7828946 17.8848406,12.7320329 C18.1207993,12.6811713 18.308826,12.5985224 18.4489265,12.4840837 C18.5890269,12.369645 18.6922573,12.2329565 18.7586207,12.0740139 C18.8249841,11.9150713 18.8581653,11.7529523 18.8581653,11.587652 L18.8581653,9.71849639 L18.2830189,9.79478845 C18.1207973,9.82021927 17.9475177,9.7661796 17.763175,9.63266782 C17.5788323,9.49915604 17.4239867,9.34339463 17.2986337,9.16537893 C17.1732807,8.98736322 17.0958579,8.8188866 17.066363,8.659944 C17.0368682,8.50100141 17.0884834,8.40881608 17.2212101,8.38338527 L18.8581653,8.11636304 L18.8581653,4.41619793 L18.0396877,4.41619793 C17.8627187,4.41619793 17.7004995,4.33672783 17.5530254,4.17778523 C17.4055512,4.01884264 17.2949472,3.8408296 17.2212101,3.64374078 C17.1474731,3.44665197 17.1142919,3.26863893 17.1216656,3.10969634 C17.1290393,2.95075374 17.2064621,2.87128364 17.3539362,2.87128364 L18.8581653,2.87128364 L18.8581653,0.258280439 C18.8581653,0.131126363 18.9687692,0.0675502785 19.1899805,0.0675502785 C19.4111917,0.0675502785 19.6545205,0.105695929 19.919974,0.181988375 C20.1854275,0.25828082 20.4287562,0.363181359 20.6499675,0.496693139 C20.8711787,0.630204919 20.9817827,0.7668935 20.9817827,0.906762984 L20.9817827,2.87128364 Z M17.1990891,17.4049219 L18.9024073,14.2388012 C18.961397,14.1243625 19.1014953,14.0893957 19.3227066,14.1338996 C19.5439178,14.1784035 19.7651258,14.2610524 19.986337,14.3818488 C20.2075483,14.5026452 20.3918882,14.6456914 20.5393624,14.8109917 C20.6868366,14.976292 20.7237046,15.122517 20.6499675,15.249671 L19.1899805,17.9961853 L17.1990891,17.4049219 Z M31.2016916,17.9961853 L29.7417046,15.249671 C29.6679675,15.122517 29.7048355,14.976292 29.8523097,14.8109917 C29.9997839,14.6456914 30.1841238,14.5026452 30.4053351,14.3818488 C30.6265463,14.2610524 30.8477543,14.1784035 31.0689655,14.1338996 C31.2901768,14.0893957 31.4376487,14.1243625 31.5113858,14.2388012 L33.192583,17.4049219 L31.2016916,17.9961853 Z M23.3266103,17.9961853 L21.8445023,15.249671 C21.7707652,15.122517 21.8076332,14.976292 21.9551074,14.8109917 C22.1025815,14.6456914 22.2869215,14.5026452 22.5081327,14.3818488 C22.729344,14.2610524 22.9505519,14.1784035 23.1717632,14.1338996 C23.3929744,14.0893957 23.5330728,14.1243625 23.5920625,14.2388012 L25.2953806,17.4049219 L23.3266103,17.9961853 Z M27.2641509,17.9961853 L25.7599219,15.249671 C25.6861848,15.122517 25.7267396,14.976292 25.8815875,14.8109917 C26.0364354,14.6456914 26.2281489,14.5026452 26.4567339,14.3818488 C26.6853189,14.2610524 26.9065268,14.1784035 27.1203643,14.1338996 C27.3342019,14.0893957 27.4706135,14.1243625 27.5296031,14.2388012 L29.2329213,17.4049219 L27.2641509,17.9961853 Z M50.5133377,16.6610742 C50.5133377,17.0679673 50.3732393,17.3794901 50.0930384,17.595652 C49.8128375,17.8118139 49.4662784,17.9389661 49.0533507,17.9771123 C48.640423,18.0152586 48.2016939,17.9707553 47.7371503,17.8436012 C47.2726067,17.7164471 46.8559984,17.5130037 46.4873129,17.2332647 C47.1804415,17.2968417 47.6707858,17.2046564 47.9583604,16.956706 C48.2459351,16.7087555 48.3897202,16.4194843 48.3897202,16.0888837 L48.3897202,14.2388012 L43.1249187,14.2388012 L43.1249187,17.8817473 C43.1249187,17.9453243 43.0180015,17.9834699 42.804164,17.9961853 C42.5903264,18.0089008 42.3506845,17.9898279 42.085231,17.9389663 C41.8197775,17.8881047 41.5801355,17.8118134 41.366298,17.7100901 C41.1524604,17.6083668 41.0455433,17.4748571 41.0455433,17.3095568 L41.0455433,4.70229317 C41.0455433,4.58785451 41.1414,4.52109962 41.3331165,4.50202651 C41.5248329,4.48295339 41.7386672,4.50202622 41.9746259,4.55924555 C42.2105846,4.61646489 42.4391661,4.7022926 42.6603774,4.81673127 C42.8815886,4.93116994 43.021687,5.0519645 43.0806766,5.17911857 L44.8724789,5.17911857 L44.8724789,0.201061391 C44.8724789,0.0739073147 44.9830828,0.00715242616 45.2042941,0.000794722357 C45.4255053,-0.00556298144 45.6651473,0.0262250607 45.9232271,0.0961598025 C46.1813069,0.166094544 46.4209488,0.264637475 46.6421601,0.391791551 C46.8633713,0.518945627 46.9739753,0.658813013 46.9739753,0.811397904 L46.9739753,5.17911857 L48.6109304,5.17911857 L49.0312297,4.58785508 L51,5.59872493 L50.5133377,6.34257255 L50.5133377,16.6610742 Z M38.5679896,12.2933536 L38.5679896,15.249671 L39.0767729,14.9826488 C39.2389945,14.893641 39.4196477,14.893641 39.6187378,14.9826488 C39.8178279,15.0716567 39.9947943,15.1924512 40.1496422,15.3450361 C40.30449,15.497621 40.4187808,15.6470248 40.4925179,15.793252 C40.566255,15.9394792 40.5736286,16.0316645 40.5146389,16.0698107 L37.1080026,17.8817473 C36.9605284,17.9580397 36.7761885,17.9548609 36.5549772,17.8722107 C36.333766,17.7895606 36.1346788,17.6814813 35.9577098,17.5479695 C35.7807408,17.4144577 35.6480161,17.2745903 35.5595316,17.1283631 C35.4710471,16.9821359 35.4931678,16.8772354 35.6258946,16.8136584 L36.4664932,16.355906 L36.4664932,12.2933536 L35.7364997,12.2933536 C35.5595307,12.2933536 35.3973115,12.2107046 35.2498373,12.0454043 C35.1023632,11.880104 34.9880724,11.702091 34.9069616,11.5113599 C34.8258508,11.3206288 34.7889828,11.1426157 34.7963565,10.9773154 C34.8037302,10.8120151 34.881153,10.7293662 35.0286272,10.7293662 L36.4664932,10.7293662 L36.4664932,8.059144 L35.9355888,8.059144 C35.7733672,8.059144 35.6185217,7.97649509 35.4710475,7.81119479 C35.3235733,7.64589449 35.2092826,7.46788145 35.1281718,7.27715034 C35.047061,7.08641922 35.010193,6.90840619 35.0175667,6.74310589 C35.0249404,6.57780559 35.1023632,6.49515668 35.2498373,6.49515668 L39.4085882,6.49515668 C39.6003046,6.49515668 39.7551501,6.57780559 39.8731295,6.74310589 C39.9911088,6.90840619 40.0759052,7.08641922 40.1275211,7.27715034 C40.1791371,7.46788145 40.1975711,7.64589449 40.1828237,7.81119479 C40.1680763,7.97649509 40.1238347,8.059144 40.0500976,8.059144 L38.5679896,8.059144 L38.5679896,10.7293662 L39.6297983,10.7293662 C39.8215147,10.7293662 39.9800471,10.8120151 40.1054001,10.9773154 C40.2307532,11.1426157 40.3155496,11.3206288 40.3597918,11.5113599 C40.4040341,11.702091 40.4187812,11.880104 40.4040338,12.0454043 C40.3892864,12.2107046 40.3450448,12.2933536 40.2713077,12.2933536 L38.5679896,12.2933536 Z M37.9043591,2.41353125 L39.7404034,2.41353125 C39.9321198,2.41353125 40.0906522,2.49618016 40.2160052,2.66148046 C40.3413582,2.82678076 40.4298414,3.00479379 40.4814574,3.19552491 C40.5330733,3.38625602 40.5515073,3.56426906 40.5367599,3.72956936 C40.5220125,3.89486966 40.4777709,3.97751856 40.4040338,3.97751856 L37.3292128,3.97751856 L36.6434613,5.78945509 C36.6287139,5.85303213 36.5107363,5.86892615 36.289525,5.83713763 C36.0683138,5.80534911 35.8360455,5.74177302 35.5927131,5.64640747 C35.3493807,5.55104191 35.1392332,5.43024735 34.9622642,5.28402016 C34.7852951,5.13779298 34.73368,4.97567396 34.807417,4.79765825 L36.5328562,0.220134407 C36.5770985,0.0929803307 36.7098232,0.0452982675 36.9310345,0.0770867865 C37.1522457,0.108875305 37.3771405,0.181987802 37.6057254,0.296426471 C37.8343104,0.410865139 38.0297107,0.557090133 38.1919323,0.73510584 C38.3541539,0.913121546 38.4057691,1.07841937 38.3467794,1.23100426 L37.9043591,2.41353125 Z M43.1249187,12.6748139 L48.3897202,12.6748139 L48.3897202,10.481417 L43.1249187,10.481417 L43.1249187,12.6748139 Z M43.1249187,8.91742972 L48.3897202,8.91742972 L48.3897202,6.72403287 L43.1249187,6.72403287 L43.1249187,8.91742972 Z M49.2303188,4.35897889 C49.1860766,4.43527133 49.0644122,4.45116535 48.8653221,4.40666143 C48.6662319,4.3621575 48.463458,4.28268739 48.2569941,4.16824873 C48.0505303,4.05381006 47.8772508,3.92347908 47.7371503,3.7772519 C47.5970498,3.63102471 47.5638686,3.48797852 47.6376057,3.34810904 L49.1418347,0.639740759 C49.2155718,0.512586683 49.3519834,0.471262229 49.5510735,0.515766155 C49.7501636,0.560270082 49.9492508,0.642918991 50.1483409,0.763715364 C50.3474311,0.884511736 50.513337,1.03073673 50.6460638,1.20239473 C50.7787905,1.37405273 50.8156585,1.51709892 50.7566688,1.63153759 L49.2303188,4.35897889 Z M42.4612882,4.35897889 L41.0897853,1.8794868 C41.0013008,1.7014711 41.0123612,1.51074284 41.1229668,1.30729632 C41.2335724,1.1038498 41.388418,0.932194371 41.5875081,0.792324888 C41.7865983,0.652455404 41.9856854,0.563448886 42.1847755,0.525302663 C42.3838657,0.48715644 42.5276508,0.550732525 42.6161353,0.716032824 L44.2088484,3.67235031 L42.4612882,4.35897889 Z" id="热销" fill="#FFFFFF"></path>
                                            <path d="M5.95011581,17 C2.46824053,17 0,14.3819482 0,10.7772588 C0,8.86240273 1.05952767,6.8004165 1.10342523,6.71386933 C1.19521106,6.53644764 1.37678736,6.43908208 1.5643497,6.46071887 C1.74991669,6.48668302 1.90355818,6.63164953 1.95144643,6.82854433 C1.95543712,6.8415264 2.24077131,7.99693107 2.61589599,8.63954377 C2.86730933,9.0722796 3.01895548,8.78667396 3.30628501,8.99871451 C3.1107413,8.08131455 3.06883908,7.29373534 3.31227104,5.8765255 C3.98071128,1.9862304 6.80412305,1.05801204 6.92384369,1.01906582 C7.07948052,0.971464875 7.24309873,1.01473846 7.36281937,1.12941345 C7.48254001,1.24841581 7.53441895,1.42367382 7.50448879,1.59460447 C7.5004981,1.62056862 7.03358761,4.34464067 8.02327823,6.66410471 C8.11306871,6.87614527 8.23877538,7.12064101 8.37246343,7.36513676 C8.41037497,7.02976649 8.47023529,6.67059575 8.56202111,6.32224341 C8.92517372,4.94614347 9.8629854,4.47662509 9.90289228,4.45715198 C10.0605245,4.37925953 10.2421008,4.40522368 10.3777842,4.51989868 C10.5134675,4.63457367 10.5773186,4.82281376 10.5453931,5.00456281 C10.5414024,5.03918167 10.4097097,5.97389106 11.1439963,7.30239006 C11.8084458,8.50323199 11.9999988,9.27782912 11.9999988,10.7707677 C12.0019942,14.3819482 9.45593523,17 5.95011581,17 Z" id="路径" fill="url(#linearGradient-2)" opacity="0.802804129"></path>
                                        </g>
                                    </g>
                                </g>
                            </g>
                        </g>
                    </g>
                </g>
            </g>
        </g>
    </g>
</svg>