<?xml version="1.0" encoding="UTF-8"?>
<svg width="32px" height="36px" viewBox="0 0 32 36" version="1.1" xmlns="http://www.w3.org/2000/svg" xmlns:xlink="http://www.w3.org/1999/xlink">
    <!-- Generator: Sketch 52.5 (67469) - http://www.bohemiancoding.com/sketch -->
    <title>分组 26</title>
    <desc>Created with Sketch.</desc>
    <defs>
        <linearGradient x1="54.9078125%" y1="100%" x2="54.2177083%" y2="0%" id="linearGradient-1">
            <stop stop-color="#D1B813" offset="0%"></stop>
            <stop stop-color="#FFE63D" offset="100%"></stop>
        </linearGradient>
        <path d="M19,0.577350269 L32.5884573,8.42264973 C33.2072594,8.77991532 33.5884573,9.44016936 33.5884573,10.1547005 L33.5884573,25.8452995 C33.5884573,26.5598306 33.2072594,27.2200847 32.5884573,27.5773503 L19,35.4226497 C18.3811978,35.7799153 17.6188022,35.7799153 17,35.4226497 L3.41154273,27.5773503 C2.79274058,27.2200847 2.41154273,26.5598306 2.41154273,25.8452995 L2.41154273,10.1547005 C2.41154273,9.44016936 2.79274058,8.77991532 3.41154273,8.42264973 L17,0.577350269 C17.6188022,0.220084679 18.3811978,0.220084679 19,0.577350269 Z" id="path-2"></path>
        <filter x="3.9%" y="-1.9%" width="92.2%" height="103.8%" filterUnits="objectBoundingBox" id="filter-3">
            <feGaussianBlur stdDeviation="0.5" in="SourceAlpha" result="shadowBlurInner1"></feGaussianBlur>
            <feOffset dx="0" dy="1" in="shadowBlurInner1" result="shadowOffsetInner1"></feOffset>
            <feComposite in="shadowOffsetInner1" in2="SourceAlpha" operator="arithmetic" k2="-1" k3="1" result="shadowInnerInner1"></feComposite>
            <feColorMatrix values="0 0 0 0 1   0 0 0 0 0.930242585   0 0 0 0 0.467053346  0 0 0 1 0" type="matrix" in="shadowInnerInner1" result="shadowMatrixInner1"></feColorMatrix>
            <feGaussianBlur stdDeviation="0.5" in="SourceAlpha" result="shadowBlurInner2"></feGaussianBlur>
            <feOffset dx="0" dy="-1" in="shadowBlurInner2" result="shadowOffsetInner2"></feOffset>
            <feComposite in="shadowOffsetInner2" in2="SourceAlpha" operator="arithmetic" k2="-1" k3="1" result="shadowInnerInner2"></feComposite>
            <feColorMatrix values="0 0 0 0 0.796821854   0 0 0 0 0.708542223   0 0 0 0 0.122365477  0 0 0 1 0" type="matrix" in="shadowInnerInner2" result="shadowMatrixInner2"></feColorMatrix>
            <feMerge>
                <feMergeNode in="shadowMatrixInner1"></feMergeNode>
                <feMergeNode in="shadowMatrixInner2"></feMergeNode>
            </feMerge>
        </filter>
    </defs>
    <g id="Page-1" stroke="none" stroke-width="1" fill="none" fill-rule="evenodd">
        <g id="游记详情" transform="translate(-32.000000, -660.000000)" fill-rule="nonzero">
            <g id="分组-25" transform="translate(0.000000, 560.000000)">
                <g id="分组-24" transform="translate(30.000000, 40.000000)">
                    <g id="分组" transform="translate(0.000000, 51.000000)">
                        <g id="分组-26" transform="translate(0.000000, 9.000000)">
                            <g id="多边形">
                                <use fill="url(#linearGradient-1)" xlink:href="#path-2"></use>
                                <use fill="black" fill-opacity="1" filter="url(#filter-3)" xlink:href="#path-2"></use>
                            </g>
                            <path d="M17.6438133,23.4004222 L14.1414751,24.7354677 C13.625412,24.9321842 13.04759,24.6733027 12.8508735,24.1572396 C12.8015185,24.0277624 12.7796106,23.889441 12.7865393,23.7510493 L12.9739611,20.0075759 C12.9862374,19.7623744 12.9078832,19.5212249 12.7538256,19.3300685 L10.4018398,16.4116987 C10.055279,15.9816823 10.1229332,15.3521422 10.5529495,15.0055814 C10.6608382,14.9186313 10.7856197,14.855052 10.9193792,14.8188762 L14.5375504,13.840328 C14.7745445,13.776232 14.9796785,13.6271935 15.1138726,13.4216054 L17.1626037,10.2829081 C17.4644804,9.82042686 18.0841149,9.69023119 18.5465962,9.99210791 C18.66263,10.067847 18.7616572,10.1668742 18.8373963,10.2829081 L20.8861274,13.4216054 C21.0203215,13.6271935 21.2254555,13.776232 21.4624496,13.840328 L25.0806208,14.8188762 C25.6137517,14.9630635 25.9290527,15.5121383 25.7848655,16.0452691 C25.7486897,16.1790285 25.6851103,16.3038101 25.5981602,16.4116987 L23.2461744,19.3300685 C23.0921168,19.5212249 23.0137626,19.7623744 23.0260389,20.0075759 L23.2134607,23.7510493 C23.2410769,24.3026431 22.8163092,24.7721857 22.2647153,24.799802 C22.1263236,24.8067307 21.9880022,24.7848228 21.8585249,24.7354677 L18.3561867,23.4004222 C18.1267798,23.3129752 17.8732202,23.3129752 17.6438133,23.4004222 Z" id="星形" fill="#FFFFFF" opacity="0.9"></path>
                        </g>
                    </g>
                </g>
            </g>
        </g>
    </g>
</svg>