<?xml version="1.0" standalone="no"?><!DOCTYPE svg PUBLIC "-//W3C//DTD SVG 1.1//EN" "http://www.w3.org/Graphics/SVG/1.1/DTD/svg11.dtd"><svg t="1569308363730" class="icon" viewBox="0 0 1024 1024" version="1.1" xmlns="http://www.w3.org/2000/svg" p-id="3835" xmlns:xlink="http://www.w3.org/1999/xlink" width="32" height="32"><defs><style type="text/css"></style></defs><path d="M862.8 90H161.4c-55.7 0-96.2 43.2-96.2 102.6v515.8c-2.9 50.2 35.4 93.2 85.6 96.1 3.5 0.2 7.1 0.2 10.6 0H367l123 119.6c6.3 6.4 15 9.9 24 9.9 9.1 0 17.7-3.6 24.2-9.9l120.7-119.6h204c50.1 2.9 93.1-35.4 96-85.5 0.2-3.5 0.2-7.1 0-10.6V192.6C958.8 133.2 918.4 90 862.8 90z m27.8 618.3c2.5 12.8-5.9 25.3-18.7 27.8-3 0.6-6.1 0.6-9.1 0H645.4c-9.3-0.2-18.4 3.5-25 10.1L513.7 851.6 404.9 745.9c-6.6-6.6-15.6-10.1-25-9.8H161.4c-12.9 2.6-25.4-5.8-28-18.7-0.6-3-0.6-6.1 0-9.1V192.6c-2.6-16.2 8.4-31.4 24.5-34.1 1.2-0.2 2.3-0.3 3.5-0.4h701.4c16.4 0.8 29 14.7 28.2 31.1-0.1 1.1-0.2 2.2-0.4 3.4v515.7z" fill="#ffffff" p-id="3836"></path><path d="M236.8 447.9c0.1 33.4 27.2 60.4 60.6 60.4 33.4-0.1 60.4-27.2 60.4-60.6-0.1-33.4-27.1-60.4-60.5-60.4-33.5 0.1-60.5 27.2-60.5 60.6z m215.5 0c0.1 33.4 27.2 60.4 60.6 60.4 33.4-0.1 60.4-27.2 60.4-60.6-0.1-33.4-27.1-60.4-60.5-60.4s-60.4 27.1-60.4 60.4c-0.1 0.1-0.1 0.2-0.1 0.2z m214-0.8c0.1 33.4 27.2 60.4 60.6 60.4 33.4-0.1 60.4-27.2 60.4-60.6-0.1-33.4-27.1-60.4-60.5-60.4-33.5 0.1-60.6 27.2-60.5 60.6" fill="#ffffff" p-id="3837"></path></svg>