<?xml version="1.0" encoding="UTF-8"?>
<svg width="48px" height="48px" viewBox="0 0 48 48" version="1.1" xmlns="http://www.w3.org/2000/svg" xmlns:xlink="http://www.w3.org/1999/xlink">
    <!-- Generator: Sketch 52.5 (67469) - http://www.bohemiancoding.com/sketch -->
    <title>分组 53@2x</title>
    <desc>Created with Sketch.</desc>
    <defs>
        <rect id="path-1" x="0" y="0" width="48" height="48"></rect>
        <linearGradient x1="50%" y1="0.998676549%" x2="50%" y2="87.4098558%" id="linearGradient-3">
            <stop stop-color="#FFE635" offset="0%"></stop>
            <stop stop-color="#FF7D1C" offset="100%"></stop>
        </linearGradient>
        <path d="M24.0408666,41.3122361 L15.9222003,45.8315442 C14.4745262,46.6374014 12.6476782,46.1171059 11.841821,44.6694318 C11.5136014,44.0798049 11.3937626,43.396738 11.5016675,42.7305964 L13.1333087,32.6577984 C13.2847878,31.7226548 12.9856705,30.770905 12.3264681,30.0905436 L5.28814893,22.8263095 C4.13522537,21.6363795 4.16522496,19.7371215 5.3551549,18.584198 C5.80178357,18.1514593 6.37185562,17.8682139 6.98650742,17.773646 L16.4204365,16.3221788 C17.4109616,16.1697805 18.2599711,15.5328362 18.6833642,14.6244841 L22.7808721,5.83364645 C23.4808466,4.33191355 25.2656831,3.68195997 26.767416,4.38193449 C27.4069918,4.68004794 27.9210145,5.19407064 28.2191279,5.83364645 L32.3166358,14.6244841 C32.7400289,15.5328362 33.5890384,16.1697805 34.5795635,16.3221788 L44.0134926,17.773646 C45.651078,18.0255985 46.7743554,19.5573716 46.522403,21.194957 C46.4278351,21.8096088 46.1445897,22.3796808 45.7118511,22.8263095 L38.6735319,30.0905436 C38.0143295,30.770905 37.7152122,31.7226548 37.8666913,32.6577984 L39.4983325,42.7305964 C39.7632646,44.3661321 38.6521709,45.9067656 37.0166352,46.1716977 C36.3504936,46.2796026 35.6674267,46.1597639 35.0777997,45.8315442 L26.9591334,41.3122361 C26.0519212,40.8072305 24.9480788,40.8072305 24.0408666,41.3122361 Z" id="path-4"></path>
    </defs>
    <g id="Page-1" stroke="none" stroke-width="1" fill="none" fill-rule="evenodd">
        <g id="个人中心" transform="translate(-358.000000, -436.000000)">
            <g id="分组-53" transform="translate(358.000000, 436.000000)">
                <mask id="mask-2" fill="white">
                    <use xlink:href="#path-1"></use>
                </mask>
                <use id="矩形" fill="#FFFFFF" fill-rule="nonzero" xlink:href="#path-1"></use>
                <g id="星形-2" mask="url(#mask-2)">
                    <g transform="translate(-1.000000, -1.000000)">
                        <g id="路径-4" stroke="none" stroke-width="1" fill-rule="evenodd">
                            <mask id="mask-5" fill="white">
                                <use xlink:href="#path-4"></use>
                            </mask>
                            <use id="Mask" fill="url(#linearGradient-3)" fill-rule="nonzero" xlink:href="#path-4"></use>
                            <path d="M14.1311952,46.1921226 C13.2003576,46.0877224 12.3321184,45.5502217 11.841821,44.6694318 C11.5136014,44.0798049 11.3937626,43.396738 11.5016675,42.7305964 L13.1333087,32.6577984 C13.2847878,31.7226548 12.9856705,30.770905 12.3264681,30.0905436 L5.28814893,22.8263095 C4.13522537,21.6363795 4.16522496,19.7371215 5.3551549,18.584198 C5.80178357,18.1514593 6.37185562,17.8682139 6.98650742,17.773646 L16.4204365,16.3221788 C17.4109616,16.1697805 18.2599711,15.5328362 18.6833642,14.6244841 L22.7808721,5.83364645 C22.7955206,5.80221926 22.8106443,5.77116512 22.8262306,5.74048857 L29.4257759,8.4224021 L32.3166358,14.6244841 C32.4794003,14.9736809 32.7050648,15.2827675 32.9774886,15.5396349 L14.1311952,46.1921226 Z" id="路径" fill="#FFFFFF" fill-rule="nonzero" opacity="0.1" mask="url(#mask-5)"></path>
                        </g>
                        <path d="M23.3752151,19.3052306 C21.3515682,19.9019213 19.6839369,21.3291517 18.7669018,23.1923413 C18.4925145,23.7498288 18.2853261,24.3463465 18.1559066,24.9713247" id="路径" stroke="#FFFFFF" stroke-width="3" opacity="0.73" stroke-linecap="round" fill-rule="nonzero"></path>
                    </g>
                </g>
            </g>
        </g>
    </g>
</svg>