<?xml version="1.0" standalone="no"?><!DOCTYPE svg PUBLIC "-//W3C//DTD SVG 1.1//EN" "http://www.w3.org/Graphics/SVG/1.1/DTD/svg11.dtd"><svg t="1574151662101" class="icon" viewBox="0 0 2033 1024" version="1.1" xmlns="http://www.w3.org/2000/svg" p-id="7755" xmlns:xlink="http://www.w3.org/1999/xlink" width="254.125" height="128"><defs><style type="text/css"></style></defs><path d="M346.573955 228.94368C275.043582 260.844716 109.204683 281.501944 40.114827 259.33392c54.388651-49.246134 144.542488-17.635636 196.112923-50.727877 44.655639-3.254022 92.478139-10.546517 110.346205 20.337637zM362.49542 193.294708c83.239041 8.454646 141.608058-30.535509 198.32101 23.155852-64.208824 7.815463-128.446702 15.601873-192.68458 23.359229l-5.63643-46.515081zM709.658875 151.253908c17.141722 21.616002 75.946546-9.936388 83.762009 23.591659 20.337637-4.125635 12.49312-30.244971 29.199035-37.246929C1152.845029 98.957129 1585.51372 44.190779 1958.767458 0c36.404369 54.010952-6.159398 170.923308 44.655639 257.474479 2.00471 21.616002-20.221421 24.230841-29.199035 37.246928L2033.784283 786.398298c-184.578579 13.510001-404.457483 66.678394-579.651695 56.683898 27.862562-32.743595 56.015662-23.243013 93.03016-11.272861 26.322712-3.341183 23.707873-29.489573 42.476607-38.815832 110.171883-8.367485 315.930657-37.711789 425.230926-51.483275-32.598326-244.1388-51.657597-432.116669-83.703901-690.985728-416.892495 45.992112-849.35781 111.857001-1256.517293 145.414101-18.536303-38.583402 33.905745-21.499787 35.009788-44.684693z" fill="#d81e06" p-id="7756"></path><path d="M844.875105 168.599007c21.005873 3.951312 65.661512-22.400454 68.043921 5.258732-20.976819-3.922258-65.661512 22.3714-68.043921-5.258732zM0.049683 318.109689l19.930883-2.440516c33.498993 249.136048 54.098113 429.03697 92.972053 656.179316 255.150177-16.473486 534.705519-83.180933 772.336275-80.043127 125.19268-21.151142 285.395148-57.410243 418.54856-50.698822 21.819379-19.785615 126.529153-48.05493 128.650078 4.619549-4.47428 35.416541-49.652887 6.420882-66.41691 8.018839-401.697376 80.043127-867.545467 109.677969-1293.996652 170.226018C47.116784 781.255781-1.141522 507.046333 0.049683 318.109689zM1481.646505 806.096751c21.964647 17.025507 88.991687 8.890453 106.278678-12.870818-1.394581 14.555937 11.011378 11.505292 21.528841 10.866108l4.038473 33.237509c-58.921038-17.577529-96.051752 9.849227-159.44707 19.320755l-4.038474-33.237509c12.173528-4.445226 41.140133 4.183742 31.639552-17.316045zM1655.998157 798.455611c24.811917-6.072237 26.351766 17.461314 37.188822 29.169981l-46.486027 5.665485c-7.437764-19.872776 21.935594-10.866109 9.297205-34.835466z" fill="#d81e06" p-id="7757"></path><path d="M438.993987 488.480976c17.345099 13.364733 27.397702 19.785615 30.215917 19.43697 108.341495-17.025507 173.131395-25.538261 194.427805-25.509207 11.505292 1.365527 18.36198 10.343141 20.570067 27.107164 0.610129 15.485658-4.561441 24.724755-15.543765 27.542971-7.001958 0.900667-25.799745 3.341183-56.451468 7.379656-36.433423 3.370237-60.809533 6.624259-73.157385 9.616797-25.102454 3.254022-33.731423 18.594411-25.886905 45.904951-0.46486 2.46957 8.396539 15.718088 6.014129 17.519421-1.830387 1.423635-14.526883-8.4837-17.461313-7.495872-14.875528-5.113463-23.649766-1.859441-26.351767 9.849227-0.69729 5.752646 4.851979 48.258306 16.705916 127.516981l4.125635 31.349015c0.435806 14.091077-3.050645 25.160562-10.517464 33.295616-10.052603 9.820173-21.034927 12.667442-32.917917 8.570861-19.378862-7.379657-26.671358-30.535509-21.848432-69.438502-1.074989-8.367485-1.365527-10.459356-0.784452-6.304667a1626.98187 1626.98187 0 0 0-6.94385-69.26418c-2.498624-8.164108-5.926968-12.667442-10.285034-13.510001-5.956022-2.062817-11.330969 0.087161-16.153894 6.391829-39.425961 56.189984-65.370975 90.79302-77.864094 103.751-31.349014 31.000369-57.032544 40.733381-76.934374 29.228089-7.350603-1.888495-13.045141-7.495872-17.083614-16.880238-5.839807-11.999206-19.146432-5.985076-15.689034-12.115421 6.885743-12.231636 16.182948-17.025507 27.891616-14.265399 61.100071-42.0408 113.687388-105.668549 133.385842-160.725437 1.307419-11.505292-5.113463-17.025507-19.20454-16.5897-6.798581 2.324301-17.170776 4.358065-31.08753 6.217506s-24.288949 3.893205-31.08753 6.188452c-22.109916 4.299957-37.450305 6.333721-45.992113 6.043183-9.733012 1.249312-18.303873 0.987828-25.625422-0.900666-25.91596-13.626216-26.671358-30.506455-2.382409-50.727877 107.266506-14.032969 163.630813-22.13897 169.063868-24.288948 9.18099-5.462108 18.97211-17.403206 29.286196-35.736133 4.47428-9.093829 10.662732-10.604625 18.565357-4.561442l7.001958 5.404001z m-33.063187-155.147113c8.367485-1.104043 13.42284-0.348645 15.166067 2.23714 14.614045 25.015293 32.39495 36.171939 53.284607 33.440885 26.438928-3.486452 68.973642-9.093829 127.516981-16.734969 15.485658-0.610129 25.654476 6.595205 30.477401 21.499787 3.951312 19.349808-5.956022 30.564562-29.634841 33.644262-33.411831 4.387119-79.520159 9.762066-138.266875 16.008625 6.972904-0.871613 4.881033-0.610129-6.275614 0.813505-6.769528 2.324301-16.647808 13.568109-29.605788 33.644262-2.818215 2.46957-3.951312 22.923422-6.653312 23.243013-4.648603 0.610129-10.778947-21.034927-15.078905-26.729465-8.658022-11.65056-23.475443-16.764023-44.568478-15.42755l-43.900241 5.723592a1911.62162 1911.62162 0 0 1-72.8959 11.679614c-18.507249-0.406753-29.954433-6.682366-34.370606-18.884948-1.365527-21.063981 7.699248-32.85981 27.252433-35.445595 51.541382-6.740474 85.62145-11.912044 102.182097-15.514712 23.67882-3.108753 40.26852-17.345099 49.652887-42.650929 2.324301-4.561441 7.524926-8.047893 15.718087-10.546517z m146.372876 289.143084c50.030586 35.939509 88.236289 64.673684 114.123195 78.241793 3.283076-7.466818 13.016087-11.301915 29.634842-3.544559 12.609335 9.703958 15.19512 24.259895 7.844517 43.609703-10.895162 14.207292-22.778153 20.744389-35.678026 19.582239-51.192737-11.679614-95.122031-44.190779-131.9041-97.50444a241.291531 241.291531 0 0 1-14.294453-27.92067c-4.270904-10.778947-5.084409-17.054561-2.440516-18.797787 9.500582-2.672947 20.453852-0.552022 32.714541 6.333721zM830.580651 321.102227c19.466024 18.710626 32.62738 32.62738 39.484069 41.634048 15.834303 23.44639 17.519421 41.663101 5.026302 54.621081-18.071443 13.713378-33.09224 12.841765-45.004285-2.614839-1.568903-1.162151-4.125635-4.416173-7.64114-9.645851-18.652518-23.068691-32.685487-38.205703-42.127962-45.498198-16.299163-16.270109-16.938346-31.813874-1.830387-46.544134 17.89712-15.107959 35.242219-12.405958 52.093403 8.047893z m53.458931 148.232317c14.294453 0.929721 23.591658 6.827635 27.833508 17.577529-11.1857 34.080068-31.407122 67.608115-40.965811 86.696439-1.859441 3.77699-10.052603-26.874734-13.916754-34.835466 0.46486-7.147227-18.710626-7.466818-57.526457-0.958774-16.705916 2.179032-26.264605-5.7817-28.647014-23.882197 1.249312-22.83626 12.318797-35.678025 33.237509-38.380025 41.837424-5.491162 68.479728-7.553979 79.985019-6.217506z m23.620712 179.784707c0.145269 1.394581 2.702 4.590495 7.612087 9.616797 16.647808 19.088325 26.003121 30.62267 27.949723 34.632089 3.370237 4.445226 9.703958 6.94385 9.035722 9.529636-0.668237 2.614839-8.4837 5.258732-13.393787 5.897914-30.128756 8.164108-50.263016 16.473486-60.518995 24.928132-2.614839 1.77228-6.275614 6.47899-10.924217 14.178238-5.897915 9.268152-10.72084 15.543765-14.497829 18.884948-23.010583 8.687076-38.932047 0.871613-47.764392-23.504497 1.278366-11.534345 13.132302-29.373358 35.503702-53.575145 4.822925-6.275614 9.64585-18.274819 14.410669-35.910456 0.290538-8.512754 0.639183-11.41813 1.045935-8.599915-0.69729-26.84568-0.058108-43.232005 2.033764-49.21708 2.556731-13.074195 6.508044-20.657228 11.88299-22.778153 5.549269-0.726344 10.48841 4.270904 14.73026 15.078905 6.624259 28.937551 14.236346 49.158973 22.894368 60.838587z m303.524698-280.107363c19.843723 0.261484 26.700411 9.268152 20.541013 27.078111-4.503334 9.093829-6.159398 17.839013-5.055355 26.177443 16.822131 74.348588 27.717293 130.306143 32.656434 167.930771-1.104043 24.288949-7.612087 39.309746-19.611293 45.120499-24.550433 7.466818-46.340758 3.224968-65.458136-12.667442-8.135055-18.768733-4.997248-32.656434 9.442474-41.692155a23.707873 23.707873 0 0 1 10.749894 0.755398c7.960732-3.893205 11.795829-7.205334 11.447184-10.02355-7.060065-10.430302-20.047099-12.289743-39.019208-5.520215-23.155852 7.292495-35.213165 18.100497-36.17194 32.365895 3.283076 25.102454 4.590495 40.559058 3.951313 46.282651-2.120925 5.956022-6.595205 9.355313-13.539056 10.285033-16.734969 2.149979-26.874734 0.668237-30.361186-4.532388-6.304667-4.822925-9.471528-17.89712-9.384366-39.193531-1.743226-23.853142-15.020797-33.411831-39.948929-28.763229-23.707873 3.108753-33.411831 20.715336-29.228089 52.732587 1.336473 21.063981-9.268152 32.39495-31.697659 33.905745-17.083615-0.610129-26.061229-9.326259-26.816627-26.235551l4.561441-111.188764c0.69729-26.990949-1.423635-48.694113-6.420882-65.080437a142.62494 142.62494 0 0 0-27.107164-28.327423c-4.70671-3.631721-6.130345-9.093829-4.270904-16.444431 3.254022-7.524926 8.658022-8.541807 14.236346-9.239098 26.467981-3.457398 44.481316-6.94385 53.865683-11.011378 6.769528-2.266194 11.301915-11.1857 7.089119-21.993701-4.125635-9.355313-8.01884-18.303873-3.137807-24.637594 4.997248-4.881033 13.713378-3.079699 26.787573-0.581075 10.110711 1.53985 24.521379 5.926968 42.476606 13.451894 4.561441 2.295248 8.425592 3.747936 9.849227 3.544559 17.083615 0.610129 27.165272-11.214754 31.959143-28.821336-2.847269-10.982324-12.812711-16.764023-29.896325-17.403206-52.99407 6.972904-95.877429 14.73026-128.795347 23.30112-21.935594 5.752646-35.009789-1.830387-39.10637-22.487615-0.46486-14.091077 6.043183-24.201787 19.407916-30.215917 51.396113-8.106001 132.717605-20.192368 244.022585-36.259101 25.102454-3.254022 39.048262 0.581075 41.924585 11.534346 4.067527 9.384367-0.842559 20.686282-14.701206 33.818584-16.473486 14.904582-28.124046 29.199035-34.835466 42.854305-2.876323 10.285033-0.319591 19.175486 7.78641 26.613251l41.808369-5.433055z m-68.566888 304.570634a779.39634 779.39634 0 0 0 76.847212-14.323507c21.90654-5.694538 36.317208-9.006668 43.319166-9.936388 13.916754-1.830387 23.824089 3.254022 29.663895 15.224174 6.188452 14.788367 4.154689 26.38082-6.072237 34.806412-14.614045 7.583033-35.823294 13.219464-63.71491 16.851185l-58.543339 7.728302c-102.240204 20.424798-171.736814 14.672152-208.518882-17.316045-8.309377-8.832345-6.304667-15.456604 5.897914-19.930884 55.260264-0.087161 115.604937-4.532388 181.121181-13.103249z m-146.953951-212.499248c-0.290538 8.512754 8.570861 16.560647 26.584196 24.14368 7.321549 1.859441 19.407916 4.70671 18.768733 10.401249-0.668237 5.7817-13.074195 11.505292-19.6694 15.224173-12.144474 4.416173-17.606582 11.534345-16.35727 21.238304 2.672947 9.587743 13.858647 13.800539 33.586154 12.638388 18.274819-0.987828 29.402412-8.135055 33.32467-21.383572a31.726713 31.726713 0 0 0-21.557895-18.449142c-10.662732-5.665484-12.289743-12.551227-4.851979-20.628174 12.028259-5.839807 18.565357-15.19512 19.727508-28.094992-3.399291-15.137012-14.96269-22.13897-34.661144-21.005873-20.686282 4.212796-32.365896 12.783657-34.893573 25.915959z m112.089431-21.093034c7.205334 11.795829 15.979572 19.146432 26.293658 22.080862 24.027465-0.319591 40.791488-7.495872 50.350178-21.499787 1.510796-10.081657-6.653313-18.245765-24.492325-24.405164-29.809164-0.377699-47.241424 7.583033-52.151511 23.824089z m11.941098 74.987771c0.929721 6.972904 7.902624 11.737722 21.005873 14.236346 11.708668 2.731054 23.591658 1.191204 35.56181-4.648603 11.824883-7.17628 17.170776-15.020797 16.066733-23.388282-2.324301-6.769528-9.791119-10.023549-22.545723-9.791119-30.8551 2.672947-47.561016 10.48841-50.088693 23.591658zM1479.961386 400.622386c1.743226 2.643893 0.290538 7.786409-4.358065 15.42755-3.254022 7.553979-5.926968 14.265399-7.989785 20.192368-8.774237 19.611292-18.565357 31.494283-29.315251 35.736133-1.104043 0.435806-0.058108 12.812711-1.249312 12.812711-4.764818-0.058108-12.638388-15.863357-19.233593-22.923422-4.881033-4.997248-8.890453-8.047893-11.795829-9.093829-5.926968-2.033764-13.074195-2.498624-21.412626-1.423635l-16.764024 2.179033c-15.137012 3.428344-23.301121-4.735764-24.434217-24.434218-5.752646-21.90654 14.526883-35.213165 60.664264-39.861767 47.328586-6.130345 72.66347-2.382409 75.888438 11.389076z m-85.214697-163.195006a223.278195 223.278195 0 0 1 46.05022 42.883359c16.851185 20.453852 18.36198 37.305036 4.47428 50.437339-14.236346 10.372195-30.796992 8.280323-49.710994-6.24656-1.597957-1.191204-14.032969-15.166066-37.392198-41.866478-18.245765-20.308583-20.453852-37.014499-6.537097-50.204908 11.592453-8.599915 25.945013-6.885743 43.115789 4.997248z m66.329749 278.364137c2.614839 9.587743 5.549269 21.238303 8.803291 35.009788 4.125635 20.715336 11.069485 35.445595 20.657228 44.04551l2.382409 1.830387c14.555937 13.713378 28.007831 21.67411 27.630132 32.511165-0.145269 5.520216-17.19983 9.326259-28.1531 12.202582-5.578323 0.726344-9.674904 1.975656-12.289743 3.747936-13.393786 6.043183-27.891616 19.930884-43.406327 41.837424-15.456604 11.88299-31.494283 14.003915-48.05493 6.304667-9.64585-8.658022-10.139765-22.807207-1.336473-42.360392 3.283076-7.495872 7.844517-15.89241 13.742432-25.189615 11.272861-11.360023 17.780905-37.014499 19.669399-76.992481a15.747141 15.747141 0 0 1 1.278366-6.537098c1.830387-39.919875 7.118173-59.037254 15.89241-57.381189 8.135055-2.440516 15.863357 7.844517 23.184906 30.971316zM1760.068749 185.275869a16.008625 16.008625 0 0 1-1.278366 6.537097c-4.968194 16.299163 1.77228 29.547681 20.105207 39.919876 4.532388 2.266194 9.674904 3.689828 15.456604 4.329011 9.936388 0.116215 16.473486 7.060065 19.727507 20.802497 2.208086 16.705916-5.665484 27.020003-23.591658 30.767938-13.945808 1.830387-26.467981 9.151936-37.537467 21.90654-3.660775 4.735764-7.612087 19.495077-10.372194 19.872776s-9.471528-14.381614-21.499788-19.930883c-19.814669-10.197872-35.939509-14.410668-48.490736-12.783658a1544.788764 1544.788764 0 0 0-116.534657 19.553185c-12.376905 3.021592-20.628174 4.822925-24.811917 5.374947-30.303078 6.827635-47.561016-0.145269-51.657597-20.860604 1.481742-21.470733 16.909292-33.382778 46.340758-35.823294l49.943425-8.687077 48.054929-6.304667c22.109916-4.299957 37.275982-7.699248 45.411037-10.226926 8.164108-2.498624 16.008625-7.786409 23.475444-15.863356 6.24656-6.47899 12.72555-16.531593 19.436969-30.186864 8.774237-19.524131 19.059271-27.281487 30.942262-23.213959 9.965442 0.116215 15.601873 5.055355 16.880238 14.817421z m107.092183 411.227011c5.520216 20.570067-4.183742 33.179401-29.053766 37.857058-68.799319 16.12484-140.823606 23.44639-216.130969 21.935593-58.078479 0.552022-91.86801-8.512754-101.397645-27.107164-0.552022-4.212796 3.980366-7.583033 13.568109-10.285033 6.769528-2.295248 25.625422-4.764818 56.422414-7.408711 121.967712-10.285033 192.248773-20.192368 210.901291-29.751057 13.742432-3.195914 24.811917-5.404001 33.179402-6.508043 18.042389-2.324301 28.908498 4.735764 32.511164 21.267357z m-272.872975-237.921294c3.660775 4.445226 24.085572 10.575571 38.844886 40.094198 12.49312 25.015293 8.425592 42.825252-10.168818 52.325833-14.817421 6.188452-28.269315 0.900667-40.355682-15.979571a86.376848 86.376848 0 0 0-11.330969-18.884949c-14.555937-19.001163-12.638388-12.72555-22.807206-25.567314-9.355313-17.228884-6.653313-28.908498 8.164108-35.067896 13.393786-6.072237 27.542971-9.355313 37.653681 3.079699z m187.629224 25.799745c8.106001 18.826841 14.439722 39.977983 18.943056 63.453426 4.270904 22.13897 4.735764 41.924585 1.423635 59.356845-12.318797 68.305405-61.129125 85.330912-146.40193 51.105575-19.988991-11.505292-26.264605-27.020003-18.855894-46.456973 9.703958-12.609335 21.964647-16.328217 36.811122-11.1857 45.672521 23.765981 70.019577 14.96269 73.099277-26.61325a2337.084977 2337.084977 0 0 1-7.873571-92.5653l-1.074989-8.309377c-2.672947-30.8551-0.319591-45.352929 7.031011-43.464435 7.118173 0.493914 19.43697 18.710626 36.898283 54.679189z" fill="#d81e06" p-id="7758"></path></svg>