<?xml version="1.0" encoding="UTF-8"?>
<svg width="89px" height="22px" viewBox="0 0 89 22" version="1.1" xmlns="http://www.w3.org/2000/svg" xmlns:xlink="http://www.w3.org/1999/xlink">
    <!-- Generator: Sketch 52.5 (67469) - http://www.bohemiancoding.com/sketch -->
    <title>限时抢购@2x</title>
    <desc>Created with Sketch.</desc>
    <g id="Page-1" stroke="none" stroke-width="1" fill="none" fill-rule="evenodd">
        <g id="首页" transform="translate(-50.000000, -862.000000)" fill="#FFFFFF">
            <g id="分组-92" transform="translate(30.000000, 852.000000)">
                <g id="分组-87">
                    <path d="M40.8262786,22.1829146 L36.927965,22.1829146 C37.0443375,22.8020131 37.1977284,23.3842519 37.3881423,23.9296482 C37.5785563,24.4750446 37.7985626,24.9983225 38.0481678,25.4994975 L38.5997941,24.5449219 L41.2577353,24.5449219 L39.8356198,27.8432161 C40.3216551,28.2854293 40.867062,28.6170843 41.4718568,28.838191 L41.4632513,31.8673367 C40.4891705,31.6904514 39.5894483,31.333001 38.7640576,30.7949749 C37.938667,30.2569487 37.2060066,29.5678434 36.5660546,28.7276382 C35.9261026,27.887433 35.3935919,26.9145784 34.9685066,25.8090452 C34.5434214,24.7035121 34.2515313,23.4948139 34.0928278,22.1829146 L32.3651661,22.1829146 L32.3466987,28.6834171 C32.3461962,28.8603024 32.4195456,29.0298149 32.5667491,29.1919598 C32.7139526,29.3541047 32.8761504,29.4351759 33.0533473,29.4351759 L34.9360556,29.4351759 L34.9291461,31.8673367 L31.7839158,31.8673367 C31.4295219,31.8673367 31.101173,31.7973206 30.7988593,31.6572864 C30.4965457,31.5172522 30.2386817,31.3256294 30.0252597,31.0824121 C29.8118377,30.8391948 29.6465241,30.5554455 29.5293141,30.2311558 C29.412104,29.9068661 29.3540024,29.567841 29.3550074,29.2140704 L29.4076456,10.6854271 L40.8589419,10.6854271 L40.8262786,22.1829146 Z M28.5401867,27.5557789 C28.5384279,28.1748775 28.3228315,28.6981553 27.8933911,29.1256281 C27.4639507,29.553101 26.9391437,29.7668342 26.3189543,29.7668342 L23.7717608,29.7668342 L23.7796125,27.0030151 L24.887088,27.0030151 C25.064285,27.0030151 25.2195079,26.9403691 25.3527616,26.8150754 C25.4860153,26.6897816 25.5529133,26.5313242 25.5534577,26.3396985 L25.566209,21.8512563 L23.6613512,21.8512563 L23.6691401,19.1095477 C23.8915576,18.785258 24.0920004,18.3983272 24.2704746,17.9487437 C24.4489488,17.4991602 24.6127274,17.0237881 24.7618153,16.5226131 C24.9109032,16.021438 25.037871,15.5092153 25.1427225,14.9859296 C25.247574,14.4626439 25.3302223,13.9577914 25.3906699,13.4713568 L23.0428219,13.4713568 L22.9905606,31.8673367 L20.0003769,31.8673367 L20.0604899,10.7075377 L28.4330044,10.7075377 L28.4251527,13.4713568 C28.3648726,13.8988296 28.2822766,14.3852569 28.1773623,14.9306533 C28.072448,15.4760496 27.9527796,16.0177528 27.8183534,16.5557789 C27.6839271,17.093805 27.5459266,17.5912875 27.4043475,18.0482412 C27.2627684,18.5051949 27.1251761,18.8589602 26.9915665,19.1095477 L28.5641816,19.1095477 L28.5401867,27.5557789 Z M32.3853922,15.0633166 L37.856321,15.0633166 L37.8618486,13.1175879 L32.3909198,13.1175879 L32.3853922,15.0633166 Z M37.848532,17.8050251 L32.3776033,17.8050251 L32.3720756,19.7507538 L37.8430044,19.7507538 L37.848532,17.8050251 Z M50.8127311,31.0271357 L42.152273,31.0271357 L42.2087429,11.1497487 L50.8692009,11.1497487 L50.8127311,31.0271357 Z M61.7921753,10 L61.7843235,12.7638191 L63.6891813,12.7638191 L63.6813924,15.5055276 L61.7765346,15.5055276 L61.7387833,28.7939698 C61.7375689,29.2214427 61.6552138,29.6231137 61.4917154,29.998995 C61.328217,30.3748763 61.1057924,30.7028462 60.8244349,30.9829146 C60.5430774,31.262983 60.2139015,31.4840863 59.8368973,31.6462312 C59.4598931,31.808376 59.0572841,31.8894472 58.6290581,31.8894472 L55.1737347,31.8894472 L55.1815864,29.1256281 L57.6401819,29.1256281 C57.9502766,29.1256281 58.2126801,29.0187615 58.4274003,28.8050251 C58.6421205,28.5912887 58.7499187,28.3296498 58.7507981,28.0201005 L58.7863509,15.5055276 L51.787106,15.5055276 L51.7948949,12.7638191 L58.7941398,12.7638191 L58.8019916,10 L61.7921753,10 Z M55.6790125,17.760804 C55.9850452,19.1906269 56.2578389,20.6241134 56.4974018,22.0613065 C56.7369647,23.4984996 56.9360112,24.9025057 57.0945472,26.2733668 L54.0600645,26.2733668 C53.9015284,24.9025057 53.6987904,23.4984996 53.4518443,22.0613065 C53.2048982,20.6241134 52.9357961,19.1906269 52.6445298,17.760804 L55.6790125,17.760804 Z M47.8468564,22.4703518 L45.1667658,22.4703518 L45.1502457,28.2854271 L47.8303363,28.2854271 L47.8468564,22.4703518 Z M45.1746176,19.7065327 L47.8547082,19.7065327 L47.8712283,13.8914573 L45.1911377,13.8914573 L45.1746176,19.7065327 Z M87.674762,28.6093133 C88.0593588,28.3734663 88.3906991,27.9611407 88.6648409,27.6221106 C88.9389827,27.2830804 89.1542441,26.8777243 89.3106315,26.4060302 C89.4670188,25.934336 89.5535366,25.3668375 89.5701875,24.7035176 L89.5993332,14.4442211 L92.2794238,14.4442211 L92.2509062,24.4824121 C92.2489381,25.1752128 92.3210731,25.7721918 92.4673134,26.2733668 C92.6135537,26.7745419 92.8227576,27.2020083 93.0949312,27.5557789 C93.3671048,27.9095495 93.6984961,28.208039 94.0891151,28.4512563 C94.4797341,28.6944736 94.9257938,28.9118918 95.4273074,29.1035176 L95.4190788,32 C94.4598901,31.7788934 93.5933499,31.4361832 92.8194323,30.9718593 C92.0455147,30.5075354 91.4011793,29.9142415 90.8864068,29.1919598 C90.3675304,29.9142415 89.7235155,30.5075354 88.954343,30.9718593 C88.1851704,31.4361832 87.3203745,31.7788934 86.3599295,32 L86.3599463,31.9925537 L76.2549764,31.9925537 C75.1879793,31.9925537 74.2723323,31.1521301 74.0805649,30.9511108 C73.8887975,30.7500916 73.3219882,30 73.366836,28.9487437 L73.3993108,17.5175879 L85.2049992,17.5175879 L85.1847103,24.6592965 C85.1829515,25.2783951 84.9673551,25.8016729 84.5379147,26.2291457 C84.1084743,26.6566186 83.5836673,26.8703518 82.963478,26.8703518 L79.5081545,26.8703518 L79.5160063,24.1065327 L81.5316116,24.1065327 C81.723575,24.1065327 81.8824895,24.0438867 82.00836,23.918593 C82.1342305,23.7932992 82.1974369,23.6348418 82.1979813,23.4432161 L82.2069637,20.281407 L76.3816428,20.281407 L76.3598463,27.9537688 C76.3589669,28.2633181 76.3695258,29.2287346 77.4810512,29.2287346 L86.3661814,29.2287346 C86.8539763,29.0515235 87.2901653,28.8451604 87.674762,28.6093133 Z M69.7213227,10.1326633 L69.7072829,12.7553765 L72.1215794,12.7553765 L72.1137276,15.5191956 L69.6994311,15.5191956 L69.6901669,21.0994975 C70.0745543,20.9373526 70.4663714,20.7567849 70.8656299,20.5577889 C71.2648884,20.358793 71.6789385,20.1487448 72.1077926,19.9276382 L72.0999408,22.6914573 C71.7005358,22.9420448 71.30121,23.1668332 70.9019515,23.3658291 C70.502693,23.5648251 70.0960888,23.7527629 69.6821267,23.9296482 L69.6671142,29.2140704 C69.6661091,29.567841 69.5986981,29.9068661 69.4648791,30.2311558 C69.3310601,30.5554455 69.1456766,30.8391948 68.9087231,31.0824121 C68.6717695,31.3256294 68.4017421,31.5172522 68.0986328,31.6572864 C67.7955235,31.7973206 67.4667768,31.8673367 67.1123829,31.8673367 L64.4987408,31.8673367 L64.5065926,29.1035176 L65.6805166,29.1035176 C65.9906113,29.1035176 66.2345047,29.0150763 66.4122042,28.838191 C66.5899036,28.6613056 66.6791917,28.418092 66.6800711,28.1085427 L66.689242,24.880402 C66.2902976,24.9688447 65.883997,25.0499159 65.470328,25.1236181 C65.0566591,25.1973203 64.628272,25.2562812 64.185154,25.3005025 L64.1927545,22.6251256 C65.0642241,22.536683 65.8989537,22.3819107 66.6969681,22.160804 L66.7092474,15.5191956 L64.2063528,15.5191956 L64.2142046,12.7553765 L66.7170991,12.7553765 L66.731139,10.1326633 L69.7213227,10.1326633 Z M80.9069505,10.0884422 C81.0679991,10.5748768 81.3288323,11.0207685 81.6894578,11.4261307 C82.0500833,11.8314928 82.4662023,12.1926282 82.9378272,12.5095477 C83.4094521,12.8264672 83.9070154,13.1065314 84.4305321,13.3497487 C84.9540488,13.592966 85.4592361,13.788274 85.9461089,13.9356784 L85.937315,17.0311558 C85.3321433,16.9427131 84.723488,16.7842557 84.111331,16.5557789 C83.4991739,16.327302 82.9019597,16.0398677 82.3196705,15.6934673 C81.7373812,15.3470669 81.1884608,14.952766 80.6728926,14.5105528 C80.1573244,14.0683395 79.7009543,13.5819122 79.3037687,13.0512563 C78.903568,13.5819122 78.4444342,14.0683395 77.9263534,14.5105528 C77.4082727,14.952766 76.8608034,15.3470669 76.2839292,15.6934673 C75.707055,16.0398677 75.1082076,16.327302 74.4873692,16.5557789 C73.8665308,16.7842557 73.2606667,16.9427131 72.669759,17.0311558 L72.6785529,13.9356784 C73.1514969,13.788274 73.6504107,13.592966 74.1753094,13.3497487 C74.700208,13.1065314 75.1993626,12.8264672 75.6727882,12.5095477 C76.1462137,12.1926282 76.5643846,11.8314928 76.9273133,11.4261307 C77.2902421,11.0207685 77.5536087,10.5748768 77.7174212,10.0884422 L80.9069505,10.0884422 Z M101.30646,10.1547739 C101.261281,10.4643232 101.208731,10.7701827 101.148807,11.0723618 C101.088883,11.3745409 101.021587,11.6730304 100.946917,11.9678392 L108.05691,11.9678392 L108.008354,29.0592965 C108.006093,29.8552804 107.745821,30.5112202 107.227531,31.0271357 C106.709241,31.5430512 106.051413,31.801005 105.254026,31.801005 L101.46646,31.801005 L101.474312,29.0371859 L104.043655,29.0371859 C104.338983,29.0371859 104.575483,28.9524297 104.753162,28.7829146 C104.93084,28.6133995 105.020118,28.3738709 105.020997,28.0643216 L105.058874,14.7316583 L99.6986928,14.7316583 C99.268708,15.3507569 98.7503838,15.8814048 98.1437046,16.3236181 C97.5370253,16.7658314 96.8126235,17.0680059 95.9704773,17.2301508 L95.9794597,14.0683417 C96.2900569,13.8914564 96.5711694,13.6961485 96.8228056,13.4824121 C97.0744419,13.2686756 97.296678,13.0070367 97.4895208,12.6974874 C97.6823636,12.3879382 97.8495092,12.0268027 97.9909626,11.6140704 C98.1324161,11.201338 98.248236,10.7149107 98.3384258,10.1547739 L101.30646,10.1547739 Z M95.292629,25.5617065 L92.8783325,25.5617065 L92.8085226,13.6794166 L88.954508,13.6794166 L88.9578693,25.5617065 L86.5435728,25.5617065 L86.547121,11.2472557 L95.2961772,11.2472557 L95.292629,25.5617065 Z M101.331326,24.7919598 L100.813737,21.9912109 L103.693173,21.9912109 L104.255061,24.7919598 L104.247209,27.5557789 L96.2290867,27.5557789 L96.2369385,24.7919598 L97.6463121,18.0357666 L100.658645,18.0357666 L99.2935708,24.7919598 L101.331326,24.7919598 Z" id="限时抢购"></path>
                </g>
            </g>
        </g>
    </g>
</svg>