<?xml version="1.0" encoding="UTF-8"?>
<svg width="59px" height="60px" viewBox="0 0 59 60" version="1.1" xmlns="http://www.w3.org/2000/svg" xmlns:xlink="http://www.w3.org/1999/xlink">
    <!-- Generator: Sketch 52.5 (67469) - http://www.bohemiancoding.com/sketch -->
    <title>支付宝支付</title>
    <desc>Created with Sketch.</desc>
    <g id="Page-1" stroke="none" stroke-width="1" fill="none" fill-rule="evenodd">
        <g id="消息" transform="translate(-31.000000, -767.000000)" fill="#3BA2F3" fill-rule="nonzero">
            <g id="支付宝支付" transform="translate(31.000000, 767.000000)">
                <path d="M58.7755102,40.5345603 L58.7755102,11.5964378 C58.7722663,5.35604232 53.7136288,0.298467314 47.4735447,0.296846011 L11.2990269,0.296846011 C5.06009031,0.300088864 0.00324269119,5.35718932 0,11.5964378 L0,47.7727644 C0.00162215222,54.0126846 5.05941869,59.070734 11.2990269,59.0723562 L47.4735447,59.0723562 C52.9435618,59.0684453 57.6273776,55.1514611 58.5991925,49.7681929 C55.6017913,48.4692542 42.613053,42.8620705 35.8453914,39.6294174 C30.6969141,45.8684378 25.3015921,49.6124378 17.1733454,49.6124378 C9.04509877,49.6124378 3.61745178,44.6047644 4.26982732,38.4744787 C4.6988671,34.4542338 7.45823933,27.8801929 19.439028,29.005744 C25.7570795,29.5993766 28.6457514,30.7778256 33.7971673,32.4793766 C35.128366,30.0343154 36.236229,27.3453358 37.0766768,24.4859072 L14.2376555,24.4859072 L14.2376555,22.2230501 L25.539621,22.2230501 L25.539621,18.1557848 L11.7545143,18.1557848 L11.7545143,15.6666419 L25.5366823,15.6666419 L25.5366823,9.80378479 C25.5366823,9.80378479 25.6601047,8.88688683 26.6739316,8.88688683 L32.3249144,8.88688683 L32.3249144,15.6666419 L47.0180573,15.6666419 L47.0180573,18.1587236 L32.3249144,18.1587236 L32.3249144,22.2201113 L44.3115803,22.2201113 C43.2776975,26.5003463 41.6380521,30.6110449 39.4422728,34.4277848 C42.9245477,35.6914583 58.7725716,40.5345603 58.7725716,40.5345603 L58.7755102,40.5345603 Z M16.2741251,45.7332542 C7.68451373,45.7332542 6.32686733,40.3112134 6.78235476,38.0454174 C7.23196493,35.7884378 9.72098334,32.8437848 14.4962548,32.8437848 C19.9826743,32.8437848 24.8989999,34.2485195 30.7997661,37.1226419 C26.6562998,42.5182338 21.5636565,45.7332542 16.2741251,45.7332542 Z" id="形状"></path>
            </g>
        </g>
    </g>
</svg>