<?xml version="1.0" encoding="UTF-8"?>
<svg width="176px" height="176px" viewBox="0 0 176 176" version="1.1" xmlns="http://www.w3.org/2000/svg" xmlns:xlink="http://www.w3.org/1999/xlink">
    <!-- Generator: Sketch 52.5 (67469) - http://www.bohemiancoding.com/sketch -->
    <title>分组 16</title>
    <desc>Created with Sketch.</desc>
    <defs>
        <linearGradient x1="50%" y1="0.282243497%" x2="50%" y2="100%" id="linearGradient-1">
            <stop stop-color="#4FC3FF" offset="0%"></stop>
            <stop stop-color="#18A5DB" offset="100%"></stop>
        </linearGradient>
        <circle id="path-2" cx="74" cy="74" r="74"></circle>
        <filter x="-16.2%" y="-12.2%" width="132.4%" height="132.4%" filterUnits="objectBoundingBox" id="filter-3">
            <feOffset dx="0" dy="6" in="SourceAlpha" result="shadowOffsetOuter1"></feOffset>
            <feGaussianBlur stdDeviation="7" in="shadowOffsetOuter1" result="shadowBlurOuter1"></feGaussianBlur>
            <feColorMatrix values="0 0 0 0 0.184313725   0 0 0 0 0.658823529   0 0 0 0 0.835294118  0 0 0 0.558169158 0" type="matrix" in="shadowBlurOuter1"></feColorMatrix>
        </filter>
        <filter x="-55.7%" y="-61.9%" width="211.4%" height="223.8%" filterUnits="objectBoundingBox" id="filter-4">
            <feOffset dx="0" dy="5" in="SourceAlpha" result="shadowOffsetOuter1"></feOffset>
            <feGaussianBlur stdDeviation="7.5" in="shadowOffsetOuter1" result="shadowBlurOuter1"></feGaussianBlur>
            <feColorMatrix values="0 0 0 0 0.160105727   0 0 0 0 0.638061068   0 0 0 0 0.849250638  0 0 0 1 0" type="matrix" in="shadowBlurOuter1" result="shadowMatrixOuter1"></feColorMatrix>
            <feMerge>
                <feMergeNode in="shadowMatrixOuter1"></feMergeNode>
                <feMergeNode in="SourceGraphic"></feMergeNode>
            </feMerge>
        </filter>
    </defs>
    <g id="Page-1" stroke="none" stroke-width="1" fill="none" fill-rule="evenodd">
        <g id="分享发布" transform="translate(-441.000000, -899.000000)" fill-rule="nonzero">
            <g id="分组-16" transform="translate(455.000000, 907.000000)">
                <g id="椭圆形">
                    <use fill="black" fill-opacity="1" filter="url(#filter-3)" xlink:href="#path-2"></use>
                    <use fill="url(#linearGradient-1)" xlink:href="#path-2"></use>
                </g>
                <g id="分组-14" filter="url(#filter-4)" transform="translate(39.000000, 44.000000)" fill="#FFFFFF">
                    <path d="M63,6 L63,56.2361642 C63,59.5498727 60.3137085,62.2361642 57,62.2361642 C56.058181,62.2361642 55.1295889,62.0144499 54.2893612,61.5889614 L37.7277902,53.2022366 C36.0247474,52.3398213 34.0129519,52.3392717 32.3094381,53.2007562 L15.7077134,61.5964196 C12.7506275,63.0918484 9.14115124,61.9069412 7.64572243,58.9498554 C7.22119314,58.1103841 7,57.182853 7,56.242142 L7,6 L3,6 C1.34314575,6 2.02906125e-16,4.65685425 0,3 C-2.02906125e-16,1.34314575 1.34314575,3.04359188e-16 3,0 L67,0 C68.6568542,-3.04359188e-16 70,1.34314575 70,3 C70,4.65685425 68.6568542,6 67,6 L63,6 Z M23,20 C21.3431458,20 20,21.3431458 20,23 C20,24.6568542 21.3431458,26 23,26 L47,26 C48.6568542,26 50,24.6568542 50,23 C50,21.3431458 48.6568542,20 47,20 L23,20 Z" id="合并形状"></path>
                </g>
            </g>
        </g>
    </g>
</svg>